<svg width="242" height="53" viewBox="0 0 242 53" fill="none" xmlns="http://www.w3.org/2000/svg">
<g clip-path="url(#clip0_477_4404)">
<rect x="0.428711" width="512" height="512" fill="white"/>
<g clip-path="url(#clip1_477_4404)">
<mask id="mask0_477_4404" style="mask-type:alpha" maskUnits="userSpaceOnUse" x="0" y="0" width="53" height="53">
<circle cx="26.6548" cy="26.2261" r="26.2261" fill="#D9D9D9"/>
</mask>
<g mask="url(#mask0_477_4404)">
<path fill-rule="evenodd" clip-rule="evenodd" d="M1.07283 0H52.8809V51.7071C52.8809 52.1189 52.5921 52.4522 52.2365 52.4522H1.07283C0.717093 52.4522 0.428711 52.1189 0.428711 51.7071V0.745571C0.428711 0.333803 0.717093 0 1.07283 0Z" fill="#42ADE2"/>
<path fill-rule="evenodd" clip-rule="evenodd" d="M0.428711 39.5445C0.428711 39.5445 11.6828 36.6311 23.8747 39.9167C36.2769 43.2589 48.6601 48.0518 52.8809 45.4027C52.8809 50.6998 52.8809 52.4522 52.8809 52.4522H0.428711V39.5445Z" fill="#6EB925"/>
<path fill-rule="evenodd" clip-rule="evenodd" d="M52.8809 9.93027C52.8809 15.15 50.9076 15.2773 32.893 11.1397C22.5808 8.7712 10.7409 8.84812 0.428711 19.4786C0.428755 11.649 0.428711 5.04472 0.428711 0C4.82701 0 7.10592 0 11.4592 0C16.0125 0 52.6981 0 52.8809 0C52.8809 0.188722 52.8809 2.67353 52.8809 9.93027Z" fill="#FECD57"/>
<path fill-rule="evenodd" clip-rule="evenodd" d="M28.5705 22.6294L23.1165 22.6096H16.8323C14.7253 21.8392 12.9223 20.1633 12.3009 17.7779C12.1167 17.0705 11.869 16.111 12.1204 15.4216C12.2736 15.0013 12.7428 14.8098 13.1314 14.8077C15.4783 14.7947 17.8252 14.7925 20.1721 14.7879C24.4868 14.7793 24.4441 14.7681 28.7588 14.7681C31.1289 14.7681 33.0994 14.8792 35.2076 16.0354C36.8228 16.9212 38.0613 18.1163 39.1432 19.5997C40.0659 20.8648 40.606 22.3936 40.9666 23.9759C42.1134 29.0075 39.3928 33.7403 35.6048 36.2332C34.6271 36.8767 33.3952 37.2391 32.283 37.4609C27.5937 38.3961 24.2007 36.3828 22.7471 31.5995L25.6588 31.5896L28.5705 31.5797C29.0982 31.5777 29.0982 30.5501 28.5705 30.5501C28.5705 30.5501 25.1726 30.5566 22.7053 30.5501C22.2072 30.5488 21.4488 30.0385 21.0469 29.774C19.3637 28.6663 18.1527 26.9899 17.5969 24.8561C17.5068 24.5105 17.3615 24.0064 17.3615 23.6591L28.5705 23.6788C29.0982 23.6801 29.0982 22.6303 28.5705 22.6294Z" fill="white"/>
</g>
</g>
</g>
<g clip-path="url(#clip2_477_4404)">
<path d="M71.5192 40.6911C71.5192 46.4233 74.5218 49.3653 80.436 49.3653H80.7393C84.4698 49.3653 87.0175 48.0308 87.0175 45.4225C87.0175 43.3601 85.8347 42.4502 83.6509 42.2076L83.0747 42.1469C81.1639 41.9952 80.3754 41.0248 80.3754 38.7197V23.1607H83.4993C85.592 23.1607 86.8962 21.8566 86.8962 19.8245C86.8962 17.7925 85.592 16.4883 83.4993 16.4883H80.3754V12.8791C80.3754 10.0282 78.7073 8.26905 75.9473 8.26905C73.1873 8.26905 71.5192 10.0282 71.5192 12.8791V16.4883H69.8208C67.728 16.4883 66.3936 17.7622 66.3936 19.8245C66.3936 21.8869 67.728 23.1607 69.8208 23.1607H71.5192V40.6911ZM100.544 49.517C104.608 49.517 108.673 47.4848 110.492 44.0273H110.674V45.6954C110.856 48.3038 112.524 49.6382 114.92 49.6382C117.438 49.6382 119.227 48.1218 119.227 45.1798V26.6487C119.227 20.0975 113.798 15.7907 105.458 15.7907C98.7246 15.7907 93.508 18.1868 91.9915 22.0689C91.6882 22.7361 91.5365 23.3731 91.5365 24.0707C91.5365 26.0724 93.0834 27.4675 95.2367 27.4675C96.6622 27.4675 97.7844 26.9216 98.7549 25.8297C100.726 23.2821 102.364 22.4025 105.063 22.4025C108.4 22.4025 110.523 24.1616 110.523 27.1945V29.3479L102.334 29.8332C94.2056 30.3185 89.6561 33.7457 89.6561 39.6599C89.6561 45.5135 94.3572 49.517 100.544 49.517ZM103.456 43.1174C100.484 43.1174 98.482 41.601 98.482 39.1747C98.482 36.8696 100.362 35.3834 103.668 35.1409L110.523 34.7163V37.0819C110.523 40.6002 107.338 43.1174 103.456 43.1174ZM129.6 49.6382C132.208 49.6382 134.028 48.0611 134.028 45.0282V38.4468L136.849 35.8384L145.189 46.8783C146.584 48.971 147.646 49.6382 149.526 49.6382C152.013 49.6382 153.742 48.0005 153.742 45.6348C153.742 44.4823 153.469 43.6937 152.498 42.3895L143.43 30.8341L151.71 23.0091C152.984 21.8263 153.378 21.0073 153.378 19.6729C153.378 17.4892 151.71 15.821 149.435 15.821C148.101 15.821 147.1 16.3367 145.917 17.5801L134.149 29.3783H134.028V9.20926C134.028 6.17633 132.208 4.56888 129.6 4.56888C127.022 4.56888 125.172 6.17633 125.172 9.20926V45.0282C125.172 48.0611 127.022 49.6382 129.6 49.6382ZM163.023 49.6382C165.631 49.6382 167.451 48.0611 167.451 45.0282V9.20926C167.451 6.17633 165.631 4.56888 163.023 4.56888C160.445 4.56888 158.595 6.17633 158.595 9.20926V45.0282C158.595 48.0611 160.445 49.6382 163.023 49.6382ZM178.006 12.4545C180.674 12.4545 182.736 10.4224 182.736 7.87477C182.736 5.29678 180.674 3.29504 178.006 3.29504C175.337 3.29504 173.274 5.29678 173.274 7.87477C173.274 10.4224 175.337 12.4545 178.006 12.4545ZM178.006 49.6382C180.735 49.6382 182.433 47.9095 182.433 45.0282V20.4615C182.433 17.5801 180.735 15.821 178.006 15.821C175.245 15.821 173.577 17.5801 173.577 20.4615V45.0282C173.577 47.9095 175.245 49.6382 178.006 49.6382ZM203.3 49.6989C209.578 49.6989 214.613 47.3332 216.766 43.3298C217.16 42.6018 217.373 41.8739 217.373 41.1764C217.373 39.1443 215.826 37.9311 213.915 37.9311C212.763 37.9311 211.974 38.2647 211.034 39.2353C208.638 42.056 206.515 43.1478 203.27 43.1478C198.781 43.1478 195.869 39.9935 195.869 35.1712V34.7769H214.431C216.888 34.7769 218.283 33.3817 218.283 30.925C218.283 22.0992 212.096 15.7907 202.876 15.7907C193.261 15.7907 187.165 22.4328 187.165 32.8965C187.165 43.4207 193.139 49.6989 203.3 49.6989ZM195.96 29.3479C196.263 25.1928 199.084 22.3419 202.967 22.3419C206.848 22.3419 209.578 25.1019 209.76 29.3479H195.96ZM229.656 49.6382C232.265 49.6382 234.084 48.0915 234.084 45.0282V23.1607H237.603C239.453 23.1607 240.847 21.9779 240.847 19.8852C240.847 17.8228 239.453 16.64 237.603 16.64H233.872V14.5776C233.872 12.1815 234.964 11.0897 237.694 10.9987C238.361 10.9683 238.907 10.8774 239.392 10.7561C240.575 10.3921 241.181 9.6642 241.181 8.4207C241.181 6.32798 239.21 4.84184 234.509 4.84184C228.382 4.9025 225.229 7.75345 225.229 14.1833V16.64H223.53C221.68 16.64 220.284 17.8228 220.284 19.8852C220.284 21.9779 221.68 23.1607 223.53 23.1607H225.229V45.0282C225.229 48.0915 227.017 49.6382 229.656 49.6382Z" fill="black"/>
</g>
<defs>
<clipPath id="clip0_477_4404">
<rect x="0.428711" width="52.4522" height="52.4522" rx="26.2261" fill="white"/>
</clipPath>
<clipPath id="clip1_477_4404">
<rect width="52.5546" height="52.5546" fill="white" transform="translate(0.428711 -0.102417)"/>
</clipPath>
<clipPath id="clip2_477_4404">
<rect width="175.577" height="47.207" fill="white" transform="translate(65.9941 2.62256)"/>
</clipPath>
</defs>
</svg>
