<svg width="18" height="18" viewBox="0 0 18 18" fill="none" xmlns="http://www.w3.org/2000/svg">
<path d="M9.00521 17.3333C4.40283 17.3333 0.671875 13.6023 0.671875 8.99996C0.671875 4.39758 4.40283 0.666626 9.00521 0.666626C13.6075 0.666626 17.3385 4.39758 17.3385 8.99996C17.3385 13.6023 13.6075 17.3333 9.00521 17.3333ZM9.00521 15.6666C12.6871 15.6666 15.6719 12.6819 15.6719 8.99996C15.6719 5.31806 12.6871 2.33329 9.00521 2.33329C5.32331 2.33329 2.33854 5.31806 2.33854 8.99996C2.33854 12.6819 5.32331 15.6666 9.00521 15.6666ZM8.17404 12.3333L4.63853 8.79779L5.81705 7.61921L8.17404 9.97629L12.8881 5.26223L14.0666 6.44073L8.17404 12.3333Z" fill="black"/>
</svg>
