
<svg width="18" height="18" viewBox="0 0 18 18" fill="none" xmlns="http://www.w3.org/2000/svg">
    <path d="M8.99935 17.3332C4.39685 17.3332 0.666016 13.6023 0.666016 8.99984C0.666016 4.39734 4.39685 0.666504 8.99935 0.666504C13.6018 0.666504 17.3327 4.39734 17.3327 8.99984C17.3327 13.6023 13.6018 17.3332 8.99935 17.3332ZM8.99935 15.6665C10.7675 15.6665 12.4632 14.9641 13.7134 13.7139C14.9636 12.4636 15.666 10.7679 15.666 8.99984C15.666 7.23173 14.9636 5.53603 13.7134 4.28579C12.4632 3.03555 10.7675 2.33317 8.99935 2.33317C7.23124 2.33317 5.53555 3.03555 4.2853 4.28579C3.03506 5.53603 2.33268 7.23173 2.33268 8.99984C2.33268 10.7679 3.03506 12.4636 4.2853 13.7139C5.53555 14.9641 7.23124 15.6665 8.99935 15.6665ZM8.16851 12.3332L4.63268 8.79734L5.81101 7.619L8.16851 9.9765L12.8818 5.26234L14.061 6.44067L8.16851 12.3332Z" fill="#42ADE2" />
</svg>

