<svg width="72" height="46" viewBox="0 0 72 46" fill="none" xmlns="http://www.w3.org/2000/svg">
<rect width="72" height="46" rx="23" fill="black"/>
<path d="M21.2959 19.5138C20.7484 19.5138 19.9009 18.8913 19.0084 18.9138C17.8309 18.9288 16.7509 19.5963 16.1434 20.6538C14.9209 22.7763 15.8284 25.9113 17.0209 27.6363C17.6059 28.4763 18.2959 29.4213 19.2109 29.3913C20.0884 29.3538 20.4184 28.8213 21.4834 28.8213C22.5409 28.8213 22.8409 29.3913 23.7709 29.3688C24.7159 29.3538 25.3159 28.5138 25.8934 27.6663C26.5609 26.6913 26.8384 25.7463 26.8534 25.6938C26.8309 25.6863 25.0159 24.9888 24.9934 22.8888C24.9784 21.1338 26.4259 20.2938 26.4934 20.2563C25.6684 19.0488 24.4009 18.9138 23.9584 18.8838C22.8034 18.7938 21.8359 19.5138 21.2959 19.5138ZM23.2459 17.7438C23.7334 17.1588 24.0559 16.3413 23.9659 15.5312C23.2684 15.5613 22.4284 15.9963 21.9259 16.5813C21.4759 17.0988 21.0859 17.9313 21.1909 18.7263C21.9634 18.7863 22.7584 18.3288 23.2459 17.7438Z" fill="white"/>
<path d="M31.6621 29V18.4312H35.6465C37.6313 18.4312 39.0376 19.8008 39.0376 21.8076V21.8223C39.0376 23.8291 37.6313 25.228 35.6465 25.228H32.9805V29H31.6621ZM35.3096 19.603H32.9805V24.0562H35.3096C36.8184 24.0562 37.6899 23.2285 37.6899 21.8369V21.8223C37.6899 20.4307 36.8184 19.603 35.3096 19.603ZM42.9121 29.1392C41.4106 29.1392 40.2754 28.231 40.2754 26.7954V26.7808C40.2754 25.3745 41.3154 24.5615 43.1538 24.4517L45.417 24.3125V23.5947C45.417 22.6206 44.8237 22.0933 43.6445 22.0933C42.6997 22.0933 42.0771 22.4448 41.8721 23.0601L41.8647 23.082H40.5903L40.5977 23.0381C40.8027 21.8003 42.0039 20.9653 43.6885 20.9653C45.6147 20.9653 46.6914 21.9541 46.6914 23.5947V29H45.417V27.8354H45.2998C44.8018 28.6777 43.9741 29.1392 42.9121 29.1392ZM41.5791 26.7661C41.5791 27.5645 42.2603 28.0332 43.1758 28.0332C44.4722 28.0332 45.417 27.1836 45.417 26.0557V25.3379L43.3076 25.4697C42.1064 25.543 41.5791 25.9678 41.5791 26.7515V26.7661ZM49.4014 31.7686C49.2329 31.7686 49.0132 31.7539 48.8374 31.7246V30.6772C48.9912 30.7065 49.189 30.7139 49.3647 30.7139C50.0898 30.7139 50.5293 30.3843 50.8149 29.4761L50.9614 29.0073L48.0391 21.1045H49.4014L51.5693 27.6011H51.6865L53.8472 21.1045H55.1875L52.104 29.4834C51.4521 31.2559 50.8003 31.7686 49.4014 31.7686Z" fill="#FFFEFC"/>
</svg>
