<svg width="24" height="24" viewBox="0 0 24 24" fill="none" xmlns="http://www.w3.org/2000/svg">
<path d="M13.4917 17.7142C13.3698 17.7146 13.2494 17.6877 13.1393 17.6355C13.0291 17.5832 12.9321 17.507 12.8552 17.4124L8.91407 12.5148C8.7941 12.3687 8.72852 12.1855 8.72852 11.9965C8.72852 11.8075 8.7941 11.6244 8.91407 11.4783L12.9941 6.58006C13.0627 6.49752 13.1468 6.4293 13.2418 6.37929C13.3368 6.32928 13.4407 6.29847 13.5475 6.28861C13.6544 6.27875 13.7622 6.29004 13.8647 6.32183C13.9672 6.35362 14.0624 6.40528 14.145 6.47388C14.2275 6.54248 14.2957 6.62666 14.3457 6.72162C14.3957 6.81658 14.4265 6.92046 14.4364 7.02733C14.4463 7.1342 14.435 7.24196 14.4032 7.34447C14.3714 7.44698 14.3197 7.54222 14.2511 7.62476L10.6041 12.0001L14.1305 16.3754C14.2303 16.4952 14.2937 16.6411 14.3131 16.7958C14.3326 16.9505 14.3074 17.1075 14.2405 17.2483C14.1735 17.3891 14.0676 17.5078 13.9354 17.5904C13.8031 17.6729 13.65 17.7159 13.4941 17.7142H13.4917Z" fill="black"/>
</svg>
