<svg width="21" height="20" viewBox="0 0 21 20" fill="none" xmlns="http://www.w3.org/2000/svg">
<g clip-path="url(#clip0_602_226)">
<path d="M17.7254 12.5V15H20.2543V16.6667H17.7254V19.1667H16.0394V16.6667H13.5105V15H16.0394V12.5H17.7254ZM17.7323 2.5C18.1941 2.5 18.5683 2.87079 18.5683 3.32783V10.8333H16.8824V4.16667H3.39492V15.8325L11.8246 7.5L14.3535 10V12.3575L11.8246 9.857L5.77799 15.8333H11.8246V17.5H2.54504C2.0833 17.5 1.70898 17.1292 1.70898 16.6722V3.32783C1.70898 2.87063 2.0928 2.5 2.54504 2.5H17.7323ZM6.76679 5.83333C7.69791 5.83333 8.45273 6.57952 8.45273 7.5C8.45273 8.4205 7.69791 9.16667 6.76679 9.16667C5.83567 9.16667 5.08085 8.4205 5.08085 7.5C5.08085 6.57952 5.83567 5.83333 6.76679 5.83333Z" fill="black"/>
</g>
<defs>
<clipPath id="clip0_602_226">
<rect width="20.2312" height="20" fill="white" transform="translate(0.0234375)"/>
</clipPath>
</defs>
</svg>
