<svg width="89" height="88" viewBox="0 0 89 88" fill="none" xmlns="http://www.w3.org/2000/svg">
<g clip-path="url(#clip0_623_1499)">
<path d="M44.002 88C68.3025 88 88.002 68.3005 88.002 44C88.002 19.6995 68.3025 0 44.002 0C19.7014 0 0.00195312 19.6995 0.00195312 44C0.00195312 68.3005 19.7014 88 44.002 88Z" fill="#FD8469"/>
<path d="M42.6686 24H24.002V42.6667H42.6686V24Z" fill="#F9B54C"/>
<path d="M41.3359 25.3333H25.3359V41.3333H41.3359V25.3333Z" fill="#FFD05B"/>
<path d="M38.6686 38.6667H36.3353L35.4047 36.2405H31.1547L30.2797 38.6667H28.002L32.1408 28H34.4186L38.6686 38.6667ZM34.7242 34.4418L33.2658 30.4819L31.8353 34.4418H34.7242Z" fill="#2B3B4E"/>
<path d="M64.0026 24H45.3359V42.6667H64.0026V24Z" fill="#2FB5A0"/>
<path d="M62.668 25.3333H46.668V41.3333H62.668V25.3333Z" fill="#4CDBC4"/>
<path d="M50.668 28H54.493C55.2555 28 55.818 28.0419 56.1805 28.1117C56.5555 28.1815 56.8805 28.3351 57.1805 28.5585C57.468 28.7818 57.718 29.075 57.918 29.452C58.118 29.829 58.2055 30.2339 58.2055 30.6946C58.2055 31.1972 58.0805 31.6579 57.843 32.0768C57.6055 32.4956 57.2805 32.8028 56.8555 33.0122C57.443 33.2077 57.8805 33.5288 58.193 33.9756C58.5055 34.4363 58.668 34.9668 58.668 35.5812C58.668 36.0698 58.568 36.5445 58.368 36.9913C58.168 37.452 57.893 37.815 57.543 38.0942C57.193 38.3735 56.7555 38.541 56.243 38.5969C55.918 38.6387 55.143 38.6667 53.918 38.6667H50.668V28ZM52.6055 29.7731V32.2443H53.868C54.618 32.2443 55.093 32.2304 55.268 32.2024C55.593 32.1606 55.8555 32.0349 56.043 31.8255C56.2305 31.6161 56.3305 31.3368 56.3305 30.9878C56.3305 30.6527 56.243 30.3874 56.0805 30.178C55.918 29.9686 55.6805 29.8429 55.3555 29.801C55.168 29.7731 54.618 29.7592 53.7055 29.7592H52.6055V29.7731ZM52.6055 34.0314V36.8935H54.393C55.093 36.8935 55.5305 36.8656 55.718 36.8237C56.0055 36.7679 56.243 36.6283 56.418 36.3909C56.593 36.1675 56.693 35.8604 56.693 35.4834C56.693 35.1623 56.618 34.897 56.4805 34.6736C56.343 34.4503 56.143 34.2827 55.8805 34.185C55.618 34.0873 55.043 34.0314 54.168 34.0314H52.6055Z" fill="white"/>
<path d="M42.6686 45.3334H24.002V64H42.6686V45.3334Z" fill="#54C0EB"/>
<path d="M41.3359 46.6667H25.3359V62.6667H41.3359V46.6667Z" fill="#84DBFF"/>
<path d="M36.5672 56.0403L38.6693 56.6733C38.3469 57.7912 37.8144 58.6262 37.0577 59.1784C36.3149 59.7306 35.362 59.9999 34.2128 59.9999C32.7834 59.9999 31.6202 59.5285 30.7093 58.5992C29.7984 57.67 29.3359 56.3905 29.3359 54.7609C29.3359 53.0504 29.7984 51.7171 30.7233 50.7609C31.6483 49.8181 32.8535 49.3333 34.353 49.3333C35.6703 49.3333 36.7353 49.7104 37.5481 50.4511C38.0386 50.8955 38.403 51.5285 38.6412 52.3501L36.4971 52.8484C36.371 52.3097 36.1047 51.8922 35.6983 51.5824C35.2919 51.2726 34.8014 51.1245 34.2268 51.1245C33.428 51.1245 32.7834 51.3939 32.2929 51.946C31.8024 52.4982 31.5502 53.3871 31.5502 54.6127C31.5502 55.9191 31.7884 56.8484 32.2789 57.4006C32.7694 57.9528 33.4 58.2356 34.1848 58.2356C34.7594 58.2356 35.2499 58.0605 35.6703 57.7104C36.0907 57.3467 36.385 56.7945 36.5672 56.0403Z" fill="#F1543F"/>
<path d="M64.0026 45.3333H45.3359V63.9999H64.0026V45.3333Z" fill="#ACB3BA"/>
<path d="M62.668 46.6667H46.668V62.6667H62.668V46.6667Z" fill="#E6E9EE"/>
<path d="M50.6804 49.3333H54.1944C54.992 49.3333 55.5901 49.403 56.0138 49.5424C56.5745 49.7237 57.048 50.0583 57.4468 50.5184C57.8455 50.9925 58.1446 51.5642 58.3564 52.2474C58.5683 52.9306 58.668 53.7672 58.668 54.7712C58.668 55.6496 58.5683 56.4025 58.3814 57.0439C58.1446 57.8248 57.8082 58.4522 57.3596 58.9263C57.0231 59.2888 56.5745 59.5677 56.0013 59.7768C55.5776 59.9302 55.0044 59.9999 54.2941 59.9999H50.668V49.3333H50.6804ZM52.5994 51.1319V58.2012H54.0325C54.5683 58.2012 54.9546 58.1733 55.1913 58.1036C55.5029 58.02 55.7645 57.8666 55.9639 57.6574C56.1758 57.4483 56.3378 57.0997 56.4624 56.6256C56.587 56.1516 56.6617 55.4962 56.6617 54.6736C56.6617 53.8509 56.5994 53.2095 56.4624 52.7773C56.3378 52.3311 56.1508 51.9964 55.9141 51.7455C55.6773 51.4945 55.3783 51.3271 55.0293 51.2435C54.7552 51.1738 54.2318 51.1459 53.4468 51.1459H52.5994V51.1319Z" fill="#2B3B4E"/>
</g>
<defs>
<clipPath id="clip0_623_1499">
<rect width="88" height="88" fill="white" transform="translate(0.00195312)"/>
</clipPath>
</defs>
</svg>
