<svg width="20" height="21" viewBox="0 0 20 21" fill="none" xmlns="http://www.w3.org/2000/svg">
<path d="M13.3333 3.83341H6.66667V4.25008C6.66667 4.4802 6.48012 4.66675 6.25 4.66675C6.01988 4.66675 5.83333 4.4802 5.83333 4.25008V3.83341H4.58333C3.89298 3.83341 3.33333 4.39306 3.33333 5.08341V7.16675H16.6667V5.08341C16.6667 4.39306 16.107 3.83341 15.4167 3.83341H14.1667V4.25008C14.1667 4.4802 13.9801 4.66675 13.75 4.66675C13.5199 4.66675 13.3333 4.4802 13.3333 4.25008V3.83341ZM14.1667 3.00008H15.4167C16.5673 3.00008 17.5 3.93282 17.5 5.08341V15.9229C17.5 17.0735 16.5673 18.0062 15.4167 18.0062H4.58333C3.43274 18.0062 2.5 17.0735 2.5 15.9229V5.08341C2.5 3.93282 3.43274 3.00008 4.58333 3.00008H5.83333V2.58341C5.83333 2.3533 6.01988 2.16675 6.25 2.16675C6.48012 2.16675 6.66667 2.3533 6.66667 2.58341V3.00008H13.3333V2.58341C13.3333 2.3533 13.5199 2.16675 13.75 2.16675C13.9801 2.16675 14.1667 2.3533 14.1667 2.58341V3.00008ZM16.6667 8.00008H3.33333V15.9229C3.33333 16.6132 3.89298 17.1729 4.58333 17.1729H15.4167C16.107 17.1729 16.6667 16.6132 16.6667 15.9229V8.00008Z" fill="black" stroke="black" stroke-width="0.75"/>
</svg>
