<svg width="16" height="16" viewBox="0 0 16 16" fill="none" xmlns="http://www.w3.org/2000/svg">
<path d="M10.6667 2.66671H5.33333V3.00004C5.33333 3.18414 5.18409 3.33337 5 3.33337C4.81591 3.33337 4.66667 3.18414 4.66667 3.00004V2.66671H3.66667C3.11438 2.66671 2.66667 3.11442 2.66667 3.66671V5.33337H13.3333V3.66671C13.3333 3.11442 12.8856 2.66671 12.3333 2.66671H11.3333V3.00004C11.3333 3.18414 11.1841 3.33337 11 3.33337C10.8159 3.33337 10.6667 3.18414 10.6667 3.00004V2.66671ZM11.3333 2.00004H12.3333C13.2538 2.00004 14 2.74623 14 3.66671V12.3383C14 13.2587 13.2538 14.0049 12.3333 14.0049H3.66667C2.74619 14.0049 2 13.2587 2 12.3383V3.66671C2 2.74623 2.74619 2.00004 3.66667 2.00004H4.66667V1.66671C4.66667 1.48261 4.81591 1.33337 5 1.33337C5.18409 1.33337 5.33333 1.48261 5.33333 1.66671V2.00004H10.6667V1.66671C10.6667 1.48261 10.8159 1.33337 11 1.33337C11.1841 1.33337 11.3333 1.48261 11.3333 1.66671V2.00004ZM13.3333 6.00004H2.66667V12.3383C2.66667 12.8906 3.11438 13.3383 3.66667 13.3383H12.3333C12.8856 13.3383 13.3333 12.8906 13.3333 12.3383V6.00004Z" fill="#C5CDD9" stroke="#C5CDD9" stroke-width="0.25"/>
</svg>
