<svg width="24" height="25" viewBox="0 0 24 25" fill="none" xmlns="http://www.w3.org/2000/svg">
<g clip-path="url(#clip0_529_6140)">
<path d="M9.99902 3.63159H13.999C16.1208 3.63159 18.1556 4.47445 19.6559 5.97474C21.1562 7.47503 21.999 9.50986 21.999 11.6316C21.999 13.7533 21.1562 15.7882 19.6559 17.2884C18.1556 18.7887 16.1208 19.6316 13.999 19.6316V23.1316C8.99902 21.1316 1.99902 18.1316 1.99902 11.6316C1.99902 9.50986 2.84188 7.47503 4.34217 5.97474C5.84246 4.47445 7.87729 3.63159 9.99902 3.63159ZM11.999 17.6316H13.999C14.787 17.6316 15.5672 17.4764 16.2951 17.1749C17.0231 16.8733 17.6845 16.4314 18.2417 15.8742C18.7988 15.3171 19.2408 14.6556 19.5423 13.9277C19.8438 13.1997 19.999 12.4195 19.999 11.6316C19.999 10.8437 19.8438 10.0634 19.5423 9.33549C19.2408 8.60754 18.7988 7.9461 18.2417 7.38895C17.6845 6.8318 17.0231 6.38984 16.2951 6.08831C15.5672 5.78679 14.787 5.63159 13.999 5.63159H9.99902C8.40773 5.63159 6.8816 6.26373 5.75638 7.38895C4.63117 8.51417 3.99902 10.0403 3.99902 11.6316C3.99902 15.2416 6.46102 17.5976 11.999 20.1116V17.6316Z" fill="black"/>
</g>
<defs>
<clipPath id="clip0_529_6140">
<rect width="24" height="24" fill="white" transform="translate(0 0.631592)"/>
</clipPath>
</defs>
</svg>
