<svg width="20" height="20" viewBox="0 0 20 20" fill="none" xmlns="http://www.w3.org/2000/svg">
<g clip-path="url(#clip0_224_9657)">
<path d="M10.0001 0.000244141C4.4772 0.000244141 0 4.47696 0 10.0004C0 15.5228 4.4772 20 10.0001 20C15.5228 20 20 15.5228 20 10.0004C20 4.47696 15.5228 0.000244141 10.0001 0.000244141Z" fill="#435863"/>
<path d="M12.8904 13.1247C12.7289 12.9988 12.4948 12.9357 12.1877 12.9357H9.10543C9.20378 12.7862 9.30028 12.6582 9.39477 12.5519C9.61518 12.2843 10.0216 11.9083 10.6141 11.4241C11.2065 10.9399 11.6287 10.5847 11.8807 10.3583C12.1326 10.132 12.3796 9.81906 12.6217 9.41947C12.8638 9.01996 12.9849 8.57611 12.9849 8.08796C12.9849 7.77705 12.9267 7.47682 12.8107 7.18748C12.6945 6.89813 12.5322 6.6433 12.3236 6.4228C12.1149 6.20239 11.8728 6.02922 11.5973 5.90317C11.1721 5.7142 10.6584 5.61975 10.0561 5.61975C9.55617 5.61975 9.12022 5.69356 8.74824 5.84117C8.37626 5.98879 8.06918 6.18272 7.82708 6.4228C7.58498 6.66297 7.40286 6.93062 7.28089 7.22585C7.15883 7.52108 7.09784 7.8045 7.09784 8.07615C7.09784 8.30051 7.16278 8.47767 7.2927 8.60759C7.42262 8.73751 7.58591 8.80245 7.78278 8.80245C8.00715 8.80245 8.17738 8.73158 8.29355 8.58989C8.4096 8.44816 8.51396 8.24549 8.60651 7.9817C8.69894 7.71799 8.76493 7.55655 8.80431 7.4975C9.09954 7.04486 9.50494 6.81844 10.0207 6.81844C10.2647 6.81844 10.4901 6.87363 10.6968 6.98379C10.9034 7.09404 11.0667 7.24859 11.1869 7.44731C11.3069 7.64616 11.367 7.87153 11.367 8.12339C11.367 8.35569 11.3109 8.59284 11.1987 8.8349C11.0865 9.07696 10.9231 9.31317 10.7086 9.54346C10.494 9.77375 10.2253 10.0031 9.90259 10.2313C9.72148 10.3534 9.42033 10.6083 8.99917 10.996C8.57789 11.3838 8.10554 11.8493 7.58204 12.3925C7.45603 12.5264 7.33994 12.7104 7.23364 12.9446C7.12735 13.1789 7.07422 13.3668 7.07422 13.5085C7.07422 13.729 7.15689 13.9209 7.3222 14.0842C7.48755 14.2476 7.7178 14.3292 8.01307 14.3292H12.359C12.6188 14.3292 12.8126 14.2624 12.9406 14.1285C13.0685 13.9947 13.1325 13.8313 13.1325 13.6384C13.1325 13.422 13.0517 13.2507 12.8904 13.1247Z" fill="white"/>
</g>
<defs>
<clipPath id="clip0_224_9657">
<rect width="20" height="20" fill="white"/>
</clipPath>
</defs>
</svg>
