<svg width="20" height="20" viewBox="0 0 20 20" fill="none" xmlns="http://www.w3.org/2000/svg">
<g clip-path="url(#clip0_224_9654)">
<path d="M10.0001 0.000244141C4.4772 0.000244141 0 4.47696 0 10.0004C0 15.5228 4.4772 20 10.0001 20C15.5228 20 20 15.5228 20 10.0004C20 4.47696 15.5228 0.000244141 10.0001 0.000244141Z" fill="#435863"/>
<path d="M11.2364 5.86185C11.1103 5.70049 10.9431 5.61975 10.7345 5.61975C10.5494 5.61975 10.4234 5.65518 10.3566 5.72605C10.2896 5.79691 10.1459 5.98584 9.92552 6.29292C9.70502 6.59996 9.45212 6.8775 9.16677 7.12548C8.88129 7.37347 8.50045 7.60968 8.02419 7.83405C7.70534 7.98368 7.48287 8.10565 7.35694 8.20014C7.23093 8.29463 7.16797 8.44224 7.16797 8.64298C7.16797 8.81623 7.2319 8.96877 7.35988 9.10062C7.48775 9.23255 7.63447 9.29842 7.79978 9.29842C8.14612 9.29842 8.8193 8.91463 9.81922 8.14701V13.5203C9.81922 13.8353 9.89202 14.0735 10.0377 14.2348C10.1833 14.3962 10.3762 14.4769 10.6163 14.4769C11.1556 14.4769 11.4253 14.0813 11.4253 13.2901V6.5291C11.4253 6.24568 11.3623 6.02333 11.2364 5.86185Z" fill="white"/>
</g>
<defs>
<clipPath id="clip0_224_9654">
<rect width="20" height="20" fill="white"/>
</clipPath>
</defs>
</svg>
