<svg width="20" height="20" viewBox="0 0 20 20" fill="none" xmlns="http://www.w3.org/2000/svg">
<g clip-path="url(#clip0_224_9660)">
<path d="M10.0001 0.000244141C4.4772 0.000244141 0 4.47696 0 10.0004C0 15.5228 4.4772 20 10.0001 20C15.5228 20 20 15.5228 20 10.0004C20 4.47696 15.5228 0.000244141 10.0001 0.000244141Z" fill="#435863"/>
<path d="M12.8851 10.872C12.7788 10.6142 12.6203 10.3789 12.4098 10.1664C12.1991 9.9538 11.9403 9.76483 11.6333 9.59948C11.9521 9.33182 12.1972 9.05727 12.3684 8.77575C12.5396 8.49435 12.6252 8.15679 12.6252 7.76309C12.6252 7.46399 12.5662 7.18444 12.4481 6.92461C12.33 6.66477 12.1548 6.43654 11.9226 6.23966C11.6903 6.04287 11.4167 5.89231 11.1018 5.78795C10.7868 5.68371 10.4384 5.63147 10.0567 5.63147C9.61971 5.63147 9.22411 5.69347 8.86983 5.81746C8.51555 5.94145 8.21927 6.10588 7.98116 6.31049C7.74293 6.51522 7.56194 6.73076 7.43791 6.95706C7.31391 7.18348 7.25192 7.39897 7.25192 7.60362C7.25192 7.81618 7.31778 7.98653 7.44972 8.11439C7.58157 8.24237 7.7262 8.3063 7.88373 8.3063C8.01752 8.3063 8.13563 8.28268 8.23801 8.23544C8.34032 8.1882 8.41119 8.12326 8.45057 8.04058C8.51744 7.88704 8.59125 7.72375 8.67199 7.5505C8.75261 7.37732 8.83827 7.2356 8.92884 7.12535C9.01934 7.01518 9.14232 6.92662 9.29788 6.85963C9.45331 6.79275 9.65115 6.75926 9.89132 6.75926C10.2456 6.75926 10.527 6.8685 10.7357 7.08697C10.9443 7.30545 11.0487 7.5663 11.0487 7.86935C11.0487 8.267 10.9177 8.57203 10.656 8.78458C10.3941 8.99713 10.0822 9.10343 9.72008 9.10343H9.47798C9.19843 9.10343 8.9879 9.16156 8.84617 9.27761C8.70444 9.39378 8.63362 9.54627 8.63362 9.73524C8.63362 9.92817 8.69267 10.0787 8.81078 10.187C8.92888 10.2953 9.09613 10.3493 9.31267 10.3493C9.35992 10.3493 9.46621 10.3415 9.63152 10.3257C9.79687 10.31 9.91881 10.3021 9.99762 10.3021C10.4464 10.3021 10.7967 10.433 11.0487 10.6947C11.3005 10.9566 11.4266 11.3177 11.4266 11.7783C11.4266 12.0893 11.3527 12.3628 11.2051 12.599C11.0575 12.8352 10.8705 13.0134 10.6442 13.1334C10.4178 13.2535 10.1826 13.3135 9.93856 13.3135C9.51341 13.3135 9.18368 13.1806 8.94952 12.9149C8.71524 12.6492 8.4958 12.2428 8.29114 11.6956C8.25958 11.6051 8.19271 11.5273 8.0904 11.4624C7.98797 11.3974 7.88172 11.3649 7.77155 11.3649C7.55106 11.3649 7.36708 11.4349 7.21947 11.5745C7.07185 11.7143 6.99805 11.8984 6.99805 12.1266C6.99805 12.3038 7.06004 12.5281 7.18404 12.7998C7.30803 13.0714 7.49108 13.3341 7.73318 13.588C7.97528 13.842 8.28324 14.0536 8.65728 14.2228C9.03119 14.392 9.4544 14.4767 9.92679 14.4767C10.3912 14.4767 10.8155 14.4029 11.1992 14.2553C11.583 14.1077 11.9147 13.903 12.1942 13.6412C12.4737 13.3795 12.6852 13.0813 12.829 12.7467C12.9726 12.4121 13.0445 12.0657 13.0445 11.7074C13.0445 11.4084 12.9913 11.1299 12.8851 10.872Z" fill="white"/>
</g>
<defs>
<clipPath id="clip0_224_9660">
<rect width="20" height="20" fill="white"/>
</clipPath>
</defs>
</svg>
