<svg width="16" height="16" viewBox="0 0 16 16" fill="none" xmlns="http://www.w3.org/2000/svg">
<path d="M7.99932 6.5233C7.90541 6.5233 7.81367 6.53248 7.72458 6.54933L6.0024 3.29489C5.88984 3.0822 5.62616 3.00098 5.4135 3.11357C5.2008 3.2261 5.11961 3.48978 5.23218 3.70247L6.95409 6.9565C6.69446 7.21617 6.54265 7.56266 6.52443 7.92504C6.51758 8.06154 6.53056 8.19862 6.55761 8.31967L5.08147 9.16034C4.87238 9.27944 4.79941 9.54549 4.91851 9.75458C4.99886 9.89567 5.14605 9.97477 5.29754 9.97477C5.37065 9.97477 5.44473 9.95633 5.51276 9.91758L6.98976 9.07642C7.25405 9.32443 7.60911 9.47682 7.99929 9.47682C8.81356 9.47682 9.47604 8.81434 9.47604 8.00008C9.47604 7.18578 8.81358 6.5233 7.99932 6.5233ZM7.99932 8.60536C7.66477 8.60536 7.39401 8.33239 7.39401 8.00008C7.39401 7.66215 7.66982 7.39476 7.99932 7.39476C8.33306 7.39476 8.60461 7.66631 8.60461 8.00008C8.60458 8.33384 8.33306 8.60536 7.99932 8.60536Z" fill="#C5CDD9"/>
<path d="M8.00065 1.33337C4.31876 1.33337 1.33398 4.31815 1.33398 8.00004C1.33398 11.6819 4.31876 14.6667 8.00065 14.6667C11.6825 14.6667 14.6673 11.6819 14.6673 8.00004C14.6673 4.31815 11.6825 1.33337 8.00065 1.33337ZM12.0985 12.0979C11.1073 13.0891 9.8202 13.677 8.43638 13.7792L8.43641 13.106C8.43641 12.8653 8.24135 12.6703 8.00068 12.6703C7.76007 12.6703 7.56495 12.8653 7.56495 13.106L7.56492 13.7792C6.18113 13.677 4.89404 13.0891 3.90284 12.0979C2.91159 11.1066 2.3237 9.81956 2.22151 8.43577H2.89468C3.13532 8.43577 3.33041 8.24068 3.33041 8.00004C3.33041 7.7594 3.13532 7.56431 2.89468 7.56431H2.22151C2.3237 6.18049 2.91159 4.89343 3.90282 3.9022C4.89404 2.91098 6.18113 2.32306 7.56492 2.22087V2.89404C7.56492 3.13468 7.76001 3.32977 8.00065 3.32977C8.24129 3.32977 8.43638 3.13468 8.43638 2.89404V2.2209C9.82017 2.32306 11.1072 2.91098 12.0985 3.9022C13.0897 4.89343 13.6776 6.18049 13.7798 7.56431H13.1066C12.866 7.56431 12.6709 7.7594 12.6709 8.00004C12.6709 8.24068 12.866 8.43577 13.1066 8.43577H13.7798C13.6776 9.81956 13.0897 11.1066 12.0985 12.0979Z" fill="#C5CDD9"/>
</svg>
