<svg width="41" height="40" viewBox="0 0 41 40" fill="none" xmlns="http://www.w3.org/2000/svg">
<g clip-path="url(#clip0_623_1456)">
<path d="M27.5895 16.1785H15.0288C14.9279 16.1785 14.8312 16.2186 14.7599 16.2899C14.6885 16.3612 14.6485 16.458 14.6484 16.5589V39.2325C14.6485 39.3334 14.6885 39.4302 14.7599 39.5015C14.8312 39.5728 14.9279 39.6129 15.0288 39.6129H27.5894C27.6903 39.6129 27.787 39.5728 27.8583 39.5015C27.9297 39.4302 27.9697 39.3334 27.9698 39.2325V16.5589C27.9698 16.5089 27.9599 16.4594 27.9408 16.4133C27.9217 16.3671 27.8937 16.3252 27.8584 16.2899C27.8231 16.2546 27.7812 16.2265 27.735 16.2074C27.6889 16.1883 27.6394 16.1785 27.5895 16.1785Z" fill="#597B91"/>
<path d="M18.3264 26.3071H16.9144C16.8105 26.3071 16.711 26.2658 16.6376 26.1924C16.5641 26.119 16.5229 26.0194 16.5229 25.9156V20.1379C16.5229 20.0341 16.5641 19.9345 16.6376 19.8611C16.711 19.7877 16.8105 19.7464 16.9144 19.7464H18.3264C18.4302 19.7464 18.5298 19.7877 18.6032 19.8611C18.6766 19.9345 18.7179 20.0341 18.7179 20.1379V25.9156C18.7179 26.0194 18.6766 26.119 18.6032 26.1924C18.5298 26.2658 18.4302 26.3071 18.3264 26.3071ZM22.3575 25.9157V20.138C22.3575 20.0342 22.3163 19.9346 22.2428 19.8612C22.1694 19.7878 22.0698 19.7465 21.966 19.7465H20.554C20.4502 19.7465 20.3506 19.7878 20.2772 19.8612C20.2037 19.9346 20.1625 20.0342 20.1625 20.138V25.9157C20.1625 26.0195 20.2037 26.1191 20.2772 26.1925C20.3506 26.2659 20.4502 26.3071 20.554 26.3071H21.966C22.0698 26.3071 22.1694 26.2659 22.2428 26.1925C22.3162 26.119 22.3575 26.0195 22.3575 25.9157ZM25.9972 25.9157V20.138C25.9972 20.0342 25.9559 19.9346 25.8825 19.8612C25.8091 19.7878 25.7095 19.7465 25.6057 19.7465H24.1937C24.0898 19.7465 23.9903 19.7878 23.9169 19.8612C23.8434 19.9346 23.8022 20.0342 23.8022 20.138V25.9157C23.8022 26.0195 23.8434 26.1191 23.9169 26.1925C23.9903 26.2659 24.0898 26.3071 24.1937 26.3071H25.6057C25.7095 26.3071 25.8091 26.2659 25.8825 26.1925C25.9559 26.119 25.9972 26.0195 25.9972 25.9157ZM18.7179 37.4942V31.7165C18.7179 31.6127 18.6766 31.5131 18.6032 31.4397C18.5298 31.3663 18.4302 31.325 18.3264 31.325H16.9144C16.8105 31.325 16.711 31.3663 16.6376 31.4397C16.5641 31.5131 16.5229 31.6127 16.5229 31.7165V37.4942C16.5229 37.598 16.5641 37.6976 16.6376 37.771C16.711 37.8444 16.8105 37.8857 16.9144 37.8857H18.3264C18.4302 37.8856 18.5298 37.8444 18.6032 37.771C18.6766 37.6976 18.7179 37.598 18.7179 37.4942ZM22.3575 37.4942V31.7165C22.3575 31.6127 22.3163 31.5131 22.2428 31.4397C22.1694 31.3663 22.0698 31.325 21.966 31.325H20.554C20.4502 31.325 20.3506 31.3663 20.2772 31.4397C20.2037 31.5131 20.1625 31.6127 20.1625 31.7165V37.4942C20.1625 37.598 20.2037 37.6976 20.2772 37.771C20.3506 37.8444 20.4502 37.8857 20.554 37.8857H21.966C22.0698 37.8856 22.1694 37.8444 22.2428 37.771C22.3162 37.6976 22.3575 37.598 22.3575 37.4942ZM25.9972 37.4942V31.7165C25.9972 31.6127 25.9559 31.5131 25.8825 31.4397C25.8091 31.3663 25.7095 31.325 25.6057 31.325H24.1937C24.0898 31.325 23.9903 31.3663 23.9169 31.4397C23.8434 31.5131 23.8022 31.6127 23.8022 31.7165V37.4942C23.8022 37.598 23.8434 37.6976 23.9169 37.771C23.9903 37.8444 24.0898 37.8857 24.1937 37.8857H25.6057C25.7095 37.8856 25.8091 37.8444 25.8825 37.771C25.9559 37.6976 25.9972 37.598 25.9972 37.4942ZM28.4634 17.5527V16.5804C28.4634 16.4738 28.4211 16.3716 28.3457 16.2962C28.2703 16.2208 28.1681 16.1785 28.0615 16.1785H14.4586C14.352 16.1785 14.2498 16.2208 14.1744 16.2962C14.099 16.3716 14.0566 16.4738 14.0566 16.5804V17.5527C14.0566 17.6593 14.099 17.7615 14.1744 17.8369C14.2498 17.9123 14.352 17.9546 14.4586 17.9546H28.0615C28.1143 17.9546 28.1665 17.9443 28.2153 17.9241C28.2641 17.9039 28.3084 17.8743 28.3457 17.8369C28.3831 17.7996 28.4127 17.7553 28.4329 17.7065C28.4531 17.6577 28.4634 17.6055 28.4634 17.5527ZM28.4634 29.2063V28.234C28.4634 28.1274 28.4211 28.0252 28.3457 27.9498C28.2703 27.8744 28.1681 27.8321 28.0615 27.8321H14.4586C14.352 27.8321 14.2498 27.8744 14.1744 27.9498C14.099 28.0252 14.0566 28.1274 14.0566 28.234V29.2063C14.0566 29.3129 14.099 29.4151 14.1744 29.4905C14.2498 29.5659 14.352 29.6082 14.4586 29.6082H28.0615C28.1143 29.6082 28.1665 29.5979 28.2153 29.5777C28.2641 29.5575 28.3084 29.5279 28.3457 29.4905C28.3831 29.4532 28.4127 29.4089 28.4329 29.3601C28.4531 29.3113 28.4634 29.2591 28.4634 29.2063Z" fill="#2B3B47"/>
<path d="M16.4529 39.6896H16.4434C16.319 39.6896 16.1997 39.6401 16.1117 39.5521C16.0237 39.4642 15.9743 39.3448 15.9743 39.2204V37.661C15.9743 37.5366 16.0237 37.4173 16.1117 37.3293C16.1997 37.2413 16.319 37.1919 16.4434 37.1919H16.4529C16.5773 37.1919 16.6966 37.2413 16.7846 37.3293C16.8726 37.4173 16.922 37.5366 16.922 37.661V39.2204C16.922 39.3448 16.8726 39.4641 16.7846 39.5521C16.6966 39.6401 16.5773 39.6895 16.4529 39.6896ZM11.8677 39.2204V37.661C11.8677 37.5366 11.8182 37.4173 11.7302 37.3293C11.6423 37.2413 11.5229 37.1919 11.3985 37.1919H11.3891C11.2646 37.1919 11.1453 37.2413 11.0573 37.3293C10.9693 37.4173 10.9199 37.5366 10.9199 37.661V39.2204C10.9199 39.3448 10.9693 39.4642 11.0573 39.5521C11.1453 39.6401 11.2646 39.6896 11.3891 39.6896H11.3985C11.5229 39.6895 11.6422 39.6401 11.7302 39.5521C11.8182 39.4641 11.8676 39.3448 11.8677 39.2204Z" fill="#E2AF8D"/>
<path d="M10.9609 35.5049H16.9236V37.7952H10.9609V35.5049Z" fill="#E5E4DF"/>
<path d="M14.6702 37.8125L16.9551 35.5424V36.8383L15.966 37.8125H14.6702ZM12.2148 37.8125H13.5106L15.8009 35.4688H14.505L12.2148 37.8125ZM12.0495 35.4688L10.9395 36.5941V37.8125H11.0552L13.3455 35.4688H12.0495Z" fill="#FF473E"/>
<path d="M39.6277 29.0467C39.6272 29.0395 39.6354 29.0323 39.634 29.0252C39.6327 29.0189 39.6348 29.0131 39.6329 29.007C39.6315 29.0025 39.6327 28.9979 39.6308 28.9934C39.6283 28.9871 39.6254 28.981 39.6221 28.975C39.6201 28.9714 39.6191 28.9677 39.6168 28.9642C39.6045 28.9456 39.5886 28.9296 39.5701 28.9172C39.5658 28.9143 39.5612 28.9124 39.5568 28.9099C39.5516 28.9071 39.5466 28.9039 39.5412 28.9017C39.5355 28.8993 39.5296 28.8979 39.5237 28.8962C39.5189 28.8948 39.5144 28.9018 39.5095 28.9009C39.4986 28.8987 39.4875 28.9063 39.4763 28.9063H36.0234C36.0123 28.9063 36.0012 28.8987 35.9902 28.9009C35.9853 28.9018 35.9809 28.8992 35.9761 28.9006C35.9702 28.9024 35.9643 28.9015 35.9586 28.9038C35.953 28.9061 35.948 28.9081 35.9429 28.911C35.9384 28.9134 35.9337 28.9149 35.9295 28.9177C35.9108 28.9301 35.8949 28.946 35.8824 28.9645C35.8802 28.968 35.8786 28.9716 35.8766 28.9752C35.8731 28.9812 35.8695 28.987 35.8669 28.9936C35.8651 28.9981 35.8641 29.0026 35.8627 29.0071C35.8608 29.0131 35.8585 29.0189 35.8573 29.0252C35.8559 29.0324 35.8594 29.0396 35.8589 29.0468C35.8587 29.0506 35.8616 29.0542 35.8616 29.0581V32.3438H32.5704C32.5593 32.3435 32.5482 32.3443 32.5372 32.3461C32.5323 32.347 32.5278 32.3484 32.523 32.3498C32.5172 32.3515 32.5112 32.3526 32.5055 32.3549C32.5 32.3572 32.495 32.3602 32.4898 32.3631C32.4854 32.3655 32.4807 32.3674 32.4764 32.3702C32.4578 32.3827 32.4418 32.3987 32.4294 32.4173C32.4271 32.4207 32.4255 32.4245 32.4235 32.4281C32.4201 32.4341 32.4165 32.44 32.4138 32.4465C32.412 32.4509 32.411 32.4556 32.4096 32.4601C32.4077 32.4661 32.4055 32.472 32.4042 32.4782C32.4028 32.4853 32.4141 32.4926 32.4137 32.4998C32.4134 32.5036 32.4241 32.5072 32.4241 32.5111V35.7813H29.1174C29.1063 35.7813 29.0952 35.7891 29.0842 35.7913C29.0793 35.7922 29.0748 35.7974 29.0701 35.7988C29.0642 35.8005 29.0583 35.8035 29.0526 35.8059C29.047 35.8081 29.042 35.8121 29.0369 35.815C29.0324 35.8174 29.0277 35.8199 29.0234 35.8227C29.0048 35.8352 28.9888 35.8513 28.9764 35.8699C28.9741 35.8734 28.9726 35.8772 28.9705 35.8808C28.9671 35.8868 28.9635 35.8928 28.9609 35.8993C28.9591 35.9038 28.958 35.9084 28.9566 35.9129C28.9548 35.9189 28.9525 35.9248 28.9512 35.931C28.9498 35.9381 28.9689 35.9454 28.9684 35.9526C28.9682 35.9564 28.9866 35.96 28.9866 35.9639V39.4169C28.9866 39.4208 28.9682 39.4244 28.9684 39.4282C28.9689 39.4354 28.9595 39.4427 28.9609 39.4498C28.9622 39.4561 28.9596 39.462 28.9615 39.468C28.9629 39.4725 28.9615 39.4771 28.9633 39.4815C28.9659 39.488 28.9684 39.4939 28.9718 39.5C28.9738 39.5035 28.9747 39.5073 28.977 39.5107C28.9895 39.5293 29.0052 39.5453 29.0237 39.5578C29.028 39.5606 29.0323 39.5625 29.0367 39.5649C29.042 39.5678 29.047 39.571 29.0527 39.5734C29.0583 39.5757 29.0641 39.577 29.0698 39.5787C29.0746 39.5801 29.0792 39.5935 29.0842 39.5945C29.0952 39.5967 29.1062 39.6093 29.1173 39.6093H39.4762C39.4873 39.6093 39.4984 39.5967 39.5093 39.5945C39.5143 39.5935 39.5189 39.5859 39.5237 39.5844C39.5295 39.5827 39.5353 39.5784 39.5409 39.5762C39.5466 39.5738 39.5516 39.5692 39.557 39.5663C39.5613 39.5638 39.5659 39.5613 39.5701 39.5584C39.5887 39.546 39.6047 39.5296 39.6171 39.511C39.6194 39.5076 39.6209 39.5037 39.6229 39.5002C39.6263 39.4941 39.6299 39.4881 39.6327 39.4816C39.6344 39.4772 39.6354 39.4725 39.6369 39.468C39.6387 39.462 39.641 39.4561 39.6423 39.4498C39.6437 39.4427 39.6269 39.4354 39.6274 39.4282C39.6277 39.4244 39.6115 39.4208 39.6115 39.4169V29.0581C39.6117 29.0542 39.6279 29.0506 39.6277 29.0467ZM29.2992 36.373L30.6167 37.6905L29.2992 39.008V36.373ZM34.5442 37.6905L35.8617 36.373V39.008L34.5442 37.6905ZM31.1067 37.6905L32.4242 36.373V39.008L31.1067 37.6905ZM36.1742 35.555V32.9201L37.4916 34.2375L36.1742 35.555ZM37.7499 34.4639L39.0673 35.7813H36.4324L37.7499 34.4639ZM36.4325 32.6563H39.0674L37.75 33.9738L36.4325 32.6563ZM36.4325 32.3438L37.7499 31.0263L39.0673 32.3438H36.4325ZM35.8617 35.555L34.5442 34.2376L35.8617 32.9201V35.555ZM35.6144 35.7813H32.9795L34.297 34.4639L35.6144 35.7813ZM34.0542 37.6905L32.7367 39.008V36.373L34.0542 37.6905ZM32.9794 36.172H35.6144L34.297 37.4895L32.9794 36.172ZM37.4916 37.6905L36.1742 39.008V36.3731L37.4916 37.6905ZM36.4325 36.172H39.0674L37.75 37.4895L36.4325 36.172ZM37.9818 34.2375L39.2992 32.9201V35.555L37.9818 34.2375ZM37.9818 30.7846L39.2992 29.4671V32.102L37.9818 30.7846ZM37.7499 30.5363L36.4325 29.2188H39.0674L37.7499 30.5363ZM37.4916 30.7846L36.1742 32.102V29.4671L37.4916 30.7846ZM34.297 33.9738L32.9794 32.6563H35.6144L34.297 33.9738ZM34.0542 34.2375L32.7367 35.555V32.9201L34.0542 34.2375ZM30.844 37.4895L29.5265 36.172H32.1615L30.844 37.4895ZM30.844 37.9013L32.1615 39.2188H29.5265L30.844 37.9013ZM34.297 37.9013L35.6144 39.2188H32.9794L34.297 37.9013ZM37.7499 37.9013L39.0673 39.2188H36.4324L37.7499 37.9013ZM37.9818 37.6905L39.2992 36.373V39.0079L37.9818 37.6905Z" fill="#34454E"/>
<path d="M27.3868 5.59114C27.369 5.59114 27.3512 5.58894 27.3339 5.58458L7.37946 0.550049L1.26063 5.18669C1.21497 5.21998 1.15808 5.23401 1.10218 5.22578C1.04628 5.21755 0.99585 5.18771 0.96173 5.14268C0.927609 5.09764 0.912527 5.04101 0.919728 4.98497C0.92693 4.92894 0.955839 4.87796 1.00024 4.84302L7.28407 0.0812988L27.4393 5.16645C27.4903 5.17932 27.5348 5.21036 27.5644 5.25373C27.5941 5.2971 27.607 5.34981 27.6005 5.40197C27.5941 5.45413 27.5688 5.50214 27.5294 5.53697C27.4901 5.57181 27.4394 5.59107 27.3868 5.59114Z" fill="#D7F4F7"/>
<path d="M7.05992 0.315674H7.35297C7.50427 0.315674 7.64937 0.375777 7.75635 0.48276C7.86333 0.589744 7.92344 0.734845 7.92344 0.886143V3.31146H5.76758L6.5118 0.728174C6.54605 0.609266 6.61804 0.504722 6.71692 0.430314C6.81579 0.355906 6.93618 0.315669 7.05992 0.315674Z" fill="#34454E"/>
<path d="M7.41414 38.692H5.02742C4.8865 38.692 4.75136 38.6361 4.65172 38.5364C4.55207 38.4368 4.49609 38.3016 4.49609 38.1607V3.28523C4.49609 3.14432 4.55207 3.00917 4.65172 2.90953C4.75136 2.80989 4.8865 2.75391 5.02742 2.75391H7.41414C7.55506 2.75391 7.6902 2.80989 7.78985 2.90953C7.88949 3.00917 7.94547 3.14432 7.94547 3.28523V38.1606C7.94548 38.2304 7.93174 38.2995 7.90505 38.364C7.87835 38.4285 7.83921 38.487 7.78987 38.5364C7.74053 38.5857 7.68196 38.6249 7.61749 38.6516C7.55302 38.6783 7.48392 38.692 7.41414 38.692Z" fill="#C5CDD9"/>
<path d="M8.62922 37.478H3.81367C3.74602 37.478 3.68114 37.5049 3.6333 37.5527C3.58547 37.6006 3.55859 37.6655 3.55859 37.7331V39.2412C3.55859 39.3088 3.58547 39.3737 3.6333 39.4215C3.68114 39.4694 3.74602 39.4962 3.81367 39.4962H8.62922C8.69687 39.4962 8.76175 39.4694 8.80959 39.4215C8.85742 39.3737 8.8843 39.3088 8.8843 39.2412V37.7331C8.8843 37.6655 8.85742 37.6006 8.80959 37.5527C8.76175 37.5049 8.69687 37.478 8.62922 37.478Z" fill="#34454E"/>
<path d="M27.593 7.96253H4.0768C4.03187 7.96254 3.9873 7.95447 3.94523 7.9387L0.800078 6.76026C0.728574 6.73347 0.666951 6.6855 0.623449 6.62274C0.579947 6.55999 0.556639 6.48545 0.556641 6.40909V5.1687C0.556641 5.06924 0.596149 4.97386 0.666476 4.90354C0.736802 4.83321 0.832184 4.7937 0.931641 4.7937H27.593C27.6924 4.7937 27.7878 4.83321 27.8581 4.90354C27.9285 4.97386 27.968 5.06924 27.968 5.1687V7.58753C27.968 7.63678 27.9583 7.68555 27.9394 7.73105C27.9206 7.77655 27.893 7.81789 27.8582 7.85272C27.8233 7.88754 27.782 7.91516 27.7365 7.934C27.691 7.95285 27.6422 7.96254 27.593 7.96253Z" fill="#C5CDD9"/>
<path d="M24.0641 10.7031V10.7757C23.9079 10.7323 23.7747 10.708 23.614 10.708C22.716 10.708 21.9941 11.436 21.9941 12.334C21.9941 13.232 22.713 13.9599 23.6109 13.9599C23.7716 13.9599 23.9078 13.9357 24.0641 13.8923V13.9844H30.3922V10.7031H24.0641Z" fill="#2D93C7"/>
<path d="M30.3603 13.9599C31.2583 13.9599 31.9862 13.2319 31.9862 12.3339C31.9862 11.436 31.2583 10.708 30.3603 10.708C29.4623 10.708 28.7344 11.436 28.7344 12.3339C28.7344 13.2319 29.4623 13.9599 30.3603 13.9599Z" fill="#FECD57"/>
<path d="M25.5227 13.6443C25.3686 13.6443 25.2207 13.583 25.1117 13.474C25.0027 13.365 24.9414 13.2171 24.9414 13.063V6.66897C24.9414 6.5148 25.0027 6.36693 25.1117 6.25791C25.2207 6.14889 25.3686 6.08765 25.5227 6.08765C25.6769 6.08765 25.8248 6.14889 25.9338 6.25791C26.0428 6.36693 26.1041 6.5148 26.1041 6.66897V13.063C26.1041 13.1393 26.089 13.2149 26.0598 13.2854C26.0306 13.356 25.9878 13.4201 25.9338 13.474C25.8798 13.528 25.8157 13.5708 25.7452 13.6001C25.6747 13.6293 25.5991 13.6443 25.5227 13.6443Z" fill="#597B91"/>
<path d="M26.9571 15.1568C25.8456 15.1568 24.9414 14.2526 24.9414 13.1411C24.9414 12.987 25.0027 12.8391 25.1117 12.7301C25.2207 12.6211 25.3686 12.5598 25.5227 12.5598C25.6769 12.5598 25.8248 12.6211 25.9338 12.7301C26.0428 12.8391 26.1041 12.987 26.1041 13.1411C26.1041 13.6115 26.4866 13.9941 26.957 13.9941C27.4274 13.9941 27.81 13.6115 27.81 13.1411C27.81 12.987 27.8712 12.8391 27.9803 12.7301C28.0893 12.6211 28.2371 12.5598 28.3913 12.5598C28.5455 12.5598 28.6934 12.6211 28.8024 12.7301C28.9114 12.8391 28.9727 12.987 28.9727 13.1411C28.9727 14.2525 28.0685 15.1568 26.9571 15.1568Z" fill="#597B91"/>
<path d="M30.3609 13.3902C30.9442 13.3902 31.417 12.9173 31.417 12.334C31.417 11.7507 30.9442 11.2778 30.3609 11.2778C29.7776 11.2778 29.3047 11.7507 29.3047 12.334C29.3047 12.9173 29.7776 13.3902 30.3609 13.3902Z" fill="#2B3B47"/>
<path d="M27.2646 10.708H23.6973V13.9599H27.1864L27.2646 10.708Z" fill="#2D93C7"/>
<path d="M4.48242 9.77271H7.92289V10.689H4.48242V9.77271Z" fill="#2D93C7"/>
<path d="M26.5452 4.9794C26.4894 4.91775 26.409 4.91299 26.3472 4.96885L23.6746 7.40166V5.01471C23.6746 4.95525 23.6248 4.90127 23.5705 4.87713C23.5439 4.86523 23.5145 4.86131 23.4857 4.86585C23.457 4.87038 23.4302 4.88318 23.4085 4.90268L20.6278 7.40322V5.13799C20.6278 5.1276 20.6192 5.11744 20.6172 5.1076C20.6253 5.06307 20.6103 5.01557 20.5775 4.9794C20.5217 4.91775 20.4174 4.91299 20.3556 4.96885L17.659 7.40166V5.01471C17.659 4.95525 17.6313 4.90127 17.5769 4.87713C17.5225 4.85283 17.4481 4.86291 17.4039 4.90268L14.6121 7.40322V5.13799C14.6121 5.12768 14.6256 5.11752 14.6236 5.10775C14.6318 5.06322 14.6278 5.01557 14.5949 4.9794C14.539 4.91768 14.4572 4.91299 14.3955 4.96885L11.7215 7.40166V5.01471C11.7215 4.95525 11.6767 4.90127 11.6224 4.87713C11.5954 4.86525 11.5656 4.86134 11.5364 4.86586C11.5073 4.87039 11.48 4.88316 11.4579 4.90268L8.67463 7.40322V5.13799C8.67463 5.12768 8.67112 5.11752 8.66916 5.10775C8.67327 5.08495 8.67206 5.0615 8.66562 5.03923C8.65918 5.01697 8.6477 4.99649 8.63205 4.9794C8.5762 4.91768 8.46807 4.91299 8.40635 4.96885L5.70588 7.40166V5.01471C5.70588 4.95525 5.68323 4.90127 5.62885 4.87713C5.57448 4.85283 5.51713 4.86291 5.47291 4.90268L2.88112 7.23604C2.81924 7.29166 2.81573 7.38697 2.87135 7.44885C2.92698 7.51065 3.00502 7.51572 3.06698 7.46018L5.39338 5.35283V7.74127C5.39338 7.80088 5.44635 7.85486 5.5008 7.879C5.52041 7.88768 5.55018 7.89197 5.57081 7.89197C5.60752 7.89197 5.64502 7.87861 5.6733 7.85299L8.36213 5.42018V7.74135C8.36213 7.8008 8.40026 7.85479 8.45463 7.87893C8.47432 7.88768 8.49682 7.89197 8.51752 7.89197C8.55401 7.89197 8.59502 7.87869 8.62323 7.8533L11.409 5.35283V7.74127C11.409 7.80088 11.4399 7.85486 11.4944 7.879C11.5489 7.90307 11.6292 7.89283 11.6735 7.85299L14.3778 5.42018V7.74135C14.3778 7.8008 14.3939 7.85479 14.4481 7.87893C14.5025 7.90322 14.5437 7.89315 14.588 7.85338L17.3465 5.35283V7.74127C17.3465 7.80088 17.3944 7.85486 17.4489 7.879C17.4685 7.88768 17.4957 7.89197 17.5164 7.89197C17.5531 7.89197 17.5944 7.87861 17.6227 7.85299L20.3153 5.42018V7.74135C20.3153 7.8008 20.3483 7.85479 20.4027 7.87893C20.4224 7.88768 20.4423 7.89197 20.4631 7.89197C20.4996 7.89197 20.5444 7.87869 20.5725 7.8533L23.3621 5.35283V7.74127C23.3621 7.80088 23.388 7.85486 23.4424 7.879C23.4967 7.90315 23.5558 7.89299 23.6 7.85299L26.5369 5.19221C26.5986 5.13643 26.601 5.04111 26.5452 4.9794Z" fill="#F4F3EF"/>
<path d="M24.8438 7.28345H26.202V8.64165H24.8438V7.28345Z" fill="#2B3B47"/>
<path d="M25.522 7.96252C26.2364 7.96252 26.8155 7.38339 26.8155 6.669C26.8155 5.95461 26.2364 5.37549 25.522 5.37549C24.8076 5.37549 24.2285 5.95461 24.2285 6.669C24.2285 7.38339 24.8076 7.96252 25.522 7.96252Z" fill="#2D93C7"/>
<path d="M25.5228 7.34812C25.8978 7.34812 26.2019 7.04409 26.2019 6.66905C26.2019 6.29402 25.8978 5.98999 25.5228 5.98999C25.1478 5.98999 24.8438 6.29402 24.8438 6.66905C24.8438 7.04409 25.1478 7.34812 25.5228 7.34812Z" fill="white"/>
<path d="M4.48242 4.7937H7.92281V7.96261H4.48242V4.7937Z" fill="#34454E"/>
</g>
<defs>
<clipPath id="clip0_623_1456">
<rect width="40" height="40" fill="white" transform="translate(0.00195312)"/>
</clipPath>
</defs>
</svg>
