<svg width="21" height="20" viewBox="0 0 21 20" fill="none" xmlns="http://www.w3.org/2000/svg">
<path d="M7.99935 0.833252V2.49992H12.9993V0.833252H14.666V2.49992H17.9993C18.4596 2.49992 18.8327 2.87302 18.8327 3.33325V16.6666C18.8327 17.1268 18.4596 17.4999 17.9993 17.4999H2.99935C2.53912 17.4999 2.16602 17.1268 2.16602 16.6666V3.33325C2.16602 2.87302 2.53912 2.49992 2.99935 2.49992H6.33268V0.833252H7.99935ZM17.166 9.16658H3.83268V15.8332H17.166V9.16658ZM6.33268 4.16658H3.83268V7.49992H17.166V4.16658H14.666V5.83325H12.9993V4.16658H7.99935V5.83325H6.33268V4.16658Z" fill="black"/>
</svg>
