<svg width="41" height="40" viewBox="0 0 41 40" fill="none" xmlns="http://www.w3.org/2000/svg">
<g clip-path="url(#clip0_623_1402)">
<path d="M5.96117 9.53882H0.00195312V11.9878H5.96117V9.53882Z" fill="#3E3D43"/>
<path d="M18.4412 5.62044V15.9061H9.79719C6.96125 15.9061 4.6543 13.5992 4.6543 10.7633C4.6543 7.92731 6.96125 5.62036 9.79719 5.62036C9.79719 5.62044 18.4412 5.62044 18.4412 5.62044Z" fill="#23475F"/>
<path d="M18.4426 5.62036H10.5332V15.9061H18.4426V5.62036Z" fill="#1C3C50"/>
<path d="M30.1992 15.5024H23.9785L25.3382 23.3848H31.3835L30.1992 15.5024Z" fill="#2D93C7"/>
<path d="M38.2664 30.3837H30.5455L27.6582 15.5413H35.3791L38.2664 30.3837Z" fill="#23475F"/>
<path d="M38.2671 30.3837H34.3284L31.4785 15.5413H35.3798L38.2671 30.3837Z" fill="#1C3C50"/>
<path d="M40.0027 10.7633C40.0027 14.7266 36.7783 17.9519 32.815 17.9519H15.9121V3.57556H32.815C36.7783 3.57556 40.0027 6.80002 40.0027 10.7633Z" fill="#DFDFE2"/>
<path d="M38.3327 27.9347H23.7188V36.4245H38.3327V27.9347Z" fill="#DFDFE2"/>
<path d="M38.3327 32.1567H23.7188V36.4245H38.3327V32.1567Z" fill="#D7D6D9"/>
<path d="M40.0026 10.7633C40.0026 14.7266 36.7781 17.9519 32.8148 17.9519H28.1289V3.57556H32.8148C36.7781 3.57556 40.0026 6.80002 40.0026 10.7633Z" fill="#D7D6D9"/>
</g>
<defs>
<clipPath id="clip0_623_1402">
<rect width="40" height="40" fill="white" transform="translate(0.00195312)"/>
</clipPath>
</defs>
</svg>
