<svg width="40" height="40" viewBox="0 0 40 40" fill="none" xmlns="http://www.w3.org/2000/svg">
<path d="M20 40C31.0457 40 40 31.0457 40 20C40 8.9543 31.0457 0 20 0C8.9543 0 0 8.9543 0 20C0 31.0457 8.9543 40 20 40Z" fill="#F5F7FA"/>
<path fill-rule="evenodd" clip-rule="evenodd" d="M21.4385 18.4596L18.3294 18.4484H14.747C13.5458 18.0114 12.518 17.0607 12.1638 15.7075C12.0587 15.3062 11.9175 14.7618 12.0608 14.3707C12.1482 14.1323 12.4156 14.0237 12.6372 14.0225C13.9751 14.0151 15.313 14.0139 16.6509 14.0112C19.1106 14.0064 19.0862 14 21.5459 14C22.897 14 24.0204 14.063 25.2222 14.7189C26.1429 15.2215 26.849 15.8994 27.4657 16.7409C27.9917 17.4586 28.2996 18.3259 28.5052 19.2235C29.159 22.0779 27.608 24.7627 25.4486 26.1769C24.8912 26.542 24.1889 26.7476 23.5549 26.8734C20.8817 27.4039 18.9475 26.2618 18.1188 23.5483L19.7787 23.5427L21.4385 23.5371C21.7394 23.5359 21.7394 22.953 21.4385 22.953C21.4385 22.953 19.5015 22.9567 18.095 22.953C17.811 22.9522 17.3787 22.6628 17.1495 22.5127C16.19 21.8843 15.4997 20.9333 15.1828 19.7228C15.1315 19.5268 15.0487 19.2408 15.0487 19.0438L21.4385 19.055C21.7394 19.0557 21.7394 18.4602 21.4385 18.4596Z" fill="#C5CDD9"/>
</svg>
