<svg width="24" height="25" viewBox="0 0 24 25" fill="none" xmlns="http://www.w3.org/2000/svg">
<g clip-path="url(#clip0_529_4816)">
<path d="M1.99902 5.5L8.99902 2.5L14.999 5.5L21.302 2.799C21.3781 2.76638 21.4611 2.75317 21.5436 2.76054C21.626 2.76792 21.7053 2.79565 21.7744 2.84124C21.8435 2.88684 21.9002 2.94888 21.9394 3.0218C21.9786 3.09471 21.9991 3.17622 21.999 3.259V19.5L14.999 22.5L8.99902 19.5L2.69602 22.201C2.61994 22.2336 2.53694 22.2468 2.45449 22.2395C2.37204 22.2321 2.2927 22.2044 2.22361 22.1588C2.15452 22.1132 2.09783 22.0511 2.05863 21.9782C2.01943 21.9053 1.99895 21.8238 1.99902 21.741V5.5ZM15.999 19.895L19.999 18.181V5.533L15.999 7.247V19.895ZM13.999 19.764V7.236L9.99902 5.236V17.764L13.999 19.764ZM7.99902 17.753V5.105L3.99902 6.819V19.467L7.99902 17.753Z" fill="black"/>
</g>
<defs>
<clipPath id="clip0_529_4816">
<rect width="24" height="24" fill="white" transform="translate(0 0.5)"/>
</clipPath>
</defs>
</svg>
