<svg width="20" height="20" viewBox="0 0 20 20" fill="none" xmlns="http://www.w3.org/2000/svg">
<path d="M10.0003 18.3334C5.39795 18.3334 1.66699 14.6024 1.66699 10.0001C1.66699 5.39771 5.39795 1.66675 10.0003 1.66675C14.6027 1.66675 18.3337 5.39771 18.3337 10.0001C18.3337 14.6024 14.6027 18.3334 10.0003 18.3334ZM10.0003 16.6667C13.6822 16.6667 16.667 13.682 16.667 10.0001C16.667 6.31818 13.6822 3.33341 10.0003 3.33341C6.31842 3.33341 3.33366 6.31818 3.33366 10.0001C3.33366 13.682 6.31842 16.6667 10.0003 16.6667ZM5.83366 9.58341L13.3337 6.66675L10.417 14.1685L9.16699 10.8334L5.83366 9.58341Z" fill="#42ADE2"/>
</svg>
