<svg width="20" height="20" viewBox="0 0 20 20" fill="none" xmlns="http://www.w3.org/2000/svg">
<path d="M10.0003 1.66699C14.6027 1.66699 18.3337 5.39795 18.3337 10.0003C18.3337 14.6027 14.6027 18.3337 10.0003 18.3337C5.39795 18.3337 1.66699 14.6027 1.66699 10.0003H3.33366C3.33366 13.6822 6.31842 16.667 10.0003 16.667C13.6822 16.667 16.667 13.6822 16.667 10.0003C16.667 6.31842 13.6822 3.33366 10.0003 3.33366C7.70884 3.33366 5.68738 4.48977 4.48742 6.25052L6.66699 6.25032V7.91699H1.66699V2.91699H3.33366L3.33357 4.99964C4.85394 2.97595 7.27427 1.66699 10.0003 1.66699ZM10.8337 5.83366L10.8335 9.65449L13.5358 12.3573L12.3573 13.5358L9.16682 10.3445L9.16699 5.83366H10.8337Z" fill="#42ADE2"/>
</svg>
