<svg width="32" height="40" viewBox="0 0 32 40" fill="none" xmlns="http://www.w3.org/2000/svg">
<path d="M16.6813 15.7159C11.6545 12.9325 5.69152 12.5732 1.1202 14.7775C0.751905 14.9552 0.447738 15.2426 0.249596 15.6003C0.0514534 15.958 -0.0309179 16.3683 0.0138294 16.7747C0.570715 21.8194 4.03989 26.6824 9.06665 29.4668C14.0934 32.2513 20.0564 32.6095 24.6277 30.4052C24.9961 30.2277 25.3004 29.9403 25.4985 29.5826C25.6967 29.2248 25.779 28.8145 25.7341 28.408C25.1772 23.3633 21.708 18.5024 16.6813 15.7159Z" fill="#34454E"/>
<path d="M25.7326 28.4079C25.1757 23.3631 21.7065 18.5002 16.6798 15.7157C11.653 12.9313 5.69 12.5731 1.11868 14.7774C0.742591 14.9588 0.433684 15.2548 0.236328 15.6228C3.7298 17.5375 15.5586 24.0246 25.5223 29.5322C25.7019 29.1864 25.775 28.7952 25.7326 28.4079Z" fill="#6EB925"/>
<path d="M31.7355 14.0188C31.4513 8.28083 28.6045 3.02688 24.3185 0.306913C23.973 0.0880789 23.5682 -0.0182532 23.1598 0.00256435C22.7514 0.0233819 22.3595 0.170325 22.0381 0.423151C18.048 3.55946 15.7486 9.07336 16.0381 14.8113C16.3277 20.5492 19.1692 25.801 23.4552 28.5231C23.8005 28.7423 24.2052 28.8489 24.6137 28.8282C25.0221 28.8076 25.4141 28.6608 25.7355 28.4079C29.7257 25.2716 32.0251 19.7609 31.7355 14.0188Z" fill="#6EB925"/>
<path d="M25.7321 28.4079C29.7223 25.2716 32.0217 19.7577 31.7321 14.0187C31.4426 8.2797 28.6043 3.02681 24.3183 0.306839C23.9657 0.0834342 23.5513 -0.0223786 23.1348 0.00462099C23.3524 3.98207 24.0858 17.4519 24.6691 28.8232C25.0566 28.7925 25.4265 28.6481 25.7321 28.4079Z" fill="#6EB925"/>
<path d="M24.2846 30.4252H24.2212C23.8735 30.4085 23.5466 30.2544 23.3124 29.9968C23.0782 29.7392 22.9558 29.3992 22.9722 29.0514C23.0007 28.4449 22.987 22.9151 22.9722 19.3297C22.9716 19.1586 23.0051 18.989 23.0708 18.8309C23.1364 18.6728 23.2329 18.5294 23.3546 18.409C23.4763 18.2886 23.6207 18.1936 23.7795 18.1296C23.9382 18.0657 24.1081 18.0339 24.2793 18.0363H24.2857C24.4563 18.0334 24.6258 18.0643 24.7844 18.1273C24.9431 18.1903 25.0876 18.2841 25.2097 18.4033C25.3319 18.5225 25.4292 18.6647 25.496 18.8217C25.5629 18.9787 25.5979 19.1475 25.5992 19.3181C25.5992 20.2385 25.6393 28.3202 25.5992 29.1909C25.5817 29.5266 25.4352 29.8424 25.1902 30.0725C24.9451 30.3025 24.6206 30.4289 24.2846 30.4252Z" fill="#34454E"/>
<path d="M29.1417 39.9999C28.7933 39.9999 28.4593 39.8615 28.2129 39.6152C27.9666 39.3689 27.8282 39.0348 27.8282 38.6864V36.573C27.8278 35.2465 27.4423 33.9486 26.7187 32.8368C25.995 31.7251 24.9642 30.8473 23.7514 30.3099C23.7229 30.2972 23.6954 30.2835 23.6679 30.2687L15.6961 26.0419C15.3879 25.8788 15.157 25.5999 15.0543 25.2666C14.9517 24.9332 14.9857 24.5728 15.1488 24.2645C15.3119 23.9562 15.5908 23.7254 15.9241 23.6227C16.2574 23.5201 16.6179 23.554 16.9262 23.7171L24.8589 27.9239C26.5262 28.6718 27.9419 29.8857 28.9356 31.4194C29.9292 32.9531 30.4584 34.7413 30.4594 36.5688V38.6822C30.4601 38.8555 30.4265 39.0271 30.3605 39.1873C30.2946 39.3475 30.1975 39.493 30.075 39.6155C29.9525 39.738 29.807 39.8351 29.6468 39.9011C29.4866 39.967 29.3149 40.0006 29.1417 39.9999Z" fill="#34454E"/>
</svg>
