<svg width="16" height="16" viewBox="0 0 16 16" fill="none" xmlns="http://www.w3.org/2000/svg">
<path d="M8.00112 1.28564C11.0781 1.28564 13.5725 3.78006 13.5725 6.85707C13.5725 9.21116 11.9185 11.7767 8.65266 14.5816C8.27791 14.9034 7.72431 14.9034 7.34807 14.5803L7.13221 14.3931C4.0109 11.6621 2.42969 9.15868 2.42969 6.85707C2.42969 3.78006 4.9241 1.28564 8.00112 1.28564ZM8.00112 2.14279C5.39749 2.14279 3.28683 4.25345 3.28683 6.85707C3.28683 8.85825 4.74306 11.1638 7.69514 13.7468L7.90803 13.9313C7.96156 13.9773 8.04066 13.9773 8.09419 13.9313C11.1891 11.2733 12.7154 8.90584 12.7154 6.85707C12.7154 4.25345 10.6047 2.14279 8.00112 2.14279ZM8.00112 4.71422C9.18458 4.71422 10.144 5.67361 10.144 6.85707C10.144 8.04054 9.18458 8.99993 8.00112 8.99993C6.81765 8.99993 5.85826 8.04054 5.85826 6.85707C5.85826 5.67361 6.81765 4.71422 8.00112 4.71422ZM8.00112 5.57136C7.29104 5.57136 6.7154 6.14699 6.7154 6.85707C6.7154 7.56715 7.29104 8.14279 8.00112 8.14279C8.7112 8.14279 9.28683 7.56715 9.28683 6.85707C9.28683 6.14699 8.7112 5.57136 8.00112 5.57136Z" fill="#C5CDD9"/>
</svg>
