<svg width="20" height="20" viewBox="0 0 20 20" fill="none" xmlns="http://www.w3.org/2000/svg">
<path d="M15.8333 8.33317H16.6667C17.1269 8.33317 17.5 8.70625 17.5 9.1665V17.4998C17.5 17.9601 17.1269 18.3332 16.6667 18.3332H3.33333C2.8731 18.3332 2.5 17.9601 2.5 17.4998V9.1665C2.5 8.70625 2.8731 8.33317 3.33333 8.33317H4.16667V7.49984C4.16667 4.27818 6.77834 1.6665 10 1.6665C13.2217 1.6665 15.8333 4.27818 15.8333 7.49984V8.33317ZM4.16667 9.99984V16.6665H15.8333V9.99984H10H4.16667ZM14.1667 8.33317V7.49984C14.1667 5.19865 12.3012 3.33317 10 3.33317C7.69882 3.33317 5.83333 5.19865 5.83333 7.49984V8.33317H14.1667Z" fill="#6EB925"/>
<path fill-rule="evenodd" clip-rule="evenodd" d="M10.2781 12.81L9.50033 12.8071H8.60416C8.30368 12.6951 8.04657 12.4513 7.95796 12.1043C7.93168 12.0014 7.89636 11.8618 7.93221 11.7616C7.95407 11.7004 8.02097 11.6726 8.07639 11.6723C8.41107 11.6704 8.74576 11.6701 9.08044 11.6694C9.69575 11.6681 9.68965 11.6665 10.305 11.6665C10.643 11.6665 10.924 11.6827 11.2246 11.8508C11.4549 11.9797 11.6316 12.1535 11.7858 12.3693C11.9174 12.5533 11.9944 12.7757 12.0459 13.0059C12.2094 13.7378 11.8214 14.4262 11.2812 14.7888C11.1418 14.8824 10.9661 14.9351 10.8075 14.9674C10.1388 15.1034 9.65495 14.8106 9.44765 14.1148L9.86288 14.1133L10.2781 14.1119C10.3534 14.1116 10.3534 13.9621 10.2781 13.9621C10.2781 13.9621 9.79354 13.9631 9.44169 13.9621C9.37065 13.9619 9.2625 13.8877 9.20518 13.8493C8.96516 13.6881 8.79246 13.4443 8.7132 13.1339C8.70035 13.0836 8.67963 13.0103 8.67963 12.9598L10.2781 12.9627C10.3534 12.9628 10.3534 12.8101 10.2781 12.81Z" fill="#6EB925"/>
</svg>
