<svg width="89" height="88" viewBox="0 0 89 88" fill="none" xmlns="http://www.w3.org/2000/svg">
<g clip-path="url(#clip0_623_1521)">
<path d="M44.0025 0.000488281C19.7016 0.000488281 0.00195312 19.6984 0.00195312 44.001C0.00195312 68.2999 19.7016 87.9994 44.0025 87.9994C68.3023 87.9994 88.002 68.2999 88.002 44.001C88.002 19.6982 68.3023 0.000488281 44.0025 0.000488281Z" fill="#34454E"/>
<path d="M58.4054 41.3712C57.0458 40.7884 55.4188 41.5463 54.7686 43.0651L46.7406 62.1642C46.1522 63.5409 46.6706 65.087 47.9036 65.6153C49.135 66.1426 50.6127 65.4537 51.2026 64.0755L59.8804 45.3394C60.5313 43.8224 59.7617 41.9533 58.4054 41.3712Z" fill="#DBB595"/>
<path d="M64.197 43.7316C62.7768 43.1481 60.9929 43.7217 60.3649 45.2504L51.3864 68.2065C50.8169 69.5908 51.3992 71.1455 52.6883 71.6748C53.9756 72.2035 55.4816 71.5079 56.0512 70.1223L65.8731 47.6295C66.4993 46.1012 65.6175 44.3153 64.197 43.7316Z" fill="#DBB595"/>
<path d="M69.9019 46.1885C68.5303 45.6441 66.7523 46.3534 66.1457 47.8908L58.8275 66.8812C58.2188 68.4156 58.8401 70.1016 60.2127 70.6458C61.5864 71.1906 63.1915 70.3866 63.8006 68.8517L71.6331 50.066C72.2408 48.529 71.275 46.733 69.9019 46.1885Z" fill="#DBB595"/>
<path d="M75.7518 47.9244C74.4529 47.4316 72.6355 48.1536 72.0495 49.6952L68.4174 60.8067C67.9088 62.1465 68.4105 63.5788 69.5373 64.0081C70.6643 64.4357 71.991 63.6968 72.4996 62.3573L76.22 51.5221C76.8074 49.9781 77.0495 48.4179 75.7518 47.9244Z" fill="#DBB595"/>
<path d="M62.3042 26.323C62.3042 26.323 57.1103 29.6298 54.4671 31.1907C53.1206 31.9922 51.4516 35.0239 49.3924 37.7267C47.4159 40.3244 44.9269 42.186 45.1981 43.2113C45.942 46.0243 49.9289 44.0944 50.3828 43.8358C54.2371 41.6307 57.8129 36.8942 57.8129 36.8942L64.3272 35.0377L62.3042 26.323Z" fill="#DBB595"/>
<path d="M45.0325 43.6717C47.7865 43.0387 48.0887 39.2797 48.0887 39.2797C43.89 42.8885 45.0325 43.6717 45.0325 43.6717Z" fill="#EFE4DC"/>
<path d="M70.793 60.5118C69.9622 60.2307 69.187 60.3027 68.8345 61.3438C68.8184 61.3913 68.7487 61.7061 68.7349 61.7565C68.447 62.7959 68.9245 63.5209 69.7175 63.7893C70.4877 64.0503 71.2708 63.8294 71.6981 62.8551C71.7318 62.7795 71.8162 62.4378 71.8417 62.3626C72.1945 61.3218 71.6232 60.7934 70.793 60.5118Z" fill="#E8C7AF"/>
<path d="M70.7438 60.6315C69.9494 60.349 69.203 60.4068 68.8488 61.4021C68.8325 61.4477 68.6387 62.1568 68.6243 62.2047C68.3331 63.1997 68.3604 64.3623 69.3469 64.7133C70.3328 65.0647 71.0318 64.235 71.4575 63.3049C71.4905 63.2327 71.6989 62.4984 71.7244 62.4264C72.0788 61.4305 71.538 60.9144 70.7438 60.6315Z" fill="#F7F3F0"/>
<path d="M70.7946 60.6562C70.0007 60.3737 69.2544 60.4313 68.9002 61.4268C68.8839 61.4722 68.7835 61.7516 68.7696 61.7998C68.4777 62.7945 68.9262 63.4984 69.6846 63.7684C70.4207 64.0307 71.1766 63.8299 71.6025 62.8998C71.6355 62.8277 71.75 62.5229 71.7761 62.4511C72.1305 61.4554 71.5886 60.9391 70.7946 60.6562Z" fill="#EFE4DC"/>
<path d="M61.8737 66.4254C60.8725 66.0524 59.9266 66.1118 59.4591 67.3659C59.4385 67.4236 59.3412 67.8042 59.3225 67.8648C58.9339 69.1195 59.4887 70.0196 60.4437 70.3754C61.3713 70.7214 62.3333 70.4811 62.8893 69.311C62.9333 69.2202 63.0489 68.8072 63.0826 68.7171C63.55 67.4626 62.8737 66.7985 61.8737 66.4254Z" fill="#E8C7AF"/>
<path d="M61.809 66.5691C60.8529 66.1959 59.9425 66.239 59.4744 67.4376C59.4526 67.4926 59.191 68.3485 59.1717 68.4064C58.7802 69.6068 58.7715 71.023 59.9591 71.4866C61.1464 71.9504 62.0277 70.9659 62.5797 69.8494C62.6228 69.763 62.9034 68.8765 62.9376 68.79C63.4057 67.591 62.765 66.9426 61.809 66.5691Z" fill="#F7F3F0"/>
<path d="M61.87 66.601C60.9133 66.2278 60.0034 66.2707 59.5357 67.4695C59.5139 67.5245 59.3814 67.8606 59.3624 67.9186C58.9704 69.119 59.4912 69.9923 60.4037 70.3486C61.2909 70.695 62.2187 70.4783 62.7706 69.3616C62.8139 69.2749 62.9648 68.9083 62.9985 68.8219C63.4666 67.6229 62.8267 66.9745 61.87 66.601Z" fill="#EFE4DC"/>
<path d="M54.4498 67.4708C53.4761 67.0318 52.5275 67.0281 51.978 68.2487C51.9532 68.3045 51.8312 68.6781 51.8081 68.7371C51.3369 69.9632 51.8308 70.8985 52.7599 71.3167C53.663 71.7237 54.6388 71.5482 55.271 70.4175C55.3206 70.3299 55.4634 69.9255 55.5035 69.8375C56.0533 68.6171 55.423 67.9094 54.4498 67.4708Z" fill="#E8C7AF"/>
<path d="M54.3747 67.6094C53.4456 67.1737 52.5342 67.1561 51.9877 68.321C51.962 68.3742 51.6442 69.211 51.6213 69.2674C51.1509 70.4391 51.0484 71.8516 52.2018 72.3933C53.3559 72.9351 54.3007 72.0114 54.9256 70.9339C54.9745 70.8506 55.3136 69.9847 55.353 69.9004C55.9002 68.7355 55.3039 68.0459 54.3747 67.6094Z" fill="#F7F3F0"/>
<path d="M54.4335 67.6455C53.5042 67.2099 52.5927 67.192 52.0462 68.357C52.021 68.4105 51.8664 68.737 51.8437 68.7938C51.373 69.9653 51.8343 70.8714 52.7214 71.2877C53.5829 71.6921 54.5235 71.5376 55.1483 70.4601C55.1973 70.3764 55.3721 70.0208 55.4119 69.9365C55.9581 68.7716 55.3627 68.082 54.4335 67.6455Z" fill="#EFE4DC"/>
<path d="M49.6794 61.5546C48.7061 61.1158 47.7581 61.1121 47.2081 62.3327C47.1832 62.3886 47.0612 62.7621 47.0387 62.8212C46.5674 64.0471 47.0609 64.9823 47.9902 65.4007C48.8935 65.8076 49.869 65.632 50.5015 64.5013C50.5512 64.4135 50.694 64.0093 50.7335 63.9213C51.2833 62.7011 50.6533 61.9934 49.6794 61.5546Z" fill="#E8C7AF"/>
<path d="M49.605 61.6936C48.6759 61.258 47.7645 61.2402 47.218 62.4052C47.1928 62.4586 46.8745 63.2952 46.8521 63.3516C46.3816 64.5232 46.2783 65.9357 47.4326 66.4772C48.5862 67.0191 49.5313 66.0957 50.1564 65.0183C50.2048 64.9347 50.5443 64.0688 50.5833 63.9846C51.1303 62.8195 50.5343 62.1301 49.605 61.6936Z" fill="#F7F3F0"/>
<path d="M49.6641 61.7293C48.7346 61.2935 47.8236 61.276 47.2766 62.4409C47.252 62.4943 47.0968 62.821 47.0743 62.8776C46.6034 64.049 47.0647 64.9552 47.9518 65.3718C48.8138 65.7762 49.7535 65.6215 50.3792 64.5442C50.4277 64.4605 50.6025 64.1047 50.6419 64.0208C51.1889 62.8556 50.5935 62.166 49.6641 61.7293Z" fill="#EFE4DC"/>
<path d="M59.373 33.4468C59.373 33.4468 58.0399 35.4428 57.3565 36.686C56.6803 37.9158 55.25 41.8635 55.25 41.8635C55.25 41.8635 56.8321 38.3617 57.7189 36.8754C58.5998 35.3988 59.6851 33.8043 59.6851 33.8043L59.373 33.4468Z" fill="#CEA98D"/>
<path d="M71.0105 9.26489L67.4363 19.0152C66.3597 20.2938 60.9609 27.2247 60.9609 27.2247L54.127 44.7417L63.8665 48.9665L71.9335 50.7742L76.3294 51.3041C76.3294 51.3041 80.1975 43.3299 81.7627 38.2158C83.2943 33.2124 83.4736 30.3289 83.9511 25.5415C80.9845 19.1318 76.5222 13.5567 71.0105 9.26489Z" fill="#DBB595"/>
<path d="M27.0429 27.2244C27.0429 27.2244 21.6443 20.2938 20.5675 19.015L16.9933 9.26501C11.4816 13.5568 7.01948 19.1319 4.05273 25.5416C4.53002 30.329 4.70951 33.2125 6.24104 38.2158C7.80626 43.3299 11.6744 51.3041 11.6744 51.3041L16.0703 50.7741L24.1373 48.9664L33.877 44.7417L27.0429 27.2244Z" fill="#DBB595"/>
<path d="M41.2631 62.1642L33.2351 43.0651C32.5849 41.5463 30.958 40.7884 29.5983 41.3712C28.242 41.9533 27.4726 43.8222 28.1237 45.3396L36.8014 64.0756C37.3911 65.4539 38.8687 66.1428 40.1003 65.6155C41.333 65.087 41.8516 63.5409 41.2631 62.1642Z" fill="#DBB595"/>
<path d="M36.617 68.2062L27.6385 45.2501C27.0107 43.7214 25.2264 43.1479 23.8064 43.7314C22.3859 44.3151 21.5043 46.1009 22.1305 47.6291L31.9525 70.1219C32.5221 71.5075 34.028 72.2033 35.3153 71.6744C36.6042 71.1453 37.1865 69.5907 36.617 68.2062Z" fill="#DBB595"/>
<path d="M29.1747 66.8812L21.8566 47.8908C21.25 46.3536 19.4723 45.6441 18.1004 46.1884C16.7272 46.733 15.7615 48.5289 16.369 50.066L24.2017 68.8517C24.8107 70.3866 26.4159 71.1906 27.7895 70.6457C29.1621 70.1016 29.7836 68.4156 29.1747 66.8812Z" fill="#DBB595"/>
<path d="M19.5866 60.8064L15.9545 49.695C15.3685 48.1534 13.5511 47.4313 12.2523 47.9242C10.9545 48.4174 11.1966 49.9777 11.7838 51.5218L15.5042 62.3571C16.0129 63.6964 17.3397 64.4354 18.4665 64.0078C19.5935 63.5786 20.0952 62.1462 19.5866 60.8064Z" fill="#DBB595"/>
<path d="M38.6106 37.7267C36.5514 35.0239 34.8823 31.992 33.5361 31.1907C30.8929 29.6298 25.6988 26.323 25.6988 26.323L23.6758 35.0379L30.1901 36.8944C30.1901 36.8944 33.7658 41.6308 37.6202 43.836C38.0745 44.0944 42.061 46.0245 42.8049 43.2115C43.0761 42.186 40.5872 40.3242 38.6106 37.7267Z" fill="#DBB595"/>
<path d="M39.916 39.2798C39.916 39.2798 40.2181 43.0388 42.972 43.6718C42.972 43.6718 44.1145 42.8886 39.916 39.2798Z" fill="#EFE4DC"/>
<path d="M19.2697 61.7564C19.2561 61.7062 19.1862 61.3912 19.17 61.3437C18.8176 60.3025 18.0424 60.2305 17.2116 60.5117C16.3812 60.7933 15.8101 61.3215 16.1628 62.3624C16.1884 62.4376 16.2726 62.7794 16.3065 62.855C16.7338 63.8292 17.5168 64.05 18.2871 63.7891C19.0799 63.5208 19.5576 62.7957 19.2697 61.7564Z" fill="#E8C7AF"/>
<path d="M19.3788 62.2045C19.3644 62.1566 19.1706 61.4475 19.1543 61.4019C18.8001 60.4065 18.0537 60.3487 17.2593 60.6313C16.4653 60.9142 15.9245 61.4305 16.2787 62.426C16.3042 62.4978 16.5125 63.2323 16.5454 63.3045C16.9711 64.2346 17.6703 65.0643 18.6561 64.7129C19.6427 64.3621 19.6699 63.1995 19.3788 62.2045Z" fill="#F7F3F0"/>
<path d="M19.2341 61.7996C19.2203 61.7513 19.1197 61.4722 19.1036 61.4266C18.7494 60.4311 18.0031 60.3734 17.2092 60.656C16.4149 60.9388 15.8735 61.4552 16.228 62.4507C16.2539 62.5225 16.3687 62.8272 16.4016 62.8994C16.8271 63.8295 17.5831 64.0303 18.3195 63.768C19.0777 63.4984 19.5262 62.7942 19.2341 61.7996Z" fill="#EFE4DC"/>
<path d="M28.6808 67.865C28.6623 67.8041 28.565 67.4237 28.5442 67.366C28.0765 66.1119 27.1306 66.0525 26.1296 66.4255C25.1294 66.7986 24.4533 67.4627 24.9207 68.7172C24.9542 68.8073 25.07 69.2204 25.114 69.3112C25.67 70.4812 26.6321 70.7217 27.5597 70.3755C28.5148 70.0199 29.0696 69.1196 28.6808 67.865Z" fill="#E8C7AF"/>
<path d="M28.8327 68.4063C28.8133 68.3485 28.5517 67.4925 28.5299 67.4375C28.0618 66.2389 27.1516 66.196 26.1953 66.569C25.2395 66.9425 24.5987 67.5911 25.0669 68.7899C25.1008 68.8765 25.3814 69.7629 25.4246 69.8493C25.9766 70.9658 26.8579 71.9503 28.0452 71.4865C29.2328 71.0231 29.2243 69.6069 28.8327 68.4063Z" fill="#F7F3F0"/>
<path d="M28.6405 67.9187C28.6217 67.8607 28.4891 67.5244 28.4672 67.4696C27.9997 66.2708 27.0895 66.2279 26.133 66.6011C25.1763 66.9746 24.5363 67.6231 25.0044 68.8218C25.0381 68.9082 25.189 69.275 25.2323 69.3616C25.7841 70.4782 26.7121 70.695 27.5992 70.3486C28.5118 69.9924 29.0323 69.1191 28.6405 67.9187Z" fill="#EFE4DC"/>
<path d="M36.1965 68.7371C36.1734 68.6781 36.0514 68.3045 36.0266 68.2487C35.4771 67.0281 34.5287 67.0318 33.5548 67.4708C32.5818 67.9096 31.9513 68.6171 32.5011 69.8375C32.5412 69.9255 32.6838 70.3299 32.7337 70.4175C33.3658 71.5482 34.3416 71.7237 35.2448 71.3167C36.1738 70.8985 36.6679 69.9632 36.1965 68.7371Z" fill="#E8C7AF"/>
<path d="M36.3823 69.2676C36.3593 69.2112 36.0414 68.3744 36.0159 68.3212C35.4694 67.1563 34.558 67.174 33.6289 67.6096C32.7001 68.0459 32.1034 68.7357 32.6504 69.9006C32.69 69.9848 33.0289 70.8507 33.0779 70.9341C33.7029 72.0116 34.6477 72.9351 35.8016 72.3934C36.9554 71.8519 36.8527 70.4394 36.3823 69.2676Z" fill="#F7F3F0"/>
<path d="M36.1598 68.7938C36.1371 68.737 35.9825 68.4105 35.9575 68.357C35.4108 67.192 34.4994 67.2099 33.57 67.6455C32.641 68.082 32.0454 68.7716 32.5915 69.9365C32.6314 70.021 32.8061 70.3764 32.855 70.4601C33.4797 71.5376 34.4203 71.6921 35.2819 71.2877C36.1692 70.8712 36.6307 69.9653 36.1598 68.7938Z" fill="#EFE4DC"/>
<path d="M40.9656 62.8214C40.943 62.7623 40.821 62.3888 40.7962 62.3329C40.2462 61.1123 39.2983 61.1161 38.3248 61.5549C37.3509 61.9937 36.7209 62.7013 37.2707 63.9218C37.3103 64.0097 37.4529 64.4139 37.5027 64.5017C38.1352 65.6324 39.1107 65.8082 40.014 65.4011C40.9434 64.9824 41.4368 64.0473 40.9656 62.8214Z" fill="#E8C7AF"/>
<path d="M41.1514 63.3515C41.1289 63.2951 40.8105 62.4585 40.7855 62.4051C40.239 61.2404 39.3276 61.2579 38.3986 61.6935C37.4692 62.13 36.8731 62.8194 37.42 63.9845C37.4592 64.0688 37.7985 64.9347 37.847 65.0182C38.472 66.0957 39.4173 67.019 40.5707 66.4772C41.7252 65.9357 41.6219 64.5232 41.1514 63.3515Z" fill="#F7F3F0"/>
<path d="M40.9294 62.8777C40.9068 62.8211 40.7518 62.4944 40.727 62.441C40.18 61.2763 39.2691 61.2938 38.3395 61.7294C37.4101 62.1659 36.8146 62.8557 37.3615 64.0208C37.4011 64.1048 37.5758 64.4605 37.6244 64.5442C38.2498 65.6215 39.1894 65.7761 40.0516 65.3717C40.9389 64.9553 41.4003 64.0493 40.9294 62.8777Z" fill="#EFE4DC"/>
<path d="M30.647 36.6857C29.9634 35.4428 28.6307 33.4465 28.6307 33.4465L28.3184 33.8041C28.3184 33.8041 29.4038 35.3986 30.2848 36.8751C31.1714 38.3614 32.7535 41.8633 32.7535 41.8633C32.7535 41.8633 31.3232 37.9155 30.647 36.6857Z" fill="#CEA98D"/>
<path d="M64.5559 39.9176C63.2867 36.7751 61.0464 36.2035 58.9135 37.0647C56.7812 37.9258 55.5654 39.8931 56.8342 43.0357C57.7688 45.3495 61.3761 49.3056 63.5089 48.4443C65.6415 47.5832 65.425 42.0701 64.5559 39.9176Z" fill="white"/>
<path d="M63.8272 44.4056C63.2545 42.9872 62.3652 43.0286 61.4033 43.417C60.4415 43.8054 59.7716 44.3937 60.3443 45.8119C60.9166 47.2292 62.8964 48.7836 63.4758 48.5495C64.0804 48.3055 64.3995 45.8227 63.8272 44.4056Z" fill="#F4E028"/>
<path d="M75.1078 42.8273C73.9749 40.8256 71.8657 39.8776 68.916 41.5462C66.744 42.775 63.2933 46.8682 64.4255 48.8699C65.5582 50.8718 70.9958 49.9371 73.0163 48.7942C75.9658 47.1254 76.2399 44.8292 75.1078 42.8273Z" fill="white"/>
<path d="M69.1357 46.1245C68.6247 45.2219 67.9539 44.6347 66.6228 45.3878C65.2924 46.1405 64.0099 48.3063 64.3177 48.8501C64.6387 49.4173 67.1418 49.4096 68.472 48.6571C69.8037 47.9038 69.6463 47.0277 69.1357 46.1245Z" fill="#F4E028"/>
<path d="M73.5476 51.7185C71.5487 50.2249 66.4127 48.7139 65.036 50.5564C63.6594 52.3992 66.7042 57.0003 68.5641 58.3894C71.2793 60.4181 73.4912 59.7443 74.8675 57.9021C76.2442 56.0593 76.263 53.7468 73.5476 51.7185Z" fill="white"/>
<path d="M69.1079 51.1654C67.8834 50.2506 65.3845 49.9483 65.0105 50.449C64.6206 50.971 65.6351 53.2595 66.8598 54.1744C68.0849 55.0899 68.8241 54.5929 69.4447 53.7622C70.0657 52.931 70.3329 52.0808 69.1079 51.1654Z" fill="#F4E028"/>
<path d="M63.2941 51.1908C61.0167 50.8675 58.4418 55.7469 58.1154 58.0452C57.6389 61.4006 59.2917 63.0181 61.5685 63.3414C63.8457 63.665 65.8836 62.5715 66.36 59.2162C66.7104 56.7453 65.5714 51.5144 63.2941 51.1908Z" fill="white"/>
<path d="M63.377 51.1171C62.732 51.0254 61.2112 53.0138 60.9965 54.5271C60.7813 56.0416 61.5718 56.4513 62.5988 56.5971C63.6257 56.743 64.5003 56.5696 64.7152 55.0552C64.9302 53.5418 63.9962 51.2049 63.377 51.1171Z" fill="#F4E028"/>
<path d="M62.7556 49.4272C62.2645 47.1803 56.7934 46.4689 54.5258 46.9647C51.2146 47.6885 50.2753 49.8012 50.7667 52.0482C51.2577 54.2949 52.9932 55.8232 56.304 55.0998C58.7417 54.5668 63.2469 51.6742 62.7556 49.4272Z" fill="white"/>
<path d="M62.8527 49.4783C62.7135 48.8416 60.3198 48.1105 58.8264 48.4367C57.3323 48.7632 57.2238 49.647 57.4453 50.6606C57.6668 51.6737 58.1347 52.4327 59.6288 52.1059C61.1219 51.7796 62.9863 50.089 62.8527 49.4783Z" fill="#F4E028"/>
<path d="M66.1078 48.9951C65.639 47.8339 64.2678 47.2917 63.0465 47.7847C61.8263 48.2774 61.2165 49.6197 61.6854 50.7809C62.1546 51.9423 63.5252 52.4849 64.7455 51.992C65.9668 51.4989 66.5769 50.1564 66.1078 48.9951Z" fill="#F4E028"/>
<path d="M65.3564 49.2988C65.0682 48.5851 64.1809 48.2699 63.3749 48.5952C62.5699 48.9203 62.1504 49.7632 62.4386 50.4769C62.7268 51.1909 63.6142 51.5061 64.4192 51.181C65.2252 50.8557 65.6446 50.0127 65.3564 49.2988Z" fill="#E2CB23"/>
</g>
<defs>
<clipPath id="clip0_623_1521">
<rect width="88" height="88" fill="white" transform="translate(0.00195312)"/>
</clipPath>
</defs>
</svg>
