<svg width="21" height="20" viewBox="0 0 21 20" fill="none" xmlns="http://www.w3.org/2000/svg">
<path d="M10.1394 19.7732L4.77483 14.47C1.81204 11.541 1.81204 6.79226 4.77483 3.86333C7.73762 0.934393 12.5412 0.934393 15.5041 3.86333C18.4669 6.79226 18.4669 11.541 15.5041 14.47L10.1394 19.7732ZM14.3119 13.2914C16.6163 11.0134 16.6163 7.31989 14.3119 5.04183C12.0075 2.76378 8.27136 2.76378 5.96696 5.04183C3.66257 7.31989 3.66257 11.0134 5.96696 13.2914L10.1394 17.4162L14.3119 13.2914ZM10.1394 10.8333C9.2083 10.8333 8.45351 10.0871 8.45351 9.16663C8.45351 8.24615 9.2083 7.49996 10.1394 7.49996C11.0706 7.49996 11.8254 8.24615 11.8254 9.16663C11.8254 10.0871 11.0706 10.8333 10.1394 10.8333Z" fill="black"/>
</svg>
