<svg width="72" height="46" viewBox="0 0 72 46" fill="none" xmlns="http://www.w3.org/2000/svg">
<rect x="0.5" y="0.5" width="71" height="45" rx="22.5" fill="white" stroke="#C5CDD9"/>
<path d="M40.2863 23.2338C40.2858 25.2112 39.6989 27.144 38.6 28.7879C37.501 30.4318 35.9393 31.7129 34.1123 32.4693C32.2853 33.2257 30.2751 33.4233 28.3357 33.0373C26.3964 32.6513 24.615 31.6988 23.217 30.3005C21.8189 28.9021 20.8668 27.1206 20.4811 25.1812C20.0954 23.2418 20.2935 21.2316 21.0502 19.4047C21.8069 17.5779 23.0883 16.0164 24.7324 14.9177C26.3765 13.8191 28.3094 13.2326 30.2868 13.2324C31.6001 13.2323 32.9006 13.4909 34.114 13.9935C35.3274 14.4961 36.4298 15.2328 37.3584 16.1616C38.287 17.0904 39.0235 18.193 39.5259 19.4064C40.0283 20.6199 40.2867 21.9204 40.2863 23.2338Z" fill="#E2574C"/>
<path d="M42.2965 13.2324C40.1406 13.2316 38.0429 13.9315 36.3193 15.2267H36.3276C36.6735 15.5029 36.9976 15.8055 37.2968 16.1318L35.2183 16.1647C34.8937 16.4969 34.5919 16.8507 34.315 17.2236H37.9841C38.2632 17.5377 38.5206 17.8704 38.7547 18.2194H33.6488C33.46 18.5421 33.2895 18.8751 33.1381 19.217H39.3349C39.4981 19.5293 39.6418 19.8515 39.7651 20.1816H32.7729C32.6614 20.5288 32.5698 20.882 32.4983 21.2396H40.0634C40.1376 21.5864 40.1943 21.9058 40.2337 22.2316H32.3492C32.3162 22.5605 32.2994 22.8939 32.2988 23.232H40.2913C40.2899 23.5663 40.2695 23.9003 40.23 24.2323H32.3492C32.3833 24.5715 32.4334 24.905 32.4993 25.2326H40.0461C39.9683 25.5566 39.8777 25.8824 39.7651 26.221H32.7473C32.8543 26.5602 32.9799 26.8932 33.1234 27.2186H39.334C39.1612 27.5625 38.9668 27.8951 38.7519 28.2143H33.6268C33.8281 28.5634 34.051 28.8996 34.294 29.2211L37.9786 29.2787C37.6405 29.6164 37.278 29.9287 36.8941 30.2132C36.9142 30.2296 36.3065 30.2132 35.1122 30.1921C36.2611 31.3777 37.6858 32.2603 39.259 32.7612C40.8321 33.2621 42.5048 33.3656 44.1277 33.0625C45.7507 32.7594 47.2733 32.0592 48.5597 31.0244C49.846 29.9895 50.8561 28.6522 51.4998 27.1319C52.1434 25.6115 52.4006 23.9555 52.2483 22.3115C52.096 20.6676 51.539 19.0869 50.6271 17.7107C49.7151 16.3345 48.4765 15.2055 47.0219 14.4245C45.5674 13.6436 43.942 13.235 42.291 13.2352L42.2965 13.2324Z" fill="#F4B459"/>
</svg>
