<svg width="41" height="40" viewBox="0 0 41 40" fill="none" xmlns="http://www.w3.org/2000/svg">
<g clip-path="url(#clip0_623_1238)">
<path d="M14.2622 6.58824H25.8922V10.4797H29.3888V4.83996C29.3888 3.87452 28.606 3.09167 27.6405 3.09167H12.5139C11.5484 3.09167 10.7656 3.87452 10.7656 4.83996V10.4797H14.2623V6.58824H14.2622Z" fill="#34454E"/>
<path d="M35.2398 10.4797H29.3898H25.8932H14.2632H10.7665H4.76414C2.13399 10.4797 0.00195312 12.6117 0.00195312 15.2418V32.1462C0.00195312 34.7764 2.13399 36.9084 4.76414 36.9084H35.2398C37.8699 36.9084 40.002 34.7764 40.002 32.1462V15.2419C40.002 12.6118 37.8699 10.4797 35.2398 10.4797ZM20.1761 31.8816C15.9797 31.8816 12.5776 28.4797 12.5776 24.2832C12.5776 20.0867 15.9796 16.6848 20.1761 16.6848C24.3727 16.6848 27.7745 20.0867 27.7745 24.2832C27.7745 28.4797 24.3727 31.8816 20.1761 31.8816Z" fill="#EBEEEF"/>
<path d="M20.1766 16.6847C15.9803 16.6847 12.5781 20.0866 12.5781 24.2831C12.5781 28.4796 15.9802 31.8815 20.1766 31.8815C24.3732 31.8815 27.775 28.4796 27.775 24.2831C27.775 20.0866 24.3732 16.6847 20.1766 16.6847ZM24.5896 24.6592C24.5896 25.2807 24.086 25.7844 23.4644 25.7844H21.6781V27.5708C21.6781 28.1923 21.1743 28.6961 20.5528 28.6961H19.8003C19.1788 28.6961 18.675 28.1923 18.675 27.5708V25.7844H16.8885C16.2673 25.7844 15.7634 25.2807 15.7634 24.6592V23.9069C15.7634 23.2854 16.2674 22.7816 16.8885 22.7816H18.675V20.9952C18.675 20.3737 19.1788 19.87 19.8003 19.87H20.5528C21.1743 19.87 21.6781 20.3738 21.6781 20.9952V22.7816H23.4644C24.086 22.7816 24.5896 23.2854 24.5896 23.9069V24.6592Z" fill="#E74424"/>
<path d="M23.4647 22.7818H21.6784V20.9954C21.6784 20.3739 21.1746 19.8702 20.5531 19.8702H19.8006C19.1792 19.8702 18.6753 20.374 18.6753 20.9954V22.7818H16.8889C16.2676 22.7818 15.7637 23.2856 15.7637 23.9071V24.6595C15.7637 25.2809 16.2677 25.7846 16.8889 25.7846H18.6753V27.571C18.6753 28.1925 19.1792 28.6963 19.8006 28.6963H20.5531C21.1746 28.6963 21.6784 28.1925 21.6784 27.571V25.7846H23.4647C24.0863 25.7846 24.5899 25.2809 24.5899 24.6595V23.9071C24.5899 23.2856 24.0863 22.7818 23.4647 22.7818Z" fill="#EBEEEF"/>
</g>
<defs>
<clipPath id="clip0_623_1238">
<rect width="40" height="40" fill="white" transform="translate(0.00195312)"/>
</clipPath>
</defs>
</svg>
