<svg width="41" height="40" viewBox="0 0 41 40" fill="none" xmlns="http://www.w3.org/2000/svg">
<path d="M16.557 31.7303C16.557 31.5236 16.557 31.3168 16.557 31.1101C16.6259 30.6966 16.2813 30.3521 15.8678 30.3521H4.84152C4.428 30.3521 4.15234 30.6277 4.15234 31.0412V32.4195C4.15234 32.833 4.428 33.1087 4.84152 33.1087H15.8678C16.2813 33.1087 16.557 32.833 16.557 32.4195V31.7303Z" fill="#C5CDD9"/>
<path d="M38.502 40H12.502C12.202 40 12.002 39.7 12.002 39.25V37.75C12.002 37.3 12.202 37 12.502 37H38.5019C38.802 37 39.002 37.3 39.002 37.75V39.25C39.002 39.7 38.802 40 38.502 40Z" fill="#34454E"/>
<path d="M28.9609 37.2434L26.8245 30.0763C26.0665 27.3886 23.5856 25.528 20.7601 25.528C17.2454 25.528 14.4199 28.3534 14.4199 31.8681V37.2434H28.9609Z" fill="#34454E"/>
<path d="M24.1376 31.7304C24.1376 29.8008 22.6214 28.2847 20.6918 28.2847C18.7622 28.2847 17.2461 29.8008 17.2461 31.7304C17.2461 33.66 18.7622 35.1761 20.6918 35.1761C22.6214 35.1761 24.1376 33.66 24.1376 31.7304Z" fill="#C5CDD9"/>
<path d="M28.2718 13.1349C28.2718 10.8607 26.411 9 24.1369 9C21.8627 9 20.002 10.8607 20.002 13.1349C20.002 15.4092 21.8627 17.2698 24.1369 17.2698C26.411 17.2698 28.2718 15.4091 28.2718 13.1349Z" fill="#C5CDD9"/>
<path d="M22.8994 15.3079C22.6302 15.3079 22.4506 15.2181 22.2712 15.0387C21.9122 14.6797 21.9122 14.1411 22.2712 13.7822L24.7841 11.2692C25.1431 10.9103 25.6816 10.9103 26.0406 11.2692C26.3996 11.6282 26.3996 12.1668 26.0406 12.5258L23.5277 15.0387C23.3481 15.2182 23.0788 15.3079 22.8994 15.3079Z" fill="#34454E"/>
<path d="M25.4123 15.3079C25.1431 15.3079 24.9636 15.2181 24.7841 15.0387L22.2712 12.5258C21.9122 12.1668 21.9122 11.6282 22.2712 11.2692C22.6302 10.9103 23.1687 10.9103 23.5277 11.2692L26.0406 13.7822C26.3996 14.1411 26.3996 14.6797 26.0406 15.0387C25.8611 15.2182 25.6815 15.3079 25.4123 15.3079Z" fill="#34454E"/>
<path d="M26.686 6.64532L23.2402 4.30221L24.3429 2.57935L27.7886 4.85352L26.686 6.64532Z" fill="#34454E"/>
<path d="M27.7884 4.85362L24.3426 2.51051C23.7224 2.09699 23.5846 1.20117 23.9981 0.580923C24.4116 -0.0393211 25.3074 -0.17711 25.9276 0.236334L29.3734 2.57944C29.9936 2.99297 30.2003 3.81993 29.718 4.50903C29.3045 5.12927 28.4086 5.26714 27.7884 4.85362Z" fill="#C5CDD9"/>
<path d="M16.9705 20.9107L13.5938 18.5676L13.9383 15.5354L19.6582 19.3946L16.9705 20.9107Z" fill="#2D93C7"/>
<path d="M14.9019 22.7715L12.6277 21.2553C12.2831 21.0486 12.2142 20.6351 12.421 20.2905L13.5926 18.5676L17.0383 20.9107L15.8667 22.6336C15.591 22.9093 15.1776 22.9782 14.9019 22.7715Z" fill="#34454E"/>
<path d="M12.7661 24.701L11.5945 23.9429C11.2499 23.7362 11.181 23.3227 11.3878 22.9781L12.5594 21.2552L14.8335 22.7714L13.662 24.4943C13.5241 24.8388 13.0417 24.9077 12.7661 24.701Z" fill="#34454E"/>
<path d="M20.002 13.1233C20.002 10.8491 21.8627 8.98836 24.1369 8.98836C24.9639 8.98836 25.653 9.19508 26.2732 9.60861L27.7894 7.40336L22.0694 3.54419L13.9375 15.5353L19.6574 19.3945L21.6559 16.4311C20.6911 15.6732 20.002 14.5016 20.002 13.1233Z" fill="#34454E"/>
<path d="M19.7262 33.3842C19.5195 33.3842 19.3816 33.3152 19.2439 33.1775C18.9682 32.9018 18.9682 32.4883 19.2439 32.2126L21.1734 30.283C21.4491 30.0074 21.8626 30.0074 22.1383 30.283C22.4139 30.5587 22.4139 30.9722 22.1383 31.2479L20.2087 33.1775C20.0707 33.3153 19.864 33.3842 19.7262 33.3842Z" fill="#34454E"/>
<path d="M21.6558 33.3842C21.4491 33.3842 21.3112 33.3152 21.1734 33.1775L19.2439 31.2479C18.9682 30.9722 18.9682 30.5587 19.2439 30.283C19.5195 30.0074 19.933 30.0074 20.2087 30.283L22.1383 32.2126C22.4139 32.4883 22.4139 32.9018 22.1383 33.1775C22.0004 33.3153 21.8625 33.3842 21.6558 33.3842Z" fill="#34454E"/>
<path d="M24.7578 26.9062C25.7226 27.6642 26.4807 28.7669 26.8253 30.0073L27.4455 32.2125C30.1332 29.6627 31.7182 26.0791 31.7182 22.0821C31.7182 18.4986 30.4089 15.2595 28.2725 12.7097C28.2725 12.8476 28.2725 12.9854 28.2725 13.1232C28.2725 15.1907 26.7563 16.9136 24.7578 17.1892C25.6537 18.5675 26.205 20.2904 26.205 22.0822C26.205 23.874 25.6537 25.5279 24.7578 26.9062Z" fill="#34454E"/>
</svg>
