<svg width="20" height="20" viewBox="0 0 20 20" fill="none" xmlns="http://www.w3.org/2000/svg">
<path d="M15.8919 4.10741C14.3179 2.53347 12.2253 1.66663 9.99935 1.66663C7.77343 1.66663 5.68073 2.53347 4.10679 4.10741C2.53282 5.68134 1.66602 7.77404 1.66602 9.99996C1.66602 12.2259 2.53282 14.3186 4.10679 15.8925C5.68073 17.4664 7.77343 18.3333 9.99935 18.3333C12.2253 18.3333 14.3179 17.4664 15.8919 15.8925C17.4658 14.3185 18.3327 12.2259 18.3327 9.99996C18.3327 7.77404 17.4658 5.68138 15.8919 4.10741ZM15.5229 15.5235C14.0475 16.9988 12.0858 17.8114 9.99935 17.8114C7.91285 17.8114 5.95123 16.9988 4.47583 15.5235C3.00046 14.0481 2.18794 12.0865 2.18794 9.99996C2.18794 7.91346 3.00046 5.95184 4.47583 4.47644C5.95123 3.00107 7.91285 2.18855 9.99935 2.18855C12.0858 2.18855 14.0475 3.00107 15.5229 4.47644C16.9982 5.95184 17.8108 7.91346 17.8108 9.99996C17.8108 12.0865 16.9982 14.0481 15.5229 15.5235Z" fill="black" stroke="black" stroke-width="0.5"/>
<path d="M9.44275 7.19898C10.2006 7.19898 10.8171 6.58242 10.8171 5.82459C10.8171 5.06676 10.2006 4.4502 9.44275 4.4502C8.68492 4.4502 8.06836 5.06676 8.06836 5.82459C8.06836 6.58242 8.68492 7.19898 9.44275 7.19898ZM9.44275 4.97212C9.91279 4.97212 10.2952 5.35454 10.2952 5.82459C10.2952 6.29463 9.91279 6.67706 9.44275 6.67706C8.97271 6.67706 8.59028 6.29463 8.59028 5.82459C8.59028 5.35454 8.97271 4.97212 9.44275 4.97212Z" fill="black" stroke="black" stroke-width="0.5"/>
<path d="M12.5042 7.23389C12.3601 7.23389 12.2432 7.35073 12.2432 7.49485C12.2432 7.63897 12.3601 7.75581 12.5042 7.75581C12.8208 7.75581 13.0783 8.01336 13.0783 8.32992C13.0783 8.64648 12.8208 8.90403 12.5042 8.90403C12.1876 8.90403 11.9301 8.64648 11.9301 8.32992C11.9301 8.26416 11.941 8.19979 11.9627 8.13862C12.0106 8.00271 11.9394 7.85365 11.8035 7.80567C11.6676 7.75762 11.5185 7.82891 11.4706 7.96482C11.4292 8.08194 11.4082 8.2048 11.4082 8.32992C11.4082 8.93427 11.8999 9.42595 12.5042 9.42595C13.1086 9.42595 13.6003 8.93427 13.6003 8.32992C13.6003 7.72557 13.1086 7.23389 12.5042 7.23389Z" fill="black" stroke="black" stroke-width="0.5"/>
<path d="M11.3729 12.0877C11.3729 11.9216 11.3501 11.7569 11.3052 11.5984C11.2659 11.4597 11.1217 11.3792 10.983 11.4185C10.8443 11.4577 10.7638 11.602 10.8031 11.7407C10.8349 11.8529 10.851 11.9697 10.851 12.0877C10.851 12.788 10.2812 13.3577 9.58096 13.3577C8.88068 13.3577 8.31098 12.788 8.31098 12.0877C8.31098 11.3874 8.88071 10.8177 9.58099 10.8177C9.84439 10.8177 10.0969 10.8975 10.3113 11.0486C10.4291 11.1315 10.5919 11.1033 10.675 10.9855C10.758 10.8677 10.7297 10.7049 10.6119 10.6218C10.309 10.4085 9.95256 10.2958 9.58099 10.2958C8.59292 10.2958 7.78906 11.0996 7.78906 12.0877C7.78906 13.0758 8.59292 13.8796 9.58099 13.8796C10.5691 13.8796 11.3729 13.0758 11.3729 12.0877Z" fill="black" stroke="black" stroke-width="0.5"/>
<path d="M11.8824 15.2012C11.7411 15.2296 11.6497 15.3672 11.6781 15.5085C11.7125 15.6796 11.6534 15.8634 11.5118 16.0259C11.3533 16.2079 11.1163 16.3382 10.8444 16.3928C10.5725 16.4475 10.3035 16.419 10.087 16.3124C9.89357 16.2173 9.76807 16.0706 9.73365 15.8995C9.70526 15.7582 9.56786 15.6666 9.42635 15.6951C9.28505 15.7235 9.19357 15.8611 9.22196 16.0024C9.28905 16.336 9.51441 16.6124 9.85662 16.7808C10.073 16.8872 10.3206 16.9417 10.5773 16.9417C10.6993 16.9417 10.8235 16.9294 10.9472 16.9045C11.3314 16.8272 11.6716 16.637 11.9052 16.3687C12.1557 16.0812 12.2567 15.7391 12.1896 15.4056C12.1613 15.2643 12.0239 15.1728 11.8824 15.2012Z" fill="black" stroke="black" stroke-width="0.5"/>
<path d="M12.6218 4.30231C12.7996 4.11553 13.1811 4.17785 13.4546 4.43843C13.7282 4.69901 13.809 5.07691 13.631 5.26369C13.5316 5.36807 13.5357 5.53324 13.64 5.63265C13.6905 5.68077 13.7553 5.70464 13.82 5.70464C13.8889 5.70464 13.9577 5.6775 14.009 5.62368C14.3884 5.22528 14.3012 4.52406 13.8146 4.06052C13.328 3.59699 12.6234 3.544 12.2439 3.94236C12.1445 4.04671 12.1485 4.21192 12.2529 4.31132C12.3572 4.41066 12.5224 4.4067 12.6218 4.30231Z" fill="black" stroke="black" stroke-width="0.5"/>
<path d="M15.3072 8.62549C15.3064 8.62549 15.3056 8.62549 15.3049 8.62549C15.1618 8.62549 15.0452 8.74083 15.044 8.88419C15.0427 9.02831 15.1585 9.14616 15.3027 9.14737C15.5606 9.1496 15.7758 9.47065 15.7725 9.84838C15.7708 10.0441 15.7102 10.2325 15.6063 10.3652C15.5547 10.4311 15.4456 10.5411 15.2933 10.5411C15.2917 10.5411 15.2899 10.5411 15.2882 10.5411C15.1452 10.5411 15.0286 10.6565 15.0274 10.7998C15.0261 10.944 15.1419 11.0618 15.286 11.0631C15.2884 11.0631 15.2908 11.0631 15.2932 11.0631C15.5662 11.0631 15.8298 10.9263 16.0172 10.687C16.1932 10.4622 16.2917 10.166 16.2944 9.85294C16.3002 9.18092 15.8573 8.63029 15.3072 8.62549Z" fill="black" stroke="black" stroke-width="0.5"/>
<path d="M6.5668 4.9506C6.23966 4.61776 5.64652 4.66831 5.2446 5.06334C4.84269 5.45833 4.78183 6.0505 5.10894 6.38338C5.16002 6.43536 5.22755 6.46142 5.29509 6.46142C5.3611 6.46142 5.42717 6.43651 5.47797 6.38661C5.58079 6.28561 5.58222 6.12037 5.48121 6.01758C5.36005 5.8943 5.42042 5.62235 5.61044 5.43561C5.80045 5.24886 6.07341 5.19323 6.19457 5.3165C6.29561 5.41929 6.46082 5.42071 6.5636 5.3197C6.66639 5.21863 6.66781 5.05339 6.5668 4.9506Z" fill="black" stroke="black" stroke-width="0.5"/>
<path d="M5.12779 8.06885C4.44668 8.06885 3.89258 8.68541 3.89258 9.44324C3.89258 10.2011 4.44668 10.8176 5.12779 10.8176C5.8089 10.8176 6.363 10.2011 6.363 9.44324C6.363 8.68541 5.8089 8.06885 5.12779 8.06885ZM5.12779 10.2957C4.73447 10.2957 4.4145 9.91328 4.4145 9.44324C4.4145 8.9732 4.73447 8.59077 5.12779 8.59077C5.52111 8.59077 5.84108 8.9732 5.84108 9.44324C5.84108 9.91328 5.52111 10.2957 5.12779 10.2957Z" fill="black" stroke="black" stroke-width="0.5"/>
<path d="M4.14763 12.7759C3.72028 13.2033 3.80859 13.9869 4.34446 14.5228C4.65188 14.8302 5.04074 14.9903 5.39718 14.9903C5.66207 14.9903 5.90911 14.9018 6.0913 14.7196C6.51865 14.2923 6.43034 13.5087 5.89446 12.9728C5.35863 12.4369 4.57498 12.3486 4.14763 12.7759ZM5.72227 14.3506C5.50219 14.5706 5.04022 14.4804 4.7135 14.1537C4.38674 13.827 4.29662 13.365 4.51666 13.145C4.59833 13.0633 4.71325 13.0244 4.84224 13.0244C5.06089 13.0244 5.3199 13.1363 5.52543 13.3418C5.85219 13.6686 5.94231 14.1305 5.72227 14.3506Z" fill="black" stroke="black" stroke-width="0.5"/>
<path d="M13.971 12.8823C13.78 13.0734 13.6557 13.3123 13.621 13.5551C13.5829 13.8218 13.6588 14.0726 13.8293 14.2431C13.9709 14.3847 14.1679 14.461 14.3834 14.461C14.4273 14.461 14.4721 14.4579 14.5172 14.4514C14.7601 14.4167 14.999 14.2924 15.19 14.1014C15.6113 13.6802 15.6735 13.0824 15.3317 12.7407C14.9899 12.3989 14.3922 12.4611 13.971 12.8823ZM14.821 13.7323C14.7109 13.8424 14.5733 13.9162 14.4434 13.9347C14.3831 13.9433 14.2712 13.9469 14.1983 13.874C14.1255 13.8011 14.129 13.6892 14.1376 13.629C14.1561 13.4991 14.2299 13.3615 14.34 13.2514C14.5436 13.0479 14.8345 12.9817 14.9626 13.1098C15.0764 13.2235 15.0462 13.5071 14.821 13.7323Z" fill="black" stroke="black" stroke-width="0.5"/>
<path d="M8.03329 8.05149C8.03329 7.98294 8.00546 7.91544 7.95709 7.86708C7.90838 7.81836 7.84122 7.79053 7.77233 7.79053C7.70379 7.79053 7.63663 7.81836 7.58792 7.86708C7.53955 7.91544 7.51172 7.98294 7.51172 8.05149C7.51172 8.12003 7.53955 8.18754 7.58792 8.2359C7.63663 8.28461 7.70379 8.31245 7.77233 8.31245C7.84122 8.31245 7.90838 8.28461 7.95709 8.2359C8.00546 8.18754 8.03329 8.12003 8.03329 8.05149Z" fill="black" stroke="black" stroke-width="0.5"/>
<path d="M6.6594 11.4091C6.59085 11.4091 6.5237 11.4369 6.47499 11.4856C6.42662 11.534 6.39844 11.6011 6.39844 11.67C6.39844 11.7386 6.42662 11.8061 6.47499 11.8544C6.5237 11.9031 6.59085 11.931 6.6594 11.931C6.72829 11.931 6.79545 11.9031 6.84416 11.8544C6.89252 11.8061 6.92036 11.7386 6.92036 11.67C6.92036 11.6011 6.89252 11.534 6.84416 11.4856C6.79545 11.4369 6.72829 11.4091 6.6594 11.4091Z" fill="black" stroke="black" stroke-width="0.5"/>
<path d="M13.8031 11.5762C13.8515 11.5279 13.8793 11.4604 13.8793 11.3918C13.8793 11.3233 13.8515 11.2558 13.8031 11.2074C13.7544 11.1587 13.6873 11.1309 13.6187 11.1309C13.5498 11.1309 13.4827 11.1587 13.434 11.2074C13.3856 11.2558 13.3574 11.3233 13.3574 11.3918C13.3574 11.4604 13.3856 11.5279 13.434 11.5762C13.4827 11.6249 13.5498 11.6528 13.6187 11.6528C13.6873 11.6528 13.7544 11.6249 13.8031 11.5762Z" fill="black" stroke="black" stroke-width="0.5"/>
<path d="M15.009 7.75581C15.0776 7.75581 15.1447 7.72797 15.1934 7.67926C15.2418 7.63089 15.2696 7.56374 15.2696 7.49485C15.2696 7.4263 15.2418 7.3588 15.1934 7.31043C15.1447 7.26172 15.0776 7.23389 15.009 7.23389C14.9401 7.23389 14.873 7.26172 14.8242 7.31043C14.7759 7.3588 14.748 7.4263 14.748 7.49485C14.748 7.56374 14.7759 7.63089 14.8242 7.67926C14.873 7.72797 14.9401 7.75581 15.009 7.75581Z" fill="black" stroke="black" stroke-width="0.5"/>
<path d="M9.16491 3.58015C9.2338 3.58015 9.30096 3.55231 9.34967 3.5036C9.39803 3.45524 9.42587 3.38773 9.42587 3.31919C9.42587 3.25064 9.39803 3.18314 9.34967 3.13478C9.30096 3.08606 9.2338 3.05823 9.16491 3.05823C9.09636 3.05823 9.02921 3.08606 8.9805 3.13478C8.93213 3.18314 8.9043 3.25064 8.9043 3.31919C8.9043 3.38773 8.93213 3.45524 8.9805 3.5036C9.02921 3.55231 9.09633 3.58015 9.16491 3.58015Z" fill="black" stroke="black" stroke-width="0.5"/>
<path d="M7.49373 15.0276C7.42484 15.0276 7.35768 15.0554 7.30897 15.1041C7.26061 15.1525 7.23242 15.22 7.23242 15.2885C7.23242 15.3571 7.26061 15.4246 7.30897 15.473C7.35768 15.5217 7.42484 15.5495 7.49373 15.5495C7.56228 15.5495 7.62943 15.5217 7.67814 15.473C7.72651 15.4246 7.75469 15.3571 7.75469 15.2885C7.75469 15.22 7.72651 15.1525 7.67814 15.1041C7.62946 15.0554 7.56231 15.0276 7.49373 15.0276Z" fill="black" stroke="black" stroke-width="0.5"/>
</svg>
