<svg width="18" height="4" viewBox="0 0 18 4" fill="none" xmlns="http://www.w3.org/2000/svg">
<path d="M1.5 0.131592C0.675 0.131592 0 0.806592 0 1.63159C0 2.45659 0.675 3.13159 1.5 3.13159C2.325 3.13159 3 2.45659 3 1.63159C3 0.806592 2.325 0.131592 1.5 0.131592ZM16.5 0.131592C15.675 0.131592 15 0.806592 15 1.63159C15 2.45659 15.675 3.13159 16.5 3.13159C17.325 3.13159 18 2.45659 18 1.63159C18 0.806592 17.325 0.131592 16.5 0.131592ZM9 0.131592C8.175 0.131592 7.5 0.806592 7.5 1.63159C7.5 2.45659 8.175 3.13159 9 3.13159C9.825 3.13159 10.5 2.45659 10.5 1.63159C10.5 0.806592 9.825 0.131592 9 0.131592Z" fill="#C5CDD9"/>
</svg>
