<svg width="20" height="20" viewBox="0 0 20 20" fill="none" xmlns="http://www.w3.org/2000/svg">
<path d="M11.1178 3.33398C10.9336 3.85528 10.8333 4.41626 10.8333 5.00065C10.8333 7.76208 13.0719 10.0006 15.8333 10.0006C16.4177 10.0006 16.9787 9.9004 17.5 9.71615V17.5006C17.5 17.9609 17.1269 18.334 16.6667 18.334H3.33333C2.8731 18.334 2.5 17.9609 2.5 17.5006V4.16732C2.5 3.70708 2.8731 3.33398 3.33333 3.33398H11.1178Z" fill="#FECD57"/>
<path d="M12.5 4.99935C12.5 6.8403 13.9924 8.33268 15.8333 8.33268C17.6742 8.33268 19.1667 6.8403 19.1667 4.99935C19.1667 3.1584 17.6742 1.66602 15.8333 1.66602C13.9924 1.66602 12.5 3.1584 12.5 4.99935Z" fill="#FF3B30"/>
</svg>
