<svg width="63" height="19" viewBox="0 0 63 19" fill="none" xmlns="http://www.w3.org/2000/svg">
<path d="M8.65039 18.3398C10.4082 18.3398 11.9238 17.9844 13.1973 17.2734C14.4707 16.5547 15.4512 15.5391 16.1387 14.2266C16.834 12.9141 17.1816 11.3555 17.1816 9.55078V9.52734C17.1816 7.72266 16.834 6.16797 16.1387 4.86328C15.4512 3.55078 14.4668 2.53906 13.1855 1.82812C11.9121 1.10938 10.4004 0.75 8.65039 0.75C6.92383 0.75 5.42383 1.10547 4.15039 1.81641C2.87695 2.52734 1.88867 3.53906 1.18555 4.85156C0.490234 6.16406 0.142578 7.72266 0.142578 9.52734V9.55078C0.142578 11.3555 0.490234 12.918 1.18555 14.2383C1.88086 15.5508 2.86523 16.5625 4.13867 17.2734C5.41211 17.9844 6.91602 18.3398 8.65039 18.3398ZM8.65039 14.2852C7.96289 14.2852 7.36133 14.0938 6.8457 13.7109C6.33008 13.3281 5.92773 12.7812 5.63867 12.0703C5.34961 11.3594 5.20508 10.5195 5.20508 9.55078V9.52734C5.20508 8.55078 5.34961 7.71094 5.63867 7.00781C5.92773 6.30469 6.33008 5.76172 6.8457 5.37891C7.36914 4.99609 7.9707 4.80469 8.65039 4.80469C9.35352 4.80469 9.96289 4.99609 10.4785 5.37891C11.002 5.76172 11.4043 6.30859 11.6855 7.01953C11.9746 7.72266 12.1191 8.55859 12.1191 9.52734V9.55078C12.1191 10.5195 11.9785 11.3594 11.6973 12.0703C11.416 12.7734 11.0176 13.3203 10.502 13.7109C9.98633 14.0938 9.36914 14.2852 8.65039 14.2852ZM27.8574 18.2695C28.9355 18.2695 29.8535 18.0039 30.6113 17.4727C31.3691 16.9414 31.9434 16.1758 32.334 15.1758C32.7324 14.168 32.9316 12.9453 32.9316 11.5078V11.4961C32.9316 10.0508 32.7324 8.82812 32.334 7.82812C31.9434 6.82031 31.3691 6.05859 30.6113 5.54297C29.8535 5.01953 28.9316 4.75781 27.8457 4.75781C27.2285 4.75781 26.6699 4.85938 26.1699 5.0625C25.6699 5.26562 25.2363 5.55859 24.8691 5.94141C24.502 6.32422 24.2168 6.78125 24.0137 7.3125H23.8965V0.890625H19.0918V18H23.8965V15.832H24.0137C24.209 16.3398 24.4863 16.7773 24.8457 17.1445C25.2129 17.5039 25.6504 17.7812 26.1582 17.9766C26.666 18.1719 27.2324 18.2695 27.8574 18.2695ZM25.9824 14.4023C25.5527 14.4023 25.1816 14.2891 24.8691 14.0625C24.5645 13.8359 24.3223 13.5078 24.1426 13.0781C23.9707 12.6406 23.8848 12.1211 23.8848 11.5195V11.5078C23.8848 10.8984 23.9707 10.3789 24.1426 9.94922C24.3223 9.51953 24.5684 9.19141 24.8809 8.96484C25.1934 8.73828 25.5605 8.625 25.9824 8.625C26.3965 8.625 26.7598 8.73828 27.0723 8.96484C27.3848 9.19141 27.627 9.51953 27.7988 9.94922C27.9707 10.3789 28.0566 10.8945 28.0566 11.4961V11.5078C28.0566 12.1094 27.9707 12.625 27.7988 13.0547C27.6348 13.4844 27.3965 13.8164 27.084 14.0508C26.7715 14.2852 26.4043 14.4023 25.9824 14.4023ZM38.4277 18.1641C38.9824 18.1641 39.4863 18.0938 39.9395 17.9531C40.4004 17.8047 40.8066 17.5898 41.1582 17.3086C41.5098 17.0195 41.7988 16.6758 42.0254 16.2773H42.1426V18H46.9355V9.16406C46.9355 8.27344 46.6855 7.49609 46.1855 6.83203C45.6934 6.16797 44.998 5.65234 44.0996 5.28516C43.209 4.91797 42.1582 4.73438 40.9473 4.73438C39.6895 4.73438 38.6074 4.91406 37.7012 5.27344C36.7949 5.625 36.0879 6.125 35.5801 6.77344C35.0723 7.42188 34.7832 8.18359 34.7129 9.05859L34.7012 9.21094H38.9902L39.0137 9.10547C39.0762 8.83984 39.2441 8.61719 39.5176 8.4375C39.7988 8.25781 40.1855 8.16797 40.6777 8.16797C41.1621 8.16797 41.5254 8.27734 41.7676 8.49609C42.0176 8.70703 42.1426 8.99609 42.1426 9.36328V13.4297C42.1426 13.7188 42.0605 13.9766 41.8965 14.2031C41.7324 14.4297 41.502 14.6094 41.2051 14.7422C40.916 14.875 40.584 14.9414 40.209 14.9414C39.7637 14.9414 39.4082 14.8516 39.1426 14.6719C38.877 14.4844 38.7441 14.2227 38.7441 13.8867V13.875C38.7441 13.5547 38.8652 13.2969 39.1074 13.1016C39.3574 12.9062 39.7324 12.793 40.2324 12.7617L44.6738 12.4453V9.79688L39.4473 10.1367C38.291 10.2148 37.3145 10.4219 36.5176 10.7578C35.7207 11.0859 35.1113 11.5391 34.6895 12.1172C34.2754 12.6953 34.0684 13.3984 34.0684 14.2266V14.2383C34.0684 14.9883 34.252 15.6602 34.6191 16.2539C34.9863 16.8477 35.498 17.3164 36.1543 17.6602C36.8105 17.9961 37.5684 18.1641 38.4277 18.1641ZM48.9512 18H53.7559V11.4492C53.7559 10.8477 53.8574 10.3438 54.0605 9.9375C54.2715 9.53125 54.584 9.22656 54.998 9.02344C55.4121 8.82031 55.9238 8.71875 56.5332 8.71875C56.791 8.71875 57.0449 8.74219 57.2949 8.78906C57.5527 8.83594 57.7949 8.90234 58.0215 8.98828V4.95703C57.8262 4.88672 57.623 4.83594 57.4121 4.80469C57.209 4.77344 57.002 4.75781 56.791 4.75781C56.0098 4.75781 55.3691 4.97656 54.8691 5.41406C54.3691 5.85156 54.0371 6.48438 53.873 7.3125H53.7559V5.01562H48.9512V18ZM60.1895 18.2812C60.8926 18.2812 61.4824 18.043 61.959 17.5664C62.4355 17.0898 62.6738 16.5 62.6738 15.7969C62.6738 15.1016 62.4355 14.5156 61.959 14.0391C61.4824 13.5625 60.8926 13.3242 60.1895 13.3242C59.4785 13.3242 58.8848 13.5625 58.4082 14.0391C57.9316 14.5156 57.6934 15.1016 57.6934 15.7969C57.6934 16.5 57.9316 17.0898 58.4082 17.5664C58.8848 18.043 59.4785 18.2812 60.1895 18.2812Z" fill="#34454E"/>
</svg>
