<svg width="41" height="40" viewBox="0 0 41 40" fill="none" xmlns="http://www.w3.org/2000/svg">
<g clip-path="url(#clip0_623_1369)">
<path d="M14.008 36.0128C16.3539 33.6669 16.5608 29.8722 14.353 27.3883C12.9731 25.8704 11.4552 25.3184 9.59234 25.4565C7.72951 25.5945 5.86659 27.0433 6.14257 28.9062C6.2806 29.9411 5.93561 31.0451 5.17661 31.8041C4.48662 32.632 2.48576 34.4948 0.00195312 34.4948C0.00195312 34.4948 9.04031 41.0494 14.008 36.0128Z" fill="#34454E"/>
<path d="M38.9156 3.17089C38.8466 3.10187 38.7776 3.03286 38.7086 2.96392C37.5357 1.791 35.5349 1.791 34.224 2.96392L10.3516 25.5254C11.8695 25.6634 13.3184 26.1464 14.4223 27.4572C15.8712 29.1131 16.2851 31.3899 15.6642 33.4598L38.9157 8.41456C40.3645 6.89664 40.3645 4.55078 38.9156 3.17089Z" fill="#C5CDD9"/>
<path d="M32.4297 4.75783L34.0856 6.4137C34.2236 6.55173 34.4306 6.62067 34.5685 6.62067C34.7065 6.62067 34.9135 6.55166 35.0514 6.4137C35.3274 6.13773 35.3274 5.72372 35.0514 5.44774L33.3956 3.79187L32.4297 4.75783Z" fill="#2D93C7"/>
<path d="M30.4291 6.62075L32.154 8.34563C32.292 8.48366 32.499 8.5526 32.6369 8.5526C32.775 8.5526 32.9819 8.48358 33.1199 8.34563C33.3959 8.06966 33.3959 7.65565 33.1199 7.37967L31.395 5.65479L30.4291 6.62075C30.4291 6.62075 30.3601 6.62075 30.4291 6.62075Z" fill="#2D93C7"/>
</g>
<defs>
<clipPath id="clip0_623_1369">
<rect width="40" height="40" fill="white" transform="translate(0.00195312)"/>
</clipPath>
</defs>
</svg>
