<svg width="40" height="40" viewBox="0 0 40 40" fill="none" xmlns="http://www.w3.org/2000/svg">
<path d="M18.6233 23.4483C18.2095 23.4483 17.9336 23.1724 17.9336 22.7586V17.931C17.9336 16.4137 19.175 15.1724 20.6922 15.1724C26.4163 14.6897 35.1749 13.931 35.7266 13.7931C36.968 13.5172 37.9335 12.3448 37.9335 11.0345V8.27591C37.9335 6.75864 36.6921 5.51731 35.1749 5.51731C34.7611 5.51731 34.4852 5.24145 34.4852 4.82763C34.4852 4.4138 34.7611 4.13794 35.1749 4.13794C37.4508 4.13794 39.3129 5.99997 39.3129 8.27591V11.0345C39.3129 13.0345 37.9336 14.7586 36.0026 15.1725C35.3819 15.3104 23.175 16.3449 20.7612 16.5518C19.9336 16.5518 19.3129 17.1725 19.3129 17.9311V22.7586C19.3129 23.1724 19.037 23.4483 18.6233 23.4483Z" fill="#34454E"/>
<path d="M23.4501 22.7585H13.7949L14.4846 26.2068H15.8639V37.2414C15.8639 38.7586 17.1053 40 18.6225 40C20.1397 40 21.3811 38.7585 21.3811 37.2414V26.2068H22.7604L23.4501 22.7585Z" fill="#2D93C7"/>
<path d="M33.7942 9.65516H4.13906C3.38047 9.65516 2.75977 9.03445 2.75977 8.27586V1.3793C2.75969 0.620703 3.38039 0 4.13906 0H33.7942C34.5528 0 35.1735 0.620703 35.1735 1.3793V8.27586C35.1735 9.03445 34.5528 9.65516 33.7942 9.65516Z" fill="#E0E0E0"/>
<path d="M2.76039 5.51731H1.38109C0.967266 5.51731 0.691406 5.24145 0.691406 4.82763C0.691406 4.4138 0.967266 4.13794 1.38109 4.13794H2.76039C3.17422 4.13794 3.45008 4.4138 3.45008 4.82763C3.45008 5.24145 3.17422 5.51731 2.76039 5.51731Z" fill="#C3C7CB"/>
<path d="M15.8633 34.4827H17.9323V33.1034H15.8633V34.4827Z" fill="#222D33"/>
<path d="M15.8633 37.2414H17.9323V35.8621H15.8633V37.2414Z" fill="#222D33"/>
<path d="M35.1738 2.06897H29.6565C29.2427 2.06897 28.9668 2.34483 28.9668 2.75866C28.9668 3.17249 29.2427 3.44834 29.6565 3.44834H35.1738V2.06897Z" fill="#C3C7CB"/>
<path d="M35.1738 6.20691H22.76C22.3462 6.20691 22.0703 6.48277 22.0703 6.8966C22.0703 7.31043 22.3462 7.58628 22.76 7.58628H35.1738V6.20691Z" fill="#C3C7CB"/>
<path d="M17.2426 2.06897H2.75977V3.44827H17.2426C17.6564 3.44827 17.9323 3.17241 17.9323 2.75858C17.9323 2.34475 17.6563 2.06897 17.2426 2.06897Z" fill="#C3C7CB"/>
<path d="M10.346 6.20691H2.75977V7.58621H10.3459C10.7598 7.58621 11.0356 7.31035 11.0356 6.89652C11.0356 6.48269 10.7598 6.20691 10.346 6.20691Z" fill="#C3C7CB"/>
</svg>
