<svg width="39" height="37" viewBox="0 0 39 37" fill="none" xmlns="http://www.w3.org/2000/svg">
<path d="M29.8018 35.9266L29.8208 35.5425C30.0327 35.553 30.2441 35.5156 30.4388 35.4333C30.6334 35.351 30.8061 35.2262 30.9438 35.0687C31.0815 34.9112 31.1807 34.7252 31.2344 34.5249C31.288 34.3247 31.2947 34.1151 31.2541 33.9119L31.2522 33.9023L31.2523 33.9023L29.3424 23.2733L29.2951 23.0096L29.4883 22.8241L37.3555 15.2738C37.3558 15.2735 37.3561 15.2733 37.3563 15.273C37.5404 15.0943 37.6694 14.8688 37.7296 14.6224C37.7898 14.3757 37.7788 14.1173 37.6975 13.8763C37.6163 13.6353 37.4679 13.421 37.2686 13.2581C37.0692 13.0952 36.8268 12.9905 36.5691 12.9566L36.5629 12.9558L36.563 12.9557L25.6877 11.3887L25.4293 11.3515L25.3122 11.1183L20.4567 1.45127L20.4542 1.4464L20.4543 1.44639C20.3396 1.21186 20.16 1.01319 19.9353 0.873806C19.7106 0.734391 19.4501 0.660156 19.1838 0.660156C18.9176 0.660156 18.6571 0.734391 18.4323 0.873806C18.2076 1.01319 18.028 1.21186 17.9134 1.44639L17.9123 1.44865L13.1185 11.1337L13.0019 11.3693L12.7416 11.4067L1.85521 12.9737L1.84912 12.9746L1.84912 12.9746C1.59139 13.0085 1.34907 13.1132 1.14965 13.2761C0.950282 13.439 0.801925 13.6533 0.720693 13.8943C0.639476 14.1353 0.628404 14.3937 0.688645 14.6404C0.748805 14.8868 0.877857 15.1123 1.06191 15.291C1.06218 15.2913 1.06245 15.2915 1.06272 15.2918L8.92896 22.8442L9.12216 23.0297L9.07479 23.2933L7.16502 33.922C7.11944 34.1765 7.14696 34.4387 7.24468 34.6789C7.34242 34.9192 7.50671 35.1284 7.71964 35.2821C7.93262 35.4359 8.18555 35.528 8.44974 35.5471C8.71393 35.5663 8.978 35.5118 9.21183 35.3902L9.21268 35.3898L18.953 30.3488L19.1828 30.2299L19.4126 30.3488L29.1492 35.3879C29.1497 35.3881 29.1503 35.3884 29.1508 35.3887C29.3503 35.4895 29.5715 35.5421 29.7961 35.5419C29.7972 35.5419 29.7983 35.5419 29.7995 35.5419M29.8018 35.9266L29.8012 35.9398L29.8008 35.9463L29.7995 35.5419M29.8018 35.9266L29.8012 35.5419L29.7995 35.5419M29.8018 35.9266L29.7995 35.5419" fill="#F5F7FA" stroke="#C5CDD9"/>
</svg>
