<svg width="41" height="40" viewBox="0 0 41 40" fill="none" xmlns="http://www.w3.org/2000/svg">
<path d="M30.8608 10.3621C30.8527 10.3621 30.8445 10.3621 30.8445 10.3621C27.5438 10.3294 28.0259 5.91767 28.0259 5.91767C28.1566 2.96832 30.6157 2.99283 30.8608 3.001C31.1059 2.99283 33.5651 2.96832 33.704 5.9095C33.704 5.9095 34.186 10.3213 30.8772 10.3539C30.8772 10.3621 30.869 10.3621 30.8608 10.3621Z" fill="#34454E"/>
<path d="M9.86084 10.3621C9.85267 10.3621 9.8445 10.3621 9.8445 10.3621C6.54385 10.3294 7.02587 5.91767 7.02587 5.91767C7.15659 2.96832 9.61574 2.99283 9.86084 3.001C10.1059 2.99283 12.5651 2.96832 12.704 5.9095C12.704 5.9095 13.186 10.3213 9.87718 10.3539C9.87718 10.3621 9.86901 10.3621 9.86084 10.3621Z" fill="#34454E"/>
<path d="M30.502 14.8792L28.5541 12C28.5541 12 27.1809 12.5918 26.0615 13.4796C25.7704 13.7115 25.6361 13.8475 25.3749 14.1274C24.7555 14.7912 25.0167 18.6381 25.3749 20.0457C25.7331 21.4533 26.7854 23.4767 26.7854 23.4767C26.9944 23.9886 27.1287 24.5404 27.1809 25.0923L28.5243 39.2082C28.569 39.6561 28.9198 40 29.3377 40H30.502H31.6662C32.0841 40 32.4423 39.6561 32.4796 39.2082L33.823 25.0923C33.8752 24.5324 34.0095 23.9886 34.2185 23.4767C34.2185 23.4767 35.2708 21.4613 35.629 20.0457C35.9872 18.6381 36.2484 14.7912 35.629 14.1274C35.3678 13.8475 35.2335 13.7115 34.9424 13.4796C33.823 12.5998 32.4498 12 32.4498 12L30.502 14.8792Z" fill="#34454E"/>
<path d="M9.50195 14.8792L7.55412 12C7.55412 12 6.18093 12.5918 5.06149 13.4796C4.77044 13.7115 4.6361 13.8475 4.3749 14.1274C3.75547 14.7912 4.01667 18.6381 4.3749 20.0457C4.73312 21.4533 5.7854 23.4767 5.7854 23.4767C5.99436 23.9886 6.12869 24.5404 6.18093 25.0923L7.52427 39.2082C7.56905 39.6561 7.91981 40 8.33773 40H9.50195H10.6662C11.0841 40 11.4423 39.6561 11.4796 39.2082L12.823 25.0923C12.8752 24.5324 13.0095 23.9886 13.2185 23.4767C13.2185 23.4767 14.2708 21.4613 14.629 20.0457C14.9872 18.6381 15.2484 14.7912 14.629 14.1274C14.3678 13.8475 14.2335 13.7115 13.9424 13.4796C12.823 12.5998 11.4498 12 11.4498 12L9.50195 14.8792Z" fill="#34454E"/>
<path d="M20.0073 8.10455C19.9992 8.10455 19.991 8.10455 19.991 8.10455C16.6903 8.07187 17.1724 3.6601 17.1724 3.6601C17.3031 0.710757 19.7622 0.735266 20.0073 0.743436C20.2524 0.735266 22.7116 0.710757 22.8505 3.65193C22.8505 3.65193 23.3325 8.0637 20.0237 8.09638C20.0237 8.10455 20.0155 8.10455 20.0073 8.10455Z" fill="#2D93C7"/>
<path d="M20.0083 13.5867L17.8759 10.6455C17.8759 10.6455 16.3727 11.2501 15.1472 12.1569C14.8285 12.3939 14.6815 12.5328 14.3955 12.8187C13.7174 13.4968 14.0034 17.4266 14.3955 18.8645C14.7877 20.3024 15.9397 22.3694 15.9397 22.3694C16.1684 22.8922 16.3155 23.456 16.3727 24.0197L17.8432 38.4396C17.8923 38.8971 18.2763 39.2484 18.7338 39.2484H20.0083H21.2828C21.7403 39.2484 22.1325 38.8971 22.1733 38.4396L23.6439 24.0197C23.7011 23.4478 23.8481 22.8922 24.0769 22.3694C24.0769 22.3694 25.2289 20.3105 25.621 18.8645C26.0132 17.4266 26.2991 13.4968 25.621 12.8187C25.3351 12.5328 25.188 12.3939 24.8694 12.1569C23.6439 11.2583 22.1406 10.6455 22.1406 10.6455L20.0083 13.5867Z" fill="#2D93C7"/>
<path d="M36.593 20.3267C36.2253 21.6666 35.2449 23.4722 35.0979 23.7499C34.9181 24.1666 34.8038 24.5996 34.7629 25.049L33.3822 38.5784C33.3005 39.3872 32.6224 39.9999 31.8054 39.9999H29.4198C28.6028 39.9999 27.9247 39.3872 27.843 38.5784L26.4623 25.049C26.4132 24.5914 26.2989 24.1421 26.1109 23.7254C25.9475 23.3496 26.1191 22.9166 26.4868 22.7532C26.8626 22.5898 27.2956 22.7614 27.459 23.129C27.7041 23.6927 27.8675 24.2891 27.9247 24.9019L29.3054 38.4313C29.3136 38.4803 29.3544 38.5212 29.4034 38.5212H31.789C31.8381 38.5212 31.8871 38.4803 31.8871 38.4313L33.2841 24.8937C33.3495 24.281 33.5047 23.6846 33.7498 23.1208C33.758 23.0963 33.7662 23.08 33.7825 23.0555C33.7907 23.0392 34.8201 21.1846 35.1632 19.9346C35.539 18.5375 35.6453 15.4983 35.3348 14.9591C35.0897 14.714 34.9835 14.6159 34.7302 14.428C34.0848 13.9542 33.3413 13.5702 32.8593 13.3414L31.209 15.6127C31.0701 15.8006 30.8495 15.915 30.6126 15.915C30.3756 15.915 30.1551 15.8006 30.0162 15.6127L28.0145 12.8594C27.7776 12.5326 27.8511 12.0669 28.1779 11.8218C28.5047 11.5849 28.9704 11.6584 29.2155 11.9852L30.6207 13.9133L32.0096 11.9934C32.2057 11.7156 32.5734 11.6176 32.8838 11.7401C32.941 11.7646 34.3953 12.3529 35.6044 13.2434C35.9475 13.4967 36.1109 13.6519 36.3969 13.9378C37.4426 14.9836 36.8626 19.33 36.593 20.3267Z" fill="#C5CDD9"/>
<path d="M30.6782 10.776C30.6618 10.776 30.6455 10.776 30.6291 10.776C30.621 10.776 30.6046 10.776 30.5965 10.776C30.5801 10.776 30.5638 10.776 30.5393 10.776C29.5915 10.7515 28.7909 10.4084 28.219 9.76297C27.0017 8.39042 27.1732 6.10284 27.2059 5.81689C27.3285 3.29238 29.085 2.40186 30.5474 2.40186C30.5719 2.40186 30.5965 2.40186 30.6128 2.40186C30.6291 2.40186 30.6536 2.40186 30.6782 2.40186C32.1406 2.40186 33.8889 3.30055 34.0197 5.81689C34.0442 6.10284 34.2239 8.39042 33.0066 9.76297C32.4265 10.4084 31.6259 10.7597 30.6782 10.776ZM32.5409 5.94761C32.5409 5.93127 32.5409 5.91493 32.5409 5.89859C32.4592 4.13388 31.3399 3.87244 30.6782 3.87244H30.6455C30.6291 3.87244 30.6046 3.87244 30.5883 3.87244H30.5556C29.8938 3.87244 28.7746 4.13388 28.6929 5.89859C28.6929 5.91493 28.6929 5.93127 28.6929 5.93944C28.6357 6.46231 28.652 7.99009 29.3465 8.7744C29.6487 9.11754 30.0654 9.28911 30.6128 9.28911C30.621 9.28911 30.621 9.28911 30.6291 9.28911C31.1765 9.28094 31.5932 9.11754 31.8955 8.7744C32.5817 7.99826 32.5899 6.47048 32.5409 5.94761Z" fill="#C5CDD9"/>
<path d="M13.5204 22.7451C13.8962 22.9085 14.0678 23.3497 13.8962 23.7174C13.7083 24.1422 13.5939 24.5834 13.5449 25.0409L12.1642 38.5703C12.0825 39.3791 11.4044 39.9919 10.5874 39.9919H8.20175C7.38476 39.9919 6.70666 39.3791 6.62496 38.5703L5.24424 25.0409C5.19522 24.5915 5.08901 24.1585 4.90927 23.7419C4.76221 23.4723 3.77365 21.6667 3.41417 20.3187C3.14456 19.3219 2.55633 14.9755 3.60208 13.9298C3.88803 13.6438 4.05143 13.4886 4.39456 13.2353C5.60371 12.3448 7.04979 11.7566 7.11515 11.7321C7.43378 11.6013 7.79326 11.7076 7.98933 11.9853L9.39456 13.9134L10.808 11.9935C11.0449 11.6585 11.5106 11.5932 11.8455 11.8301C12.1723 12.067 12.2459 12.5327 12.0089 12.8677L10.0073 15.6209C9.86842 15.8089 9.64783 15.9232 9.4109 15.9232C9.17397 15.9232 8.95339 15.8089 8.8145 15.6209L7.16417 13.3497C6.68214 13.5785 5.93868 13.9625 5.29326 14.4363C5.04816 14.616 4.94195 14.7223 4.68868 14.9674C4.37822 15.5066 4.48443 18.5458 4.86025 19.9428C5.20339 21.1928 6.2328 23.0474 6.24097 23.0638C6.24914 23.0801 6.26548 23.1046 6.27365 23.1291C6.51875 23.6928 6.68215 24.2892 6.73934 24.902L8.12005 38.4314C8.12822 38.4804 8.16907 38.5213 8.21809 38.5213H10.6037C10.6527 38.5213 10.7018 38.4804 10.7018 38.4314L12.0825 24.902C12.1478 24.2892 12.3031 23.6928 12.5482 23.1291C12.7116 22.7451 13.1446 22.5817 13.5204 22.7451Z" fill="#C5CDD9"/>
<path d="M9.47734 10.776C9.461 10.776 9.44466 10.776 9.42015 10.776C9.41198 10.776 9.39564 10.776 9.38747 10.776C9.37113 10.776 9.35479 10.776 9.33845 10.776C8.39073 10.7597 7.59008 10.4084 7.01002 9.76297C5.7927 8.39042 5.96426 6.10284 5.99694 5.81689C6.11949 3.29238 7.86786 2.40186 9.33845 2.40186C9.36296 2.40186 9.38747 2.40186 9.40381 2.40186C9.42015 2.40186 9.44466 2.40186 9.46917 2.40186C10.9316 2.40186 12.68 3.30055 12.8107 5.81689C12.8352 6.10284 13.0149 8.39042 11.7976 9.76297C11.2257 10.4084 10.425 10.7515 9.47734 10.776ZM11.3401 5.94761C11.3401 5.93127 11.3401 5.91493 11.3401 5.89859C11.2584 4.13388 10.1391 3.87244 9.47734 3.87244H9.44466C9.42832 3.87244 9.40381 3.87244 9.38747 3.87244H9.35479C8.69302 3.87244 7.57374 4.13388 7.49204 5.89859C7.49204 5.91493 7.49204 5.93127 7.49204 5.93944C7.43485 6.46231 7.45119 7.99009 8.14564 8.7744C8.44792 9.11754 8.86459 9.28094 9.41198 9.28911C9.42015 9.28911 9.42015 9.28911 9.42832 9.28911C9.9757 9.28094 10.3924 9.11754 10.6947 8.7744C11.3809 7.99826 11.3891 6.47048 11.3401 5.94761Z" fill="#C5CDD9"/>
<path d="M26.1438 12.2957C27.2468 13.3987 26.6259 17.9983 26.3317 19.0604C25.9396 20.4902 24.8938 22.4183 24.7386 22.696C24.5425 23.1454 24.42 23.6111 24.3709 24.0931L22.9004 38.513C22.8187 39.3545 22.116 39.9836 21.2664 39.9836H18.7255C17.884 39.9836 17.1814 39.3464 17.0915 38.513L15.6209 24.0931C15.5719 23.6111 15.4494 23.1372 15.2533 22.696C15.0981 22.4101 14.0523 20.4902 13.6602 19.0604C13.3742 17.9983 12.7451 13.3987 13.8481 12.2957C14.1504 11.9934 14.3219 11.83 14.6814 11.5604C15.9641 10.6127 17.5082 9.99179 17.5736 9.95911C17.8922 9.82839 18.2517 9.9346 18.4477 10.2124L20.0082 12.3284L21.5442 10.2124C21.7402 9.9346 22.1079 9.83656 22.4183 9.95911C22.4837 9.98362 24.0196 10.6127 25.3105 11.5604C25.67 11.83 25.8497 11.9934 26.1438 12.2957ZM25.0817 13.3251C24.8121 13.0555 24.6977 12.9493 24.4281 12.7532C23.7255 12.2304 22.9085 11.8137 22.3857 11.5686L20.6046 14.0196C20.4657 14.2075 20.2451 14.3219 20.0082 14.3219C19.7713 14.3219 19.5507 14.2075 19.4118 14.0196L17.6308 11.5686C17.116 11.8137 16.2991 12.2304 15.5883 12.7532C15.3187 12.9493 15.2043 13.0555 14.9347 13.3251C14.5915 13.8807 14.6977 17.1568 15.1144 18.6683C15.4821 20.0081 16.5768 21.9853 16.5932 22.0016C16.6013 22.0179 16.6177 22.0424 16.6259 22.067C16.8873 22.6634 17.0589 23.2924 17.1242 23.946L18.5948 38.366C18.603 38.4477 18.6683 38.5049 18.75 38.5049H21.2909C21.3726 38.5049 21.4379 38.4477 21.4461 38.366L22.9167 23.946C22.9821 23.3006 23.1455 22.6634 23.4151 22.067C23.4232 22.0424 23.4314 22.0261 23.4477 22.0016C23.4559 21.9853 24.5589 20 24.9265 18.6601C25.3187 17.1568 25.4249 13.8807 25.0817 13.3251Z" fill="#34454E"/>
<path d="M20.0813 8.83987C20.065 8.83987 20.0404 8.83987 20.0241 8.83987C20.0159 8.83987 19.9914 8.83987 19.9833 8.83987C19.9669 8.83987 19.9506 8.83987 19.9342 8.83987C18.9212 8.82353 18.1042 8.46405 17.4914 7.76961C16.2006 6.32353 16.3967 3.88889 16.4212 3.59477C16.5519 0.939542 18.3901 0 19.9342 0C19.9588 0 19.9833 0 20.0078 0C20.0241 0 20.0486 0 20.0813 0C21.6172 0 23.4637 0.939542 23.5944 3.59477C23.6189 3.88889 23.815 6.31536 22.5241 7.76144C21.9114 8.45588 21.0862 8.81536 20.0813 8.83987ZM22.1156 3.73366C22.1156 3.71732 22.1156 3.70098 22.1156 3.68464C22.0257 1.69118 20.6614 1.47876 20.0813 1.47876H20.0404C20.0241 1.47876 19.9996 1.47876 19.9833 1.47876H19.9424C19.3623 1.47876 17.998 1.69118 17.9081 3.68464C17.9081 3.70098 17.9081 3.71732 17.9081 3.72549C17.8509 4.28922 17.8591 5.93954 18.6107 6.78105C18.9457 7.15686 19.4032 7.34477 19.9996 7.34477C20.0078 7.34477 20.0159 7.34477 20.0241 7.34477C20.6205 7.3366 21.078 7.15686 21.413 6.78105C22.1646 5.94771 22.1728 4.29739 22.1156 3.73366Z" fill="#34454E"/>
</svg>
