<svg width="41" height="40" viewBox="0 0 41 40" fill="none" xmlns="http://www.w3.org/2000/svg">
<path d="M37.6645 18.4805H2.33984V22.6363H37.6645V18.4805Z" fill="#4D6572"/>
<path d="M37.6634 18.4805H31.4297V22.6363H37.6634V18.4805Z" fill="#34454E"/>
<path d="M3.37891 18.4804L4.73547 8.30592C5.14836 5.20896 7.79023 2.896 10.9146 2.896H29.09C32.2144 2.896 34.8561 5.20897 35.2691 8.30584L36.6257 18.4804" fill="#DFE1E5"/>
<path d="M35.2686 8.30584C34.8557 5.20881 32.2139 2.896 29.0895 2.896H24.9336C28.058 2.896 30.6997 5.20897 31.1127 8.30584L32.4693 18.4804H36.6252L35.2686 8.30584Z" fill="#C5CDD9"/>
<path d="M3.37891 22.6362L4.73547 32.8108C5.14836 35.9079 7.79016 38.2207 10.9146 38.2207H29.09C32.2144 38.2207 34.8561 35.9077 35.2691 32.8108L36.6257 22.6363H3.37891V22.6362Z" fill="#34454E"/>
<path d="M31.4302 22.6362L30.0737 32.8108C29.6608 35.9079 27.0191 38.2207 23.8945 38.2207H29.0893C32.2137 38.2207 34.8554 35.9077 35.2684 32.8108L36.625 22.6363H31.4302V22.6362Z" fill="#4D6572"/>
<path d="M19.8984 5.23364C19.468 5.23364 19.1191 5.58239 19.1191 6.01286V15.3635C19.1191 15.794 19.468 16.1427 19.8984 16.1427C20.3288 16.1427 20.6776 15.794 20.6776 15.3635V6.01286C20.6776 5.58247 20.3288 5.23364 19.8984 5.23364Z" fill="#34454E"/>
<path d="M29.0155 5.23364C28.5851 5.23364 28.2363 5.58239 28.2363 6.01286V15.3635C28.2363 15.794 28.5851 16.1427 29.0155 16.1427C29.446 16.1427 29.7948 15.794 29.7948 15.3635V6.01286C29.7948 5.58247 29.4459 5.23364 29.0155 5.23364Z" fill="#34454E"/>
<path d="M24.457 5.23364C24.0265 5.23364 23.6777 5.58239 23.6777 6.01286V15.3635C23.6777 15.794 24.0265 16.1427 24.457 16.1427C24.8874 16.1427 25.2362 15.794 25.2362 15.3635V6.01286C25.2362 5.58247 24.8873 5.23364 24.457 5.23364Z" fill="#34454E"/>
<path d="M10.7812 5C10.3509 5 10.002 5.34875 10.002 5.77922V15.1298C10.002 15.5603 10.3509 15.9091 10.7812 15.9091C11.2116 15.9091 11.5604 15.5603 11.5604 15.1298V5.77922C11.5604 5.34883 11.2116 5 10.7812 5Z" fill="#34454E"/>
<path d="M15.3398 5C14.9093 5 14.5605 5.34875 14.5605 5.77922V15.1298C14.5605 15.5603 14.9093 15.9091 15.3398 15.9091C15.7702 15.9091 16.119 15.5603 16.119 15.1298V5.77922C16.119 5.34883 15.7702 5 15.3398 5Z" fill="#34454E"/>
<path d="M20.0018 34.9999C18.2992 34.9999 16.9141 33.5974 16.9141 31.8744C16.9141 30.1515 18.2991 28.7498 20.0018 28.7498C21.7046 28.7498 23.0897 30.1515 23.0897 31.8744C23.0897 33.5974 21.7045 34.9999 20.0018 34.9999Z" fill="#6EB925"/>
<path d="M20.0014 28.1246C19.15 28.1246 18.457 27.4238 18.457 26.5623C18.457 25.7009 19.15 25 20.0014 25C20.8527 25 21.5457 25.7009 21.5457 26.5623C21.5457 27.4238 20.8527 28.1246 20.0014 28.1246Z" fill="#6EB925"/>
<path d="M16.5458 29.3147C16.1333 29.3147 15.7451 29.1523 15.4539 28.857C14.8513 28.2478 14.8513 27.2563 15.4539 26.6474C15.7452 26.3522 16.1333 26.1897 16.5458 26.1897C16.9575 26.1897 17.3456 26.3522 17.6369 26.6474C18.2394 27.2567 18.2394 28.2478 17.6369 28.857C17.3456 29.1523 16.9575 29.3147 16.5458 29.3147Z" fill="#6EB925"/>
<path d="M23.4584 29.3147C23.0459 29.3147 22.6586 29.1523 22.3664 28.857C22.0751 28.5618 21.9141 28.1695 21.9141 27.7521C21.9141 27.3351 22.0751 26.9423 22.3664 26.6474C22.6586 26.3522 23.0459 26.1897 23.4584 26.1897C23.8709 26.1897 24.259 26.3522 24.5503 26.6474C24.8416 26.9422 25.0026 27.335 25.0026 27.7521C25.0026 28.1695 24.8416 28.5618 24.5503 28.857C24.2591 29.1523 23.8709 29.3147 23.4584 29.3147Z" fill="#6EB925"/>
</svg>
