<svg width="22" height="12" viewBox="0 0 22 12" fill="none" xmlns="http://www.w3.org/2000/svg">
<path d="M3.6 7.2C5.58823 7.2 7.2 5.58823 7.2 3.6C7.2 1.61177 5.58823 0 3.6 0C1.61177 0 0 1.61177 0 3.6C0 5.58823 1.61177 7.2 3.6 7.2Z" fill="black"/>
<path fill-rule="evenodd" clip-rule="evenodd" d="M3.82392 3.22371L3.19672 3.22163H2.47405C2.23175 3.14095 2.02441 2.96544 1.95296 2.71561C1.93177 2.64153 1.90328 2.54103 1.9322 2.46883C1.94982 2.42482 2.00377 2.40476 2.04846 2.40454C2.31834 2.40318 2.58824 2.40295 2.85813 2.40246C3.35431 2.40157 3.3494 2.40039 3.84558 2.40039C4.11814 2.40039 4.34474 2.41203 4.58718 2.53312C4.77292 2.62589 4.91535 2.75106 5.03977 2.90641C5.14587 3.0389 5.20798 3.19902 5.24945 3.36473C5.38133 3.89169 5.06846 4.38735 4.63285 4.64844C4.52041 4.71583 4.37875 4.75379 4.25086 4.77701C3.71159 4.87496 3.32141 4.66411 3.15425 4.16316L3.82392 4.16108C3.88461 4.16087 3.88461 4.05324 3.82392 4.05324C3.82392 4.05324 3.43317 4.05393 3.14944 4.05324C3.09215 4.05311 3.00494 3.99967 2.95872 3.97197C2.76516 3.85596 2.6259 3.68038 2.56198 3.45691C2.55163 3.42072 2.53492 3.36792 2.53492 3.33155L3.82392 3.33362C3.88461 3.33375 3.88461 3.22381 3.82392 3.22371Z" fill="white"/>
<rect x="12" width="9.6" height="1.2" rx="0.6" fill="black"/>
<rect x="14.3984" y="2.40039" width="7.2" height="1.2" rx="0.6" fill="black"/>
<rect x="12" y="4.7998" width="9.6" height="1.2" rx="0.6" fill="black"/>
<rect y="8.40039" width="21.6" height="3.6" rx="1.8" fill="#6EB925"/>
<rect x="8.39844" y="9.59961" width="4.8" height="1.2" rx="0.6" fill="white"/>
</svg>
