<svg width="25" height="24" viewBox="0 0 25 24" fill="none" xmlns="http://www.w3.org/2000/svg">
<g clip-path="url(#clip0_623_1197)">
<rect x="1.00195" y="2" width="22" height="20" rx="3" fill="#F5F7FA" stroke="#C5CDD9" stroke-width="0.5"/>
<path d="M6.00195 10C7.65881 10 9.00195 8.65685 9.00195 7C9.00195 5.34315 7.65881 4 6.00195 4C4.3451 4 3.00195 5.34315 3.00195 7C3.00195 8.65685 4.3451 10 6.00195 10Z" fill="black"/>
<path fill-rule="evenodd" clip-rule="evenodd" d="M6.18823 6.6861L5.66556 6.68437H5.06334C4.86142 6.61713 4.68864 6.47087 4.62909 6.26269C4.61143 6.20095 4.5877 6.1172 4.61179 6.05703C4.62648 6.02036 4.67144 6.00364 4.70867 6.00346C4.93358 6.00232 5.15849 6.00213 5.3834 6.00173C5.79689 6.00098 5.79279 6 6.20628 6C6.43341 6 6.62224 6.0097 6.82427 6.1106C6.97906 6.18792 7.09775 6.29222 7.20143 6.42168C7.28985 6.53209 7.34161 6.66552 7.37617 6.80361C7.48607 7.24275 7.22534 7.6558 6.86234 7.87337C6.76864 7.92953 6.65058 7.96116 6.54401 7.98052C6.09462 8.06214 5.76947 7.88643 5.63017 7.46897L6.18823 7.46724C6.2388 7.46707 6.2388 7.37738 6.18823 7.37738C6.18823 7.37738 5.8626 7.37795 5.62616 7.37738C5.57842 7.37726 5.50575 7.33273 5.46723 7.30965C5.30593 7.21297 5.18988 7.06666 5.13661 6.88044C5.12798 6.85027 5.11406 6.80628 5.11406 6.77596L6.18823 6.77769C6.2388 6.7778 6.2388 6.68618 6.18823 6.6861Z" fill="white"/>
<rect x="3.25195" y="13.25" width="17.5" height="2.5" rx="1.25" fill="#F5F7FA" stroke="#C5CDD9" stroke-width="0.5"/>
<rect x="13.002" y="4" width="8" height="1" rx="0.5" fill="black"/>
<rect x="15.002" y="6" width="6" height="1" rx="0.5" fill="black"/>
<rect x="13.002" y="8" width="8" height="1" rx="0.5" fill="black"/>
<rect x="3.00195" y="17" width="18" height="3" rx="1.5" fill="#6EB925"/>
<rect x="10.002" y="18" width="4" height="1" rx="0.5" fill="white"/>
<rect x="10.002" y="14" width="4" height="1" rx="0.5" fill="#2D93C7"/>
</g>
<defs>
<clipPath id="clip0_623_1197">
<rect width="24" height="24" fill="white" transform="translate(0.00195312)"/>
</clipPath>
</defs>
</svg>
