<svg width="20" height="21" viewBox="0 0 20 21" fill="none" xmlns="http://www.w3.org/2000/svg">
<path d="M14.166 17.194H5.83268V18.0273C5.83268 18.4876 5.45958 18.8607 4.99935 18.8607H4.16602C3.70578 18.8607 3.33268 18.4876 3.33268 18.0273V17.194H2.49935V10.5273H1.66602V7.19401H2.49935V4.69401C2.49935 3.77354 3.24554 3.02734 4.16602 3.02734H15.8327C16.7532 3.02734 17.4993 3.77354 17.4993 4.69401V7.19401H18.3327V10.5273H17.4993V17.194H16.666V18.0273C16.666 18.4876 16.2929 18.8607 15.8327 18.8607H14.9993C14.5391 18.8607 14.166 18.4876 14.166 18.0273V17.194ZM15.8327 10.5273V4.69401H4.16602V10.5273H15.8327ZM15.8327 12.194H4.16602V15.5273H15.8327V12.194ZM4.99935 13.0273H8.33268V14.694H4.99935V13.0273ZM11.666 13.0273H14.9993V14.694H11.666V13.0273Z" fill="white"/>
</svg>
