<svg width="41" height="40" viewBox="0 0 41 40" fill="none" xmlns="http://www.w3.org/2000/svg">
<path d="M19.9879 2.42667C16.6679 2.42667 14.089 1.21333 12.9102 0V16.9911H27.0668V0C25.8868 1.21333 23.3346 2.42667 19.9879 2.42667Z" fill="#707487"/>
<path d="M32.1233 8.84222V3.52C32.1233 2.31667 31.3744 1.26889 30.3066 0.976667L26.7299 0L19.9888 16.21L13.2477 0L9.67106 0.976667C8.60328 1.26889 7.85439 2.31778 7.85439 3.52V8.84111C7.85439 12.9111 4.83661 16.21 1.11328 16.21V37.3611C1.11328 38.7011 2.16995 39.7889 3.47217 39.7889H16.6177C18.4788 39.7889 19.9888 38.1389 19.9888 36.1044C19.9888 38.1389 21.4977 39.7889 23.3599 39.7889H36.5055C37.8088 39.7889 38.8655 38.7022 38.8655 37.3611V16.21C35.1411 16.21 32.1233 12.9111 32.1233 8.84222Z" fill="#34454E"/>
<path d="M1.11328 32.2222H19.9888V35.5556H1.11328V32.2222ZM38.8644 35.5556H19.9888V32.2222H38.8644V35.5556ZM1.11328 24.4445H19.9888V27.7778H1.11328V24.4445ZM38.8644 27.7778H19.9888V24.4445H38.8644V27.7778Z" fill="#FECD57"/>
<path d="M13.3353 25.5556V0.211111L13.2475 0L10.002 0.886667V25.5556H13.3353ZM30.002 25.5556V0.894444L26.7297 0L26.6686 0.147778V25.5556H30.002Z" fill="#FECD57"/>
<path d="M18.8086 12.2222V38.8833C19.1844 38.5251 19.483 38.0938 19.686 37.6158C19.8889 37.1379 19.9919 36.6236 19.9886 36.1044C19.9886 37.1922 20.4275 38.1588 21.113 38.8333V12.2222H18.8086Z" fill="#707487"/>
</svg>
