<svg width="41" height="40" viewBox="0 0 41 40" fill="none" xmlns="http://www.w3.org/2000/svg">
<g clip-path="url(#clip0_623_1225)">
<path d="M14.8804 11.5167L17.0508 8.33557L18.4277 9.27429L16.2574 12.456C15.9986 12.8363 15.4798 12.9339 15.099 12.6745C14.7193 12.4157 14.6217 11.8969 14.8804 11.5167Z" fill="#34454E"/>
<path d="M9.58558 8.00111V4.44518C10.9587 2.80828 15.7928 0 20.4179 0C24.7515 0 27.918 3.91658 27.918 8.33559H24.5855V15.0006H17.918V9.77907L9.58558 8.00111Z" fill="#CBD0D8"/>
<path d="M16.9621 14.6991C17.4882 13.9484 18.6688 13.3337 19.5855 13.3337H22.9179C23.8347 13.3337 25.0152 13.9483 25.5401 14.6991L29.4622 20.3021C29.9883 21.0528 30.418 22.417 30.418 23.3337V38.3325C30.418 39.2505 29.6684 40 28.7518 40H13.7518C12.8351 40 12.0856 39.2505 12.0856 38.3325V23.3337C12.0856 22.417 12.5152 21.0528 13.0413 20.3021L16.9621 14.6991Z" fill="#E5E8EC"/>
<path d="M30.418 38.3326C30.418 39.2506 29.6684 40 28.7518 40H13.7518C12.8351 40 12.0856 39.2506 12.0856 38.3326V29.1676H30.418V38.3326Z" fill="#2D93C7"/>
<path d="M24.8235 33.3337H30.418V35H24.8235C24.3633 35 23.991 34.6265 23.991 34.1675C23.991 33.7061 24.3634 33.3337 24.8235 33.3337Z" fill="#34454E"/>
<path d="M24.8235 29.1676H30.418V30.8338H24.8235C24.3633 30.8338 23.991 30.4603 23.991 30C23.991 29.5398 24.3634 29.1676 24.8235 29.1676Z" fill="#34454E"/>
<path d="M23.7517 25.8338C23.7517 25.3736 24.1252 25 24.5855 25H30.418V26.6675H24.5855C24.1253 26.6675 23.7517 26.294 23.7517 25.8338Z" fill="#34454E"/>
<path d="M12.918 2.03491V8.7121L9.58547 8.00103V4.44518C10.1678 3.75122 11.3712 2.84672 12.918 2.03491Z" fill="#2D93C7"/>
</g>
<defs>
<clipPath id="clip0_623_1225">
<rect width="40" height="40" fill="white" transform="matrix(-1 0 0 1 40.002 0)"/>
</clipPath>
</defs>
</svg>
