<svg width="16" height="16" viewBox="0 0 16 16" fill="none" xmlns="http://www.w3.org/2000/svg">
<path d="M12.4446 15.9965C12.3166 15.9969 12.1903 15.965 12.0764 15.9036L7.98805 13.6558L3.89968 15.9036C3.76695 15.9768 3.61735 16.0093 3.46788 15.9977C3.3184 15.986 3.17502 15.9306 3.05402 15.8377C2.93302 15.7448 2.83925 15.6182 2.78334 15.4721C2.72743 15.3261 2.71163 15.1665 2.73773 15.0115L3.53946 10.2723L0.236892 6.90559C0.131221 6.7968 0.0567798 6.65904 0.0220539 6.50798C-0.012672 6.35693 -0.00628571 6.19867 0.0404847 6.05124C0.087255 5.90382 0.172528 5.77315 0.286584 5.67415C0.40064 5.57514 0.53889 5.51178 0.685576 5.49127L5.2545 4.79249L7.2668 0.47423C7.33252 0.33207 7.43502 0.212204 7.56256 0.12834C7.69011 0.0444755 7.83756 0 7.98805 0C8.13853 0 8.28598 0.0444755 8.41353 0.12834C8.54107 0.212204 8.64357 0.33207 8.70929 0.47423L10.7455 4.78412L15.3144 5.48291C15.4611 5.50341 15.5994 5.56677 15.7134 5.66578C15.8275 5.76479 15.9127 5.89545 15.9595 6.04287C16.0063 6.1903 16.0127 6.34856 15.9779 6.49961C15.9432 6.65067 15.8688 6.78844 15.7631 6.89722L12.4605 10.264L13.2623 15.0032C13.2849 15.1272 13.2805 15.2551 13.2493 15.3771C13.2182 15.4991 13.1611 15.6121 13.0825 15.7077C13.0038 15.8033 12.9055 15.8789 12.7951 15.9289C12.6846 15.979 12.5648 16.0021 12.4446 15.9965V15.9965Z" fill="#FFE818"/>
</svg>
