<svg width="41" height="40" viewBox="0 0 41 40" fill="none" xmlns="http://www.w3.org/2000/svg">
<g clip-path="url(#clip0_623_1483)">
<path d="M22.2396 37.7632H17.7659L16.8887 24.2532H23.1168L22.2396 37.7632Z" fill="#DFE1E5"/>
<path d="M20.002 37.7632H22.2388L23.116 24.2532H20.002V37.7632Z" fill="#C5CDD9"/>
<path d="M15.7483 22.8509L2.23828 21.7983V18.2018L15.7483 16.886V22.8509Z" fill="#DFE1E5"/>
<path d="M37.7659 21.7983L24.2559 22.8509V16.886L37.7659 18.2018V21.7983Z" fill="#C5CDD9"/>
<path d="M20.002 40C14.6598 40 9.63727 37.9197 5.85977 34.1421C2.08227 30.3647 0.00195312 25.3422 0.00195312 20C0.00195312 14.6578 2.08227 9.63531 5.85977 5.85789C9.63727 2.08031 14.6598 0 20.002 0C25.3441 0 30.3666 2.08031 34.1441 5.85789C37.9216 9.63531 40.002 14.6578 40.002 20C40.002 25.3422 37.9216 30.3646 34.1441 34.1421C30.3666 37.9197 25.3441 40 20.002 40ZM20.002 4.47367C11.4407 4.47367 4.47563 11.4388 4.47563 20C4.47563 28.5613 11.4407 35.5263 20.002 35.5263C28.5632 35.5263 35.5283 28.5613 35.5283 20C35.5283 11.4388 28.5632 4.47367 20.002 4.47367Z" fill="#34454E"/>
<path d="M20.0017 26.49C16.4231 26.49 13.5117 23.5786 13.5117 20C13.5117 16.4214 16.4231 13.51 20.0017 13.51C23.5803 13.51 26.4917 16.4214 26.4917 20C26.4917 23.5786 23.5803 26.49 20.0017 26.49Z" fill="#34454E"/>
<path d="M35.5283 20C35.5283 28.5613 28.5632 35.5263 20.002 35.5263V40C25.3441 40 30.3666 37.9197 34.1441 34.1421C37.9216 30.3647 40.002 25.3422 40.002 20C40.002 14.6578 37.9216 9.63531 34.1441 5.85789C30.3666 2.08031 25.3441 0 20.002 0V4.47367C28.5632 4.47367 35.5283 11.4388 35.5283 20Z" fill="black"/>
<path d="M26.492 20C26.492 16.4214 23.5805 13.51 20.002 13.51V26.49C23.5805 26.49 26.492 23.5786 26.492 20Z" fill="black"/>
<path d="M20.0016 22.1931C18.7923 22.1931 17.8086 21.2093 17.8086 20.0001C17.8086 18.7909 18.7923 17.8071 20.0016 17.8071C21.2108 17.8071 22.1945 18.7909 22.1945 20.0001C22.1945 21.2093 21.2108 22.1931 20.0016 22.1931Z" fill="#2D93C7"/>
<path d="M22.1949 20C22.1949 18.7908 21.2112 17.807 20.002 17.807V22.1929C21.2112 22.1929 22.1949 21.2092 22.1949 20Z" fill="#FECD57"/>
</g>
<defs>
<clipPath id="clip0_623_1483">
<rect width="40" height="40" fill="white" transform="translate(0.00195312)"/>
</clipPath>
</defs>
</svg>
