<svg width="41" height="35" viewBox="0 0 41 35" fill="none" xmlns="http://www.w3.org/2000/svg">
<path d="M40.002 9.61061V31.3451C40.002 32.2675 39.6355 33.1522 38.9833 33.8044C38.331 34.4567 37.4464 34.8231 36.5239 34.8231H3.47999C2.55756 34.8231 1.6729 34.4567 1.02065 33.8044C0.368388 33.1522 0.00195313 32.2675 0.00195312 31.3451V9.61061C0.00195313 8.68817 0.368388 7.80353 1.02065 7.15127C1.6729 6.49901 2.55756 6.13257 3.47999 6.13257H36.5239C37.4464 6.13257 38.331 6.49901 38.9833 7.15127C39.6355 7.80353 40.002 8.68817 40.002 9.61061Z" fill="#BCC4C8"/>
<path d="M40.002 13.9639V31.3502C40.002 32.2726 39.6355 33.1572 38.9833 33.8095C38.331 34.4618 37.4464 34.8282 36.5239 34.8282H3.47999C2.55756 34.8282 1.6729 34.4618 1.02065 33.8095C0.368388 33.1572 0.00195313 32.2726 0.00195313 31.3502L0.00195312 13.9639H40.002ZM10.4374 4.34819H29.573V0H10.4374V4.34819Z" fill="#1C3C50"/>
<path d="M13.2801 12.9295H9.05273V2.58605L10.7434 0H13.2801V12.9295ZM31.0329 2.58605L29.3422 0H26.8055V12.9295H31.0329V2.58605Z" fill="#34454E"/>
<path d="M40.002 14.8289V31.3502C40.002 32.2726 39.6355 33.1573 38.9833 33.8095C38.331 34.4618 37.4464 34.8282 36.5239 34.8282H3.47999C2.55756 34.8282 1.6729 34.4618 1.02065 33.8095C0.368388 33.1573 0.00195313 32.2726 0.00195313 31.3502L0.00195312 14.8289H40.002Z" fill="#2D93C7"/>
<path d="M40.002 15.6978V31.3502C40.002 32.2726 39.6355 33.1573 38.9833 33.8096C38.331 34.4618 37.4464 34.8283 36.5239 34.8283H3.47999C2.55756 34.8283 1.6729 34.4618 1.02065 33.8096C0.368388 33.1573 0.00195313 32.2726 0.00195313 31.3502L0.00195312 15.6978H40.002Z" fill="#EBEEEF"/>
<path d="M22.1771 11.3495H17.829C17.7137 11.3495 17.6032 11.3037 17.5218 11.2222C17.4403 11.1408 17.3945 11.0303 17.3945 10.9151V10.0449C17.3945 9.92968 17.4403 9.8192 17.5218 9.73772C17.6032 9.65625 17.7137 9.61047 17.829 9.61047H22.1771C22.2924 9.61047 22.4029 9.65625 22.4843 9.73772C22.5658 9.8192 22.6116 9.92968 22.6116 10.0449V10.9151C22.6116 11.0303 22.5658 11.1408 22.4843 11.2222C22.4029 11.3037 22.2924 11.3495 22.1771 11.3495Z" fill="#2D93C7"/>
</svg>
