<svg width="20" height="20" viewBox="0 0 20 20" fill="none" xmlns="http://www.w3.org/2000/svg">
<path d="M11.9117 5.3808C11.9464 5.39526 11.9825 5.40219 12.0178 5.40219C12.127 5.40219 12.2303 5.33748 12.2748 5.23051L12.6998 4.20355C12.7584 4.06188 12.6911 3.89938 12.5492 3.84076C12.4075 3.78213 12.245 3.84938 12.1864 3.99131L11.7614 5.01798C11.7028 5.15968 11.77 5.32218 11.9117 5.3808Z" fill="black" stroke="black" stroke-width="0.5"/>
<path d="M9.99915 5.55579C7.54858 5.55579 5.55469 7.54968 5.55469 10.0002C5.55469 12.4508 7.54858 14.4447 9.99915 14.4447C12.45 14.4447 14.4436 12.4508 14.4436 10.0002C14.4436 7.54968 12.45 5.55579 9.99915 5.55579ZM9.99915 13.8892C7.85496 13.8892 6.11022 12.1447 6.11022 10.0002C6.11022 7.8558 7.85496 6.11132 9.99915 6.11132C12.1436 6.11132 13.8881 7.85577 13.8881 10.0002C13.8881 12.1447 12.1436 13.8892 9.99915 13.8892Z" fill="black" stroke="black" stroke-width="0.5"/>
<path d="M12.764 3.32825C12.7984 3.34241 12.8343 3.34934 12.8696 3.34934C12.9788 3.34934 13.0824 3.28434 13.1265 3.17685L13.5896 2.05018C13.6479 1.90822 13.5801 1.74601 13.4382 1.68768C13.2965 1.62905 13.134 1.69712 13.0757 1.83908L12.6126 2.96575C12.5546 3.10771 12.622 3.26991 12.764 3.32825Z" fill="black" stroke="black" stroke-width="0.5"/>
<path d="M6.87114 3.17687C6.91557 3.28409 7.01892 3.3491 7.12836 3.3491C7.16336 3.3491 7.1992 3.34243 7.23393 3.32801C7.3756 3.26967 7.44337 3.10743 7.38504 2.96551L6.92143 1.83907C6.8631 1.69711 6.70115 1.62907 6.55893 1.68767C6.41697 1.74629 6.34949 1.9085 6.40753 2.05017L6.87114 3.17687Z" fill="black" stroke="black" stroke-width="0.5"/>
<path d="M9.99847 5.00001C10.1521 5.00001 10.2762 4.87557 10.2762 4.72225V2.77777C10.2762 2.62445 10.1521 2.5 9.99847 2.5C9.84515 2.5 9.7207 2.62445 9.7207 2.77777V4.72221C9.7207 4.87557 9.84515 5.00001 9.99847 5.00001Z" fill="black" stroke="black" stroke-width="0.5"/>
<path d="M7.29867 4.20396L7.72397 5.23062C7.7684 5.33756 7.87176 5.40201 7.98064 5.40201C8.01619 5.40201 8.05232 5.39508 8.08702 5.38088C8.22869 5.322 8.29591 5.1595 8.23732 5.01783L7.81176 3.99116C7.75287 3.84949 7.59063 3.78227 7.44897 3.84087C7.30701 3.89979 7.23979 4.062 7.29867 4.20396Z" fill="black" stroke="black" stroke-width="0.5"/>
<path d="M15.2778 9.72229C15.1244 9.72229 15 9.84674 15 10.0001C15 10.1534 15.1244 10.2778 15.2778 10.2778H17.5C17.6536 10.2778 17.7778 10.1534 17.7778 10.0001C17.7778 9.84674 17.6536 9.72229 17.5 9.72229H15.2778Z" fill="black" stroke="black" stroke-width="0.5"/>
<path d="M6.16823 6.50495C6.22269 6.55941 6.29352 6.58633 6.36462 6.58633C6.43571 6.58633 6.50684 6.55938 6.56101 6.50495C6.6696 6.39662 6.6696 6.22077 6.56101 6.11218L4.98987 4.54104C4.88124 4.43245 4.70569 4.43245 4.5971 4.54104C4.48847 4.64937 4.48847 4.82522 4.5971 4.93382L6.16823 6.50495Z" fill="black" stroke="black" stroke-width="0.5"/>
<path d="M16.9283 7.4078C16.9635 7.4078 16.9991 7.40112 17.0338 7.38696L18.1605 6.92361C18.3022 6.86528 18.3699 6.70278 18.3116 6.56111C18.2535 6.41915 18.091 6.35112 17.9491 6.40971L16.8224 6.87306C16.6808 6.93139 16.613 7.09389 16.6713 7.23556C16.7155 7.34308 16.8191 7.4078 16.9283 7.4078Z" fill="black" stroke="black" stroke-width="0.5"/>
<path d="M14.6188 8.08686C14.6633 8.19409 14.7666 8.25854 14.8755 8.25854C14.9111 8.25854 14.9472 8.25161 14.9819 8.23715L16.0083 7.81186C16.15 7.75323 16.2175 7.59073 16.1586 7.4488C16.0997 7.30714 15.9369 7.23992 15.7958 7.29851L14.7691 7.72407C14.6274 7.78269 14.5602 7.94519 14.6188 8.08686Z" fill="black" stroke="black" stroke-width="0.5"/>
<path d="M13.634 6.50509C13.6884 6.55955 13.7593 6.58647 13.8303 6.58647C13.9015 6.58647 13.9726 6.55952 14.0267 6.50509L15.4017 5.13037C15.5101 5.02175 15.5101 4.84593 15.4017 4.7376C15.2931 4.62897 15.1173 4.62897 15.009 4.7376L13.634 6.11231C13.5257 6.22094 13.5257 6.39675 13.634 6.50509Z" fill="black" stroke="black" stroke-width="0.5"/>
<path d="M11.8141 7.20316C11.6852 7.11953 11.5132 7.15592 11.4296 7.28454C11.346 7.41315 11.3827 7.58539 11.5113 7.66872C11.9216 7.93539 12.2555 8.30622 12.4771 8.74122C12.5263 8.83761 12.6238 8.89288 12.7249 8.89288C12.7671 8.89288 12.8102 8.88315 12.8508 8.86261C12.9874 8.79288 13.0416 8.62566 12.9721 8.48901C12.7063 7.96736 12.3057 7.52263 11.8141 7.20316Z" fill="black" stroke="black" stroke-width="0.5"/>
<path d="M13.1241 16.8221C13.0649 16.6807 12.9021 16.6143 12.7607 16.6729C12.619 16.7321 12.5524 16.8949 12.6113 17.0365L13.0749 18.1454C13.1196 18.2518 13.2229 18.3163 13.3315 18.3163C13.3671 18.3163 13.4035 18.3093 13.4385 18.2946C13.5799 18.2354 13.6468 18.0726 13.5876 17.9312L13.1241 16.8221Z" fill="black" stroke="black" stroke-width="0.5"/>
<path d="M14.0268 13.5761C13.9184 13.4678 13.7426 13.4678 13.634 13.5761C13.5257 13.6848 13.5257 13.8606 13.634 13.9692L15.2054 15.5403C15.2595 15.5948 15.3307 15.6217 15.4018 15.6217C15.4726 15.6217 15.5437 15.5947 15.5982 15.5403C15.7065 15.432 15.7065 15.2561 15.5982 15.1475L14.0268 13.5761Z" fill="black" stroke="black" stroke-width="0.5"/>
<path d="M12.7 15.7965L12.2748 14.7693C12.2159 14.6279 12.0537 14.5601 11.9117 14.619C11.77 14.6779 11.7028 14.8404 11.7614 14.9821L12.1867 16.0091C12.2311 16.116 12.3345 16.1807 12.4436 16.1807C12.4789 16.1807 12.5148 16.1738 12.5498 16.1594C12.6914 16.1007 12.7586 15.9382 12.7 15.7965Z" fill="black" stroke="black" stroke-width="0.5"/>
<path d="M8.08728 14.6193C7.94532 14.5601 7.78282 14.6279 7.72423 14.7696L7.29867 15.7966C7.23979 15.9382 7.30701 16.1007 7.44897 16.1594C7.4837 16.1738 7.5198 16.1807 7.55509 16.1807C7.66427 16.1807 7.76759 16.1163 7.81176 16.0091L8.23761 14.9821C8.29617 14.8404 8.22895 14.6779 8.08728 14.6193Z" fill="black" stroke="black" stroke-width="0.5"/>
<path d="M9.99847 15C9.84515 15 9.7207 15.1244 9.7207 15.2778V17.5C9.7207 17.6533 9.84515 17.7778 9.99847 17.7778C10.1521 17.7778 10.2762 17.6533 10.2762 17.5V15.2778C10.2763 15.1244 10.1521 15 9.99847 15Z" fill="black" stroke="black" stroke-width="0.5"/>
<path d="M16.0086 12.1885L14.9819 11.7632C14.8399 11.7045 14.6777 11.7715 14.6188 11.9135C14.5602 12.0551 14.6275 12.2176 14.7691 12.2763L15.7961 12.7018C15.8308 12.7163 15.8666 12.7232 15.9022 12.7232C16.0111 12.7232 16.1144 12.6585 16.1589 12.5515C16.2177 12.4098 16.1503 12.2473 16.0086 12.1885Z" fill="black" stroke="black" stroke-width="0.5"/>
<path d="M18.1602 13.0766L17.0338 12.6138C16.8922 12.5552 16.7297 12.6233 16.6713 12.7652C16.613 12.9069 16.6808 13.0691 16.8227 13.1274L17.9491 13.5905C17.9836 13.6047 18.0194 13.6113 18.0547 13.6113C18.1639 13.6113 18.2675 13.5466 18.3116 13.4391C18.3699 13.2972 18.3022 13.135 18.1602 13.0766Z" fill="black" stroke="black" stroke-width="0.5"/>
<path d="M7.23309 16.6721C7.09142 16.6137 6.92892 16.6815 6.87058 16.8232L6.40753 17.9501C6.34949 18.0921 6.41697 18.2543 6.55893 18.3126C6.59337 18.3268 6.62921 18.3335 6.6645 18.3335C6.77368 18.3335 6.87726 18.2687 6.92143 18.1612L7.38449 17.0346C7.44282 16.8926 7.37505 16.7304 7.23309 16.6721Z" fill="black" stroke="black" stroke-width="0.5"/>
<path d="M1.83822 6.92363L2.96518 7.38668C2.99962 7.40084 3.03546 7.40752 3.07045 7.40752C3.17989 7.40752 3.28351 7.3428 3.32768 7.23528C3.38602 7.09332 3.31824 6.93112 3.17628 6.87278L2.04932 6.40973C1.90795 6.3511 1.74515 6.41917 1.68682 6.56113C1.62878 6.70305 1.69629 6.86529 1.83822 6.92363Z" fill="black" stroke="black" stroke-width="0.5"/>
<path d="M2.49847 9.72241C2.34515 9.72241 2.2207 9.84686 2.2207 10.0002C2.2207 10.1535 2.34515 10.2779 2.49847 10.2779H4.72072C4.87433 10.2779 4.99849 10.1535 4.99849 10.0002C4.99849 9.84686 4.87433 9.72241 4.72072 9.72241H2.49847Z" fill="black" stroke="black" stroke-width="0.5"/>
<path d="M3.99176 7.81184L5.01872 8.23713C5.05345 8.25159 5.08955 8.25852 5.12484 8.25852C5.23402 8.25852 5.33734 8.19381 5.38151 8.08684C5.4404 7.94517 5.37318 7.78267 5.23122 7.72404L4.20455 7.29849C4.06233 7.23986 3.90038 7.30737 3.8415 7.44878C3.78287 7.59071 3.85009 7.75321 3.99176 7.81184Z" fill="black" stroke="black" stroke-width="0.5"/>
<path d="M2.96489 12.6131L1.83822 13.0764C1.69626 13.1347 1.62878 13.2972 1.68682 13.4389C1.731 13.5464 1.83461 13.6112 1.94405 13.6112C1.97905 13.6112 2.01489 13.6045 2.04962 13.5903L3.17603 13.1267C3.31799 13.0684 3.38576 12.9062 3.32743 12.7642C3.26906 12.6225 3.10711 12.5545 2.96489 12.6131Z" fill="black" stroke="black" stroke-width="0.5"/>
<path d="M5.38176 11.9137C5.32313 11.7717 5.16037 11.7045 5.01897 11.7631L3.99201 12.1884C3.85034 12.247 3.78283 12.4095 3.84145 12.5512C3.88589 12.6581 3.98924 12.7229 4.09839 12.7229C4.13367 12.7229 4.16978 12.716 4.20451 12.7018L5.23147 12.2765C5.37317 12.2178 5.44065 12.0553 5.38176 11.9137Z" fill="black" stroke="black" stroke-width="0.5"/>
<path d="M6.56101 13.5761C6.45267 13.4678 6.27683 13.4678 6.16823 13.5761L4.5971 15.1475C4.48847 15.2561 4.48847 15.432 4.5971 15.5403C4.65126 15.5948 4.72239 15.6217 4.79348 15.6217C4.86461 15.6217 4.9357 15.5947 4.98987 15.5403L6.56101 13.9692C6.66963 13.8606 6.66963 13.6847 6.56101 13.5761Z" fill="black" stroke="black" stroke-width="0.5"/>
</svg>
