<svg width="20" height="20" viewBox="0 0 20 20" fill="none" xmlns="http://www.w3.org/2000/svg">
<path d="M19.6016 10.239H14.552C15.0631 9.4045 15.3386 8.43864 15.3386 7.45021C15.3386 4.50646 12.9438 2.11157 10 2.11157C7.05625 2.11157 4.66137 4.50646 4.66137 7.45021C4.66137 8.43864 4.93695 9.4045 5.44805 10.239H0.398398C0.178359 10.239 0 10.4174 0 10.6374C0 10.8575 0.178359 11.0358 0.398398 11.0358H19.6016C19.8216 11.0358 20 10.8575 20 10.6374C20 10.4174 19.8216 10.239 19.6016 10.239ZM13.5845 10.239H6.41547C5.79687 9.4445 5.45816 8.46122 5.45816 7.45021C5.45816 4.94583 7.49563 2.90837 10 2.90837C12.5043 2.90837 14.5418 4.94583 14.5418 7.45021C14.5418 8.46122 14.2031 9.44446 13.5845 10.239Z" fill="black"/>
<path d="M13.5852 11.7928H6.67379C6.45375 11.7928 6.27539 11.9712 6.27539 12.1912C6.27539 12.4113 6.45375 12.5896 6.67379 12.5896H13.5852C13.8052 12.5896 13.9836 12.4113 13.9836 12.1912C13.9836 11.9712 13.8052 11.7928 13.5852 11.7928Z" fill="black"/>
<path d="M11.8332 13.1075H8.42769C8.20766 13.1075 8.0293 13.2859 8.0293 13.5059C8.0293 13.726 8.20766 13.9043 8.42769 13.9043H11.8332C12.0532 13.9043 12.2316 13.726 12.2316 13.5059C12.2316 13.2859 12.0532 13.1075 11.8332 13.1075Z" fill="black"/>
<path d="M10.6361 14.3823H9.62105C9.40102 14.3823 9.22266 14.5607 9.22266 14.7807C9.22266 15.0008 9.40102 15.1791 9.62105 15.1791H10.6361C10.8561 15.1791 11.0345 15.0008 11.0345 14.7807C11.0345 14.5607 10.8561 14.3823 10.6361 14.3823Z" fill="black"/>
<path d="M18.446 11.7928H17.9882C17.7682 11.7928 17.5898 11.9712 17.5898 12.1912C17.5898 12.4113 17.7682 12.5896 17.9882 12.5896H18.446C18.666 12.5896 18.8444 12.4113 18.8444 12.1912C18.8444 11.9712 18.666 11.7928 18.446 11.7928Z" fill="black"/>
<path d="M16.5606 11.7928H15.2578C15.0378 11.7928 14.8594 11.9712 14.8594 12.1912C14.8594 12.4113 15.0378 12.5896 15.2578 12.5896H16.5606C16.7806 12.5896 16.959 12.4113 16.959 12.1912C16.959 11.9712 16.7806 11.7928 16.5606 11.7928Z" fill="black"/>
<path d="M2.9675 13.5856H2.50973C2.28969 13.5856 2.11133 13.7639 2.11133 13.984C2.11133 14.204 2.28969 14.3824 2.50973 14.3824H2.9675C3.18754 14.3824 3.3659 14.204 3.3659 13.984C3.3659 13.7639 3.18754 13.5856 2.9675 13.5856Z" fill="black"/>
<path d="M5.6973 13.5856H4.39449C4.17445 13.5856 3.99609 13.7639 3.99609 13.984C3.99609 14.204 4.17445 14.3824 4.39449 14.3824H5.6973C5.91734 14.3824 6.0957 14.204 6.0957 13.984C6.0957 13.7639 5.91734 13.5856 5.6973 13.5856Z" fill="black"/>
<path d="M16.6149 15.0598C15.9998 15.0598 15.4994 15.5602 15.4994 16.1754C15.4994 16.3511 15.3564 16.4941 15.1807 16.4941C15.0049 16.4941 14.862 16.3511 14.862 16.1754C14.862 15.5602 14.3615 15.0598 13.7464 15.0598C13.1313 15.0598 12.6309 15.5602 12.6309 16.1754C12.6309 16.3954 12.8093 16.5738 13.0293 16.5738C13.2493 16.5738 13.4277 16.3954 13.4277 16.1754C13.4277 15.9996 13.5707 15.8566 13.7464 15.8566C13.9221 15.8566 14.0651 15.9997 14.0651 16.1754C14.0651 16.7905 14.5655 17.2909 15.1806 17.2909C15.7957 17.2909 16.2962 16.7905 16.2962 16.1754C16.2962 15.9996 16.4392 15.8566 16.6149 15.8566C16.7906 15.8566 16.9336 15.9997 16.9336 16.1754C16.9336 16.3954 17.112 16.5738 17.332 16.5738C17.552 16.5738 17.7304 16.3954 17.7304 16.1754C17.7305 15.5602 17.23 15.0598 16.6149 15.0598Z" fill="black"/>
<path d="M7.05074 16.3743C6.8307 16.3743 6.65234 16.5526 6.65234 16.7727C6.65234 16.9484 6.50934 17.0914 6.33363 17.0914C6.15789 17.0914 6.01492 16.9484 6.01492 16.7727C6.01492 16.1575 5.51449 15.6571 4.89937 15.6571C4.28426 15.6571 3.78383 16.1575 3.78383 16.7727C3.78383 16.9484 3.64082 17.0914 3.46512 17.0914C3.28938 17.0914 3.14641 16.9484 3.14641 16.7727C3.14641 16.5526 2.96805 16.3743 2.74801 16.3743C2.52797 16.3743 2.34961 16.5526 2.34961 16.7727C2.34961 17.3878 2.85004 17.8882 3.46516 17.8882C4.08027 17.8882 4.5807 17.3878 4.5807 16.7727C4.5807 16.5969 4.72371 16.4539 4.89941 16.4539C5.07516 16.4539 5.21812 16.5969 5.21812 16.7727C5.21812 17.3878 5.71855 17.8882 6.33367 17.8882C6.94879 17.8882 7.44922 17.3878 7.44922 16.7727C7.44914 16.5526 7.27078 16.3743 7.05074 16.3743Z" fill="black"/>
<path d="M8.2877 4.51503C8.15625 4.33858 7.90664 4.3021 7.7302 4.43354C6.77031 5.14866 6.19727 6.28933 6.19727 7.48487C6.19727 7.70491 6.37562 7.88327 6.59566 7.88327C6.8157 7.88327 6.99406 7.70491 6.99406 7.48487C6.99406 6.52565 7.43586 5.64643 8.20621 5.07253C8.38266 4.94108 8.41918 4.69147 8.2877 4.51503Z" fill="black"/>
<path d="M10.0004 3.68201C9.80683 3.68201 9.61234 3.69669 9.42234 3.72572C9.20484 3.75892 9.05543 3.96216 9.08859 4.1797C9.11867 4.37685 9.28847 4.51806 9.48199 4.51806C9.50195 4.51806 9.52222 4.51654 9.54258 4.51345C9.69293 4.49052 9.84695 4.47888 10.0004 4.47888C10.2204 4.47888 10.3988 4.30052 10.3988 4.08048C10.3988 3.86041 10.2204 3.68201 10.0004 3.68201Z" fill="black"/>
</svg>
