<svg width="20" height="20" viewBox="0 0 20 20" fill="none" xmlns="http://www.w3.org/2000/svg">
<path d="M8.71885 3.58972C5.18411 3.58972 2.30859 6.4654 2.30859 9.99997C2.30859 11.3873 2.7446 12.7078 3.56966 13.8186C3.67513 13.9605 3.87546 13.9902 4.0182 13.8848C4.16032 13.7793 4.18971 13.5785 4.08424 13.4364C3.34212 12.4368 2.94961 11.2485 2.94961 9.99997C2.94961 6.81879 5.53783 4.23077 8.71882 4.23077C11.8998 4.23077 14.4881 6.81879 14.4881 9.99997C14.4881 11.264 14.0871 12.4641 13.3281 13.4704C13.2216 13.6117 13.2498 13.8126 13.391 13.9192C13.4489 13.9629 13.5168 13.9838 13.5838 13.9838C13.6812 13.9838 13.7769 13.9399 13.8401 13.8563C14.6834 12.7379 15.1291 11.4044 15.1291 9.99997C15.1291 6.4654 12.2535 3.58972 8.71885 3.58972Z" fill="black" stroke="black" stroke-width="0.5"/>
<path d="M18.3195 14.7174C18.2698 14.5481 18.0926 14.4501 17.9217 14.5004C14.5754 15.4847 13.3691 14.9783 11.9732 14.3921C11.1427 14.0435 10.2016 13.6484 8.74392 13.5269C4.80323 13.1986 1.89578 15.742 1.77371 15.8503C1.64132 15.9679 1.6294 16.1702 1.74679 16.3026C1.81033 16.374 1.89828 16.4103 1.98686 16.4103C2.06228 16.4103 2.13835 16.3837 2.19939 16.3297C2.22725 16.3049 5.03643 13.8603 8.6907 14.1658C10.0469 14.2787 10.9002 14.6368 11.7249 14.9831C13.1713 15.5904 14.5375 16.1639 18.1026 15.1154C18.2723 15.0655 18.3696 14.8872 18.3195 14.7174Z" fill="black" stroke="black" stroke-width="0.5"/>
</svg>
