<svg width="20" height="20" viewBox="0 0 20 20" fill="none" xmlns="http://www.w3.org/2000/svg">
<g clip-path="url(#clip0_424_6931)">
<path d="M16.6667 18.3337H3.33333C3.11232 18.3337 2.90036 18.2459 2.74408 18.0896C2.5878 17.9333 2.5 17.7213 2.5 17.5003V2.50033C2.5 2.27931 2.5878 2.06735 2.74408 1.91107C2.90036 1.75479 3.11232 1.66699 3.33333 1.66699H16.6667C16.8877 1.66699 17.0996 1.75479 17.2559 1.91107C17.4122 2.06735 17.5 2.27931 17.5 2.50033V17.5003C17.5 17.7213 17.4122 17.9333 17.2559 18.0896C17.0996 18.2459 16.8877 18.3337 16.6667 18.3337ZM15.8333 16.667V3.33366H4.16667V16.667H15.8333ZM5.83333 5.00032H9.16667V8.33366H5.83333V5.00032ZM5.83333 10.0003H14.1667V11.667H5.83333V10.0003ZM5.83333 13.3337H14.1667V15.0003H5.83333V13.3337ZM10.8333 5.83366H14.1667V7.50032H10.8333V5.83366Z" fill="#42ADE2"/>
</g>
<defs>
<clipPath id="clip0_424_6931">
<rect width="20" height="20" fill="white"/>
</clipPath>
</defs>
</svg>
