<svg width="41" height="40" viewBox="0 0 41 40" fill="none" xmlns="http://www.w3.org/2000/svg">
<g clip-path="url(#clip0_623_1418)">
<path d="M34.7258 8.90356H15.8652V33.938H34.7258V8.90356Z" fill="#6EB925"/>
<path d="M34.7258 17.2169H15.8652V25.6259H34.7258V17.2169Z" fill="#FECD57"/>
<path d="M34.7258 25.5292H15.8652V33.9381H34.7258V25.5292Z" fill="#2D93C7"/>
<path d="M12.6083 31.8499C12.1867 31.8499 11.8449 31.5081 11.8449 31.0865V3.41232C11.8449 2.37254 10.9991 1.52666 9.95929 1.52666H6.04071C5.61907 1.52666 5.27734 1.18486 5.27734 0.763293C5.27734 0.341724 5.61907 0 6.04071 0H9.95929C11.8409 0 13.3716 1.53073 13.3716 3.41232V31.0865C13.3716 31.5081 13.03 31.8499 12.6083 31.8499Z" fill="#34454E"/>
<path d="M31.9751 34.7015H15.4606C15.039 34.7015 14.6973 34.3597 14.6973 33.9382C14.6973 33.5166 15.0389 33.1748 15.4606 33.1748H31.9751C32.3968 33.1748 32.7385 33.5166 32.7385 33.9382C32.7385 34.3597 32.3967 34.7015 31.9751 34.7015Z" fill="#34454E"/>
<path d="M12.6088 40C15.9568 40 18.6708 37.286 18.6708 33.9381C18.6708 30.5901 15.9568 27.8761 12.6088 27.8761C9.26091 27.8761 6.54688 30.5901 6.54688 33.9381C6.54688 37.286 9.26091 40 12.6088 40Z" fill="black"/>
<path d="M12.6097 36.79C14.1847 36.79 15.4615 35.5132 15.4615 33.9381C15.4615 32.3631 14.1847 31.0863 12.6097 31.0863C11.0346 31.0863 9.75781 32.3631 9.75781 33.9381C9.75781 35.5132 11.0346 36.79 12.6097 36.79Z" fill="#34454E"/>
</g>
<defs>
<clipPath id="clip0_623_1418">
<rect width="40" height="40" fill="white" transform="translate(0.00195312)"/>
</clipPath>
</defs>
</svg>
