<svg width="41" height="40" viewBox="0 0 41 40" fill="none" xmlns="http://www.w3.org/2000/svg">
<g clip-path="url(#clip0_623_1277)">
<path d="M33.4795 9.56519C35.6408 9.56519 37.3926 11.3171 37.3926 13.4782C37.3926 22.5557 37.3926 11.1077 37.3926 20H26.0882V9.56519H33.4795Z" fill="#34454E"/>
<path d="M37.3933 18.1818L38.8555 19.6182C38.9738 19.7365 39.0686 19.8702 39.1695 20C39.6999 20.6825 40.002 21.507 40.002 22.385V26.5218C40.002 28.6795 38.2466 30.4348 36.0889 30.4348H26.0889V18.1818H37.3933Z" fill="#2D93C7"/>
<path d="M36.0889 22.6086H40.002V25.2173H36.0889C35.3688 25.2173 34.7845 24.6335 34.7845 23.9129C34.7845 23.1924 35.3688 22.6086 36.0889 22.6086Z" fill="#42ADE2"/>
<path d="M3.91469 4.34778H24.7842C26.942 4.34778 28.6973 6.10309 28.6973 8.26083V30.4347H3.91469C1.75695 30.4347 0.00164032 28.6794 0.00164032 26.5217V8.26083C0.00164032 6.10309 1.75695 4.34778 3.91469 4.34778Z" fill="#E2E7EC"/>
<path d="M3.91484 4.34778H14.3496V30.4347H3.91484C1.75711 30.4347 0.00179672 28.6794 0.00179672 26.5217V8.26083C0.00179672 6.10309 1.75711 4.34778 3.91484 4.34778Z" fill="#CCD5E0"/>
<path d="M6.52391 12.1739H22.1761C22.8962 12.1739 23.4805 11.5901 23.4805 10.8696C23.4805 10.149 22.8962 9.56519 22.1761 9.56519H6.52391C5.80383 9.56519 5.21953 10.149 5.21953 10.8696C5.21953 11.5901 5.80383 12.1739 6.52391 12.1739Z" fill="#B7C5D2"/>
<path d="M6.52391 22.6087H22.1761C22.8962 22.6087 23.4805 22.0249 23.4805 21.3044C23.4805 20.5838 22.8962 20 22.1761 20H6.52391C5.80383 20 5.21953 20.5838 5.21953 21.3044C5.21961 22.0249 5.80383 22.6087 6.52391 22.6087Z" fill="#B7C5D2"/>
<path d="M6.52391 17.3913H22.1761C22.8962 17.3913 23.4805 16.8075 23.4805 16.087C23.4805 15.3664 22.8962 14.7826 22.1761 14.7826H6.52391C5.80383 14.7826 5.21953 15.3664 5.21953 16.087C5.21953 16.8075 5.80383 17.3913 6.52391 17.3913Z" fill="#B7C5D2"/>
<path d="M28.6966 35.6521C31.5737 35.6521 33.9141 33.3118 33.9141 30.4347C33.9141 27.5576 31.5738 25.2173 28.6966 25.2173C25.8195 25.2173 23.4792 27.5576 23.4792 30.4347C23.4792 33.3118 25.8196 35.6521 28.6966 35.6521Z" fill="#34454E"/>
<path d="M23.4798 30.4347C23.4798 27.5577 25.8202 25.2173 28.6973 25.2173V35.652C25.8202 35.6521 23.4798 33.3117 23.4798 30.4347Z" fill="black"/>
<path d="M28.698 27.826C30.1365 27.826 31.3066 28.9962 31.3066 30.4347C31.3066 31.8732 30.1365 33.0434 28.698 33.0434C27.2595 33.0434 26.0893 31.8732 26.0893 30.4347C26.0893 28.9962 27.2595 27.826 28.698 27.826Z" fill="#DBDFE3"/>
<path d="M26.0886 30.4347C26.0886 28.9962 27.2587 27.826 28.6973 27.826V33.0435C27.2587 33.0435 26.0886 31.8732 26.0886 30.4347Z" fill="#CAD1D7"/>
<path d="M10.4369 35.6521C13.3139 35.6521 15.6543 33.3118 15.6543 30.4347C15.6543 27.5576 13.314 25.2173 10.4369 25.2173C7.55977 25.2173 5.21945 27.5576 5.21945 30.4347C5.21945 33.3118 7.55984 35.6521 10.4369 35.6521Z" fill="#34454E"/>
<path d="M5.22008 30.4347C5.22008 27.5577 7.56039 25.2173 10.4375 25.2173V35.652C7.56039 35.6521 5.22008 33.3117 5.22008 30.4347Z" fill="black"/>
<path d="M10.4363 27.826C11.8748 27.826 13.0449 28.9962 13.0449 30.4347C13.0449 31.8732 11.8748 33.0434 10.4363 33.0434C8.99774 33.0434 7.82758 31.8732 7.82758 30.4347C7.82758 28.9962 8.99774 27.826 10.4363 27.826Z" fill="#DBDFE3"/>
<path d="M7.82883 30.4347C7.82883 28.9962 8.99898 27.826 10.4375 27.826V33.0435C8.99898 33.0435 7.82883 31.8732 7.82883 30.4347Z" fill="#CAD1D7"/>
<path d="M6.52351 20H14.3496V22.6087H6.52351C5.80344 22.6087 5.21914 22.0248 5.21914 21.3043C5.21922 20.5838 5.80344 20 6.52351 20Z" fill="#A4B5C5"/>
<path d="M6.52351 14.7825H14.3496V17.3911H6.52351C5.80344 17.3911 5.21914 16.8073 5.21914 16.0868C5.21914 15.3662 5.80344 14.7825 6.52351 14.7825Z" fill="#A4B5C5"/>
<path d="M6.52351 9.56519H14.3496V12.1739H6.52351C5.80344 12.1739 5.21914 11.59 5.21914 10.8695C5.21914 10.1489 5.80344 9.56519 6.52351 9.56519Z" fill="#A4B5C5"/>
</g>
<defs>
<clipPath id="clip0_623_1277">
<rect width="40" height="40" fill="white" transform="matrix(-1 0 0 1 40.002 0)"/>
</clipPath>
</defs>
</svg>
