<svg width="20" height="21" viewBox="0 0 20 21" fill="none" xmlns="http://www.w3.org/2000/svg">
<path d="M7.47112 14.5277C7.26893 15.9411 6.05335 17.0277 4.58398 17.0277C3.11462 17.0277 1.89903 15.9411 1.69685 14.5277H0.833984V4.52767C0.833984 4.06744 1.20708 3.69434 1.66732 3.69434H13.334C13.7942 3.69434 14.1673 4.06744 14.1673 4.52767V6.19434H16.6673L19.1673 9.57409V14.5277H17.4712C17.2689 15.9411 16.0533 17.0277 14.584 17.0277C13.1147 17.0277 11.8991 15.9411 11.6968 14.5277H7.47112ZM12.5007 5.361H2.50065V12.0698C3.03003 11.5295 3.76787 11.1943 4.58398 11.1943C5.74748 11.1943 6.75186 11.8756 7.21997 12.861H11.948C12.0877 12.5668 12.2753 12.2997 12.5007 12.0698V5.361ZM14.1673 10.361H17.5007V10.1235L15.8271 7.861H14.1673V10.361ZM14.584 15.361C15.1282 15.361 15.5912 15.0132 15.7628 14.5277C15.8089 14.3973 15.834 14.2571 15.834 14.111C15.834 13.4207 15.2743 12.861 14.584 12.861C13.8937 12.861 13.334 13.4207 13.334 14.111C13.334 14.2571 13.3591 14.3973 13.4052 14.5277C13.5767 15.0132 14.0397 15.361 14.584 15.361ZM5.83398 14.111C5.83398 13.4207 5.27434 12.861 4.58398 12.861C3.89363 12.861 3.33398 13.4207 3.33398 14.111C3.33398 14.2571 3.35905 14.3973 3.40511 14.5277C3.57671 15.0132 4.03973 15.361 4.58398 15.361C5.12824 15.361 5.59126 15.0132 5.76286 14.5277C5.80892 14.3973 5.83398 14.2571 5.83398 14.111Z" fill="white"/>
</svg>
