<svg width="21" height="20" viewBox="0 0 21 20" fill="none" xmlns="http://www.w3.org/2000/svg">
<path d="M6.33333 8.33341H17.1667C17.6269 8.33341 18 8.7065 18 9.16675V17.5001C18 17.9603 17.6269 18.3334 17.1667 18.3334H3.83333C3.3731 18.3334 3 17.9603 3 17.5001V9.16675C3 8.7065 3.3731 8.33341 3.83333 8.33341H4.66667V7.50008C4.66667 4.27842 7.27834 1.66675 10.5 1.66675C12.7837 1.66675 14.7609 2.97908 15.7187 4.89076L14.2276 5.63628C13.5435 4.2708 12.1313 3.33341 10.5 3.33341C8.19882 3.33341 6.33333 5.1989 6.33333 7.50008V8.33341ZM4.66667 10.0001V16.6667H16.3333V10.0001H4.66667Z" fill="white"/>
<path fill-rule="evenodd" clip-rule="evenodd" d="M10.7781 12.8102L10.0003 12.8074H9.10416C8.80368 12.6953 8.54657 12.4515 8.45796 12.1046C8.43168 12.0017 8.39636 11.8621 8.43221 11.7618C8.45407 11.7007 8.52097 11.6728 8.57639 11.6725C8.91107 11.6706 9.24576 11.6703 9.58044 11.6696C10.1957 11.6684 10.1897 11.6667 10.805 11.6667C11.143 11.6667 11.424 11.6829 11.7246 11.8511C11.9549 11.9799 12.1316 12.1538 12.2858 12.3696C12.4174 12.5536 12.4944 12.776 12.5459 13.0061C12.7094 13.738 12.3214 14.4264 11.7812 14.789C11.6418 14.8826 11.4661 14.9354 11.3075 14.9676C10.6388 15.1037 10.1549 14.8108 9.94765 14.115L10.3629 14.1136L10.7781 14.1122C10.8534 14.1119 10.8534 13.9624 10.7781 13.9624C10.7781 13.9624 10.2935 13.9633 9.94169 13.9624C9.87065 13.9622 9.7625 13.888 9.70518 13.8495C9.46516 13.6884 9.29246 13.4445 9.2132 13.1341C9.20035 13.0839 9.17963 13.0105 9.17963 12.96L10.7781 12.9629C10.8534 12.9631 10.8534 12.8104 10.7781 12.8102Z" fill="white"/>
</svg>
