<svg width="41" height="40" viewBox="0 0 41 40" fill="none" xmlns="http://www.w3.org/2000/svg">
<g clip-path="url(#clip0_623_1429)">
<path d="M39.2027 4H37.6027C37.1611 4 34.0027 5.9584 34.0027 6.4H29.6027V16.8H34.0027C34.0027 17.2416 37.1611 19.2 37.6027 19.2H39.2027C39.4148 19.2 39.6183 19.1158 39.7683 18.9658C39.9183 18.8159 40.0026 18.6125 40.0027 18.4004V4.8C40.0027 4.58783 39.9184 4.38434 39.7684 4.23431C39.6184 4.08429 39.4149 4 39.2027 4ZM27.9943 19.4276C27.9967 20.2872 28.0003 20.8004 28.0027 20.8004V19.6004L27.9943 19.4276ZM4.80273 23.2C4.80305 23.4121 4.88744 23.6154 5.0374 23.7653C5.18736 23.9153 5.39066 23.9997 5.60273 24H9.18553C9.91033 25.0472 10.9691 26.4 11.6027 26.4H12.4027C14.6119 26.4 16.4027 28.1916 16.4027 30.4004V38.4C16.4027 38.8243 16.5713 39.2313 16.8714 39.5314C17.1714 39.8314 17.5784 40 18.0027 40H23.2027C23.6271 40 24.034 39.8314 24.3341 39.5314C24.6342 39.2313 24.8027 38.8243 24.8027 38.4V26.4H26.8027C27.6863 26.4 28.0027 26.084 28.0027 25.2004V20.8004H4.80273V23.2Z" fill="#1C3C50"/>
<path d="M28.002 1.4981e-05H4.80195C2.15115 1.4981e-05 0.00195312 2.14921 0.00195312 4.80001V16C0.00195312 18.6512 2.15115 20.8004 4.80195 20.8004H28.002C27.9816 20.8004 27.974 -0.020385 28.002 1.4981e-05Z" fill="#EBEEEF"/>
<path d="M10.8016 6H8.40156C8.18939 6 7.98591 6.08429 7.83588 6.23431C7.68585 6.38434 7.60156 6.58783 7.60156 6.8V9.2C7.60156 9.41217 7.68585 9.61566 7.83588 9.76569C7.98591 9.91571 8.18939 10 8.40156 10H10.8016C11.0137 10 11.2172 9.91571 11.3672 9.76569C11.5173 9.61566 11.6016 9.41217 11.6016 9.2V6.8C11.6016 6.58783 11.5173 6.38434 11.3672 6.23431C11.2172 6.08429 11.0137 6 10.8016 6Z" fill="#C8CBCB"/>
<path d="M28.802 0H28.002V20.8H28.802C28.907 20.8 29.0111 20.7793 29.1082 20.7391C29.2053 20.6988 29.2935 20.6399 29.3678 20.5655C29.4421 20.4912 29.501 20.403 29.5412 20.3059C29.5814 20.2088 29.602 20.1047 29.602 19.9996V0.8C29.602 0.587827 29.5177 0.384344 29.3676 0.234315C29.2176 0.0842855 29.0141 0 28.802 0V0ZM34.002 6.4H32.802V16.8H34.002V6.4Z" fill="#23475F"/>
<path d="M21.6012 4.80005C21.1265 4.80005 20.6625 4.94081 20.2678 5.20452C19.8731 5.46824 19.5655 5.84307 19.3839 6.28161C19.2022 6.72015 19.1547 7.20271 19.2473 7.66827C19.3399 8.13382 19.5685 8.56146 19.9041 8.89711C20.2398 9.23275 20.6674 9.46133 21.133 9.55393C21.5985 9.64654 22.0811 9.59901 22.5196 9.41736C22.9582 9.23571 23.333 8.9281 23.5967 8.53342C23.8604 8.13874 24.0012 7.67472 24.0012 7.20005C24.0012 5.87485 22.926 4.80005 21.6012 4.80005Z" fill="white"/>
<path d="M21.602 5.59998C21.1776 5.59998 20.7706 5.76855 20.4706 6.0686C20.1705 6.36866 20.002 6.77563 20.002 7.19998C20.002 7.62432 20.1705 8.03129 20.4706 8.33135C20.7706 8.6314 21.1776 8.79998 21.602 8.79998C22.0263 8.79998 22.4333 8.6314 22.7333 8.33135C23.0334 8.03129 23.202 7.62432 23.202 7.19998C23.202 6.77563 23.0334 6.36866 22.7333 6.0686C22.4333 5.76855 22.0263 5.59998 21.602 5.59998Z" fill="#6EB925"/>
<path d="M14.8023 5.59998H5.20234C4.99017 5.59998 4.78669 5.68426 4.63666 5.83429C4.48663 5.98432 4.40234 6.1878 4.40234 6.39998V7.99998C4.40234 8.21215 4.48663 8.41563 4.63666 8.56566C4.78669 8.71569 4.99017 8.79998 5.20234 8.79998H14.8023C15.0145 8.79998 15.218 8.71569 15.368 8.56566C15.5181 8.41563 15.6023 8.21215 15.6023 7.99998V6.39998C15.6023 6.1878 15.5181 5.98432 15.368 5.83429C15.218 5.68426 15.0145 5.59998 14.8023 5.59998Z" fill="#2D93C7"/>
<path d="M11.202 5.19995H8.80195C8.58978 5.19995 8.3863 5.28424 8.23627 5.43427C8.08624 5.5843 8.00195 5.78778 8.00195 5.99995V8.39995C8.00195 8.61212 8.08624 8.81561 8.23627 8.96564C8.3863 9.11567 8.58978 9.19995 8.80195 9.19995H11.202C11.4141 9.19995 11.6176 9.11567 11.7676 8.96564C11.9177 8.81561 12.002 8.61212 12.002 8.39995V5.99995C12.002 5.78778 11.9177 5.5843 11.7676 5.43427C11.6176 5.28424 11.4141 5.19995 11.202 5.19995Z" fill="#1C3C50"/>
<path d="M10.4016 5.19995H9.60156V9.19995H10.4016V5.19995Z" fill="#23475F"/>
<path d="M0.00195312 14.4V16C0.00195312 18.6512 2.15115 20.8004 4.80195 20.8004H28.002C27.994 20.8004 27.9888 17.9708 27.9856 14.4004L0.00195312 14.4Z" fill="#BCC4C8"/>
<path d="M39.2012 4H37.6012C37.5308 4 37.386 4.054 37.2012 4.1396V19.0604C37.386 19.146 37.5308 19.2 37.6012 19.2H39.2012C39.4133 19.2 39.6167 19.1158 39.7667 18.9658C39.9167 18.8159 40.0011 18.6125 40.0012 18.4004V4.8C40.0012 4.58783 39.9169 4.38434 39.7669 4.23431C39.6168 4.08429 39.4133 4 39.2012 4Z" fill="#23475F"/>
<path d="M8.00156 8.40001V6.11121C7.76356 6.24961 7.60156 6.50481 7.60156 6.80041V8.80041H8.11236C8.04053 8.67915 8.00229 8.54094 8.00156 8.40001Z" fill="#00A185"/>
<path d="M9.18555 24C9.91035 25.0472 10.9691 26.4 11.6027 26.4H26.8027C27.6863 26.4 28.0027 26.084 28.0027 25.2004" fill="#23475F"/>
<path d="M9.18555 24C9.91035 25.0472 10.9691 26.4 11.6027 26.4H26.8027C27.6863 26.4 28.0027 26.084 28.0027 25.2004V24H9.18555Z" fill="#23475F"/>
</g>
<defs>
<clipPath id="clip0_623_1429">
<rect width="40" height="40" fill="white" transform="translate(0.00195312)"/>
</clipPath>
</defs>
</svg>
