<svg width="20" height="21" viewBox="0 0 20 21" fill="none" xmlns="http://www.w3.org/2000/svg">
<path d="M6.34842 7.78762L9.01932 5.84712C9.31248 5.63347 9.67473 5.5152 10.055 5.52801C10.9811 5.55079 11.7945 6.15791 12.0774 7.04431C12.2327 7.53094 12.3742 7.85931 12.5022 8.02943C13.2625 9.04026 14.4721 9.69401 15.8343 9.69401V11.3607C14.0221 11.3607 12.4029 10.5343 11.333 9.23784L10.7517 12.5344L12.4692 13.9757L14.3219 19.0657L12.7557 19.6357L11.0558 14.9653L8.23062 12.5947C7.77433 12.2258 7.52697 11.6267 7.63607 11.0079L8.05991 8.60426L7.49588 9.01409L5.72337 11.4537L4.375 10.4741L6.33428 7.77734L6.34842 7.78762ZM11.251 5.11068C10.3305 5.11068 9.58432 4.36449 9.58432 3.44401C9.58432 2.52354 10.3305 1.77734 11.251 1.77734C12.1714 1.77734 12.9177 2.52354 12.9177 3.44401C12.9177 4.36449 12.1714 5.11068 11.251 5.11068ZM8.77465 16.0951L6.09636 19.287L4.81962 18.2157L7.29893 15.2609L7.92103 13.444L9.41365 14.694L8.77465 16.0951Z" fill="white"/>
</svg>
