<svg width="41" height="40" viewBox="0 0 41 40" fill="none" xmlns="http://www.w3.org/2000/svg">
<g clip-path="url(#clip0_623_1378)">
<path d="M40.002 8.58228H0.00195312V36.5898H40.002V8.58228Z" fill="#34454E"/>
<path d="M0.00195312 9.32593V4.34656C0.00382813 3.65718 0.562578 3.09843 1.25195 3.09656H38.7488C39.4382 3.09843 39.997 3.65718 39.9988 4.34656V9.32531H0.00195312V9.32593Z" fill="#CFDCE5"/>
<path d="M36.8467 7.93042H13.4023L15.6448 4.49292H36.8467V7.93042Z" fill="white"/>
<path d="M4.21352 7.22781C4.80066 7.22781 5.27664 6.75183 5.27664 6.16469C5.27664 5.57754 4.80066 5.10156 4.21352 5.10156C3.62637 5.10156 3.15039 5.57754 3.15039 6.16469C3.15039 6.75183 3.62637 7.22781 4.21352 7.22781Z" fill="#FF3B30"/>
<path d="M7.03188 7.22781C7.61902 7.22781 8.095 6.75183 8.095 6.16469C8.095 5.57754 7.61902 5.10156 7.03188 5.10156C6.44473 5.10156 5.96875 5.57754 5.96875 6.16469C5.96875 6.75183 6.44473 7.22781 7.03188 7.22781Z" fill="#FECD57"/>
<path d="M9.85023 7.22781C10.4374 7.22781 10.9134 6.75183 10.9134 6.16469C10.9134 5.57754 10.4374 5.10156 9.85023 5.10156C9.26309 5.10156 8.78711 5.57754 8.78711 6.16469C8.78711 6.75183 9.26309 7.22781 9.85023 7.22781Z" fill="#6EB925"/>
<path d="M40.002 35.906H0.00195312V36.9035H40.002V35.906Z" fill="#42ADE2"/>
<path d="M39.2007 35.9054H34.0588H31.8251H26.2995L24.8995 34.8411H15.1045L13.7045 35.9054H8.17883H5.94508H0.803203H0.00195312V36.9029H40.002V35.9054H39.2007Z" fill="#42ADE2"/>
<path d="M34.4041 7.22725L34.181 7.0085L34.9535 6.21475L34.1348 5.416L34.3529 5.19287L35.3954 6.2085L34.4041 7.22725Z" fill="#42ADE2"/>
<path d="M35.0052 6.05542H32.9414V6.36792H35.0052V6.05542Z" fill="#42ADE2"/>
<path d="M30.4789 25.1621H9.03516V25.7871H30.4789V25.1621Z" fill="white"/>
<path d="M26.6776 27.9784H12.5645V28.6034H26.6776V27.9784Z" fill="white"/>
<path d="M35.4395 20.9634H4.56445V14.7759H35.4395V20.9634Z" fill="white"/>
<path d="M30.4966 19.4996C29.4516 19.5002 28.6041 18.6527 28.6035 17.6077C28.6029 16.5627 29.4504 15.7152 30.4954 15.7146C31.5404 15.714 32.3879 16.5615 32.3885 17.6065C32.3885 17.6071 32.3885 17.6071 32.3885 17.6077C32.3873 18.6521 31.541 19.4983 30.4966 19.4996ZM30.4966 16.3402C29.7966 16.3396 29.2291 16.9071 29.2285 17.6071C29.2279 18.3071 29.7954 18.8746 30.4954 18.8752C31.1954 18.8759 31.7629 18.3084 31.7635 17.6084V17.6077C31.7623 16.9084 31.196 16.3421 30.4966 16.3402Z" fill="#415E72"/>
<path d="M31.7546 18.4237L31.3125 18.8655L32.4002 19.9538L32.8423 19.512L31.7546 18.4237Z" fill="#415E72"/>
</g>
<defs>
<clipPath id="clip0_623_1378">
<rect width="40" height="40" fill="white" transform="translate(0.00195312)"/>
</clipPath>
</defs>
</svg>
