<svg width="20" height="21" viewBox="0 0 20 21" fill="none" xmlns="http://www.w3.org/2000/svg">
<path d="M1.66602 16.9307H18.3327V18.5973H1.66602V16.9307ZM3.33268 10.264H4.99935V16.0973H3.33268V10.264ZM7.49935 10.264H9.16601V16.0973H7.49935V10.264ZM10.8327 10.264H12.4993V16.0973H10.8327V10.264ZM14.9993 10.264H16.666V16.0973H14.9993V10.264ZM1.66602 6.09733L9.99935 1.93066L18.3327 6.09733V9.43066H1.66602V6.09733ZM3.33268 7.12739V7.764H16.666V7.12739L9.99935 3.79406L3.33268 7.12739ZM9.99935 6.93066C9.5391 6.93066 9.16601 6.55756 9.16601 6.09733C9.16601 5.6371 9.5391 5.264 9.99935 5.264C10.4596 5.264 10.8327 5.6371 10.8327 6.09733C10.8327 6.55756 10.4596 6.93066 9.99935 6.93066Z" fill="black"/>
</svg>
