<svg width="20" height="20" viewBox="0 0 20 20" fill="none" xmlns="http://www.w3.org/2000/svg">
<path d="M15.9606 1.66699H14.0125C13.8088 1.66699 13.6398 1.82978 13.6398 2.02608V2.73948C13.6398 2.92621 13.3848 3.07942 13.191 3.07942C12.9972 3.07942 12.742 2.92621 12.742 2.73948V2.02608C12.742 1.82978 12.573 1.66699 12.3692 1.66699H10.504C10.3003 1.66699 10.1313 1.82978 10.1313 2.02608V2.73948C10.1313 2.92621 9.97229 3.07942 9.77848 3.07942H9.60952C9.4157 3.07942 9.25668 2.92621 9.25668 2.73948V2.07875C9.25668 1.88245 9.08771 1.71966 8.88396 1.71966H7.10486C6.9011 1.71966 6.73214 1.88245 6.73214 2.07875V2.73948C6.73214 2.92621 6.57311 3.07942 6.3793 3.07942H6.15567C5.96186 3.07942 5.80283 2.92621 5.80283 2.73948V2.07875C5.80283 1.88245 5.63387 1.71966 5.43012 1.71966H3.37272C3.16897 1.71966 3 1.88245 3 2.07875V17.9219C3 18.1182 3.16897 18.281 3.37272 18.281H5.43012C5.63387 18.281 5.80283 18.1182 5.80283 17.9219V17.2612C5.80283 17.0744 5.96186 16.9212 6.15567 16.9212H6.3793C6.57311 16.9212 6.73214 17.0744 6.73214 17.2612V17.9219C6.73214 18.1182 6.9011 18.281 7.10486 18.281H8.88396C9.08771 18.281 9.25668 18.1182 9.25668 17.9219V17.2612C9.25668 17.0744 9.4157 16.9212 9.60952 16.9212H9.77848C9.97229 16.9212 10.1313 17.0744 10.1313 17.2612V17.9746C10.1313 18.1709 10.3003 18.3337 10.504 18.3337L12.3225 18.3289C12.5263 18.3289 12.6952 18.1661 12.6952 17.9698V17.2564C12.6952 17.0697 12.8047 16.9212 13.2 16.9212C13.5143 16.9212 13.6398 17.0744 13.6398 17.2612V17.9746C13.6398 18.1709 13.8088 18.3337 14.0125 18.3337H15.9606C16.1644 18.3337 16.3333 18.1709 16.3333 17.9746V2.02608C16.3333 1.82978 16.1644 1.66699 15.9606 1.66699ZM15.5879 17.6107H14.3853V17.2564C14.3853 16.6723 13.8816 16.2319 13.287 16.1983C12.6529 16.1624 11.9498 16.6675 11.9498 17.2516V17.6059L10.8768 17.6107V17.2564C10.8768 16.6723 10.3848 16.1983 9.77848 16.1983H9.60952C9.00323 16.1983 8.51124 16.6723 8.51124 17.2564V17.558H7.48254V17.2564C7.48254 16.6723 6.99056 16.1983 6.38427 16.1983H6.16064C5.55435 16.1983 5.06237 16.6723 5.06237 17.2564V17.558H3.7504V2.43784H5.06237V2.73948C5.06237 3.3236 5.55435 3.79761 6.16064 3.79761H6.38427C6.99056 3.79761 7.48254 3.3236 7.48254 2.73948V2.43784H8.51621V2.73948C8.51621 3.3236 9.0082 3.79761 9.61449 3.79761H9.78345C10.3897 3.79761 10.8817 3.3236 10.8817 2.73948V2.38518H12.0015V2.73948C12.0015 3.3236 12.5331 3.79761 13.1393 3.79761C13.7456 3.79761 14.3902 3.3236 14.3902 2.73948V2.38518H15.5929V17.6107H15.5879Z" fill="#292B32" stroke="#292B32" stroke-width="0.75"/>
<path d="M10.9669 5.47363H5.29166C5.08791 5.47363 4.91895 5.63642 4.91895 5.83272C4.91895 6.02903 5.08791 6.19182 5.29166 6.19182H10.9719C11.1756 6.19182 11.3446 6.02903 11.3446 5.83272C11.3446 5.63642 11.1756 5.47363 10.9669 5.47363Z" fill="#292B32"/>
<path d="M14.0474 5.47363H12.8249C12.6211 5.47363 12.4521 5.63642 12.4521 5.83272C12.4521 6.02903 12.6211 6.19182 12.8249 6.19182H14.0474C14.2511 6.19182 14.4201 6.02903 14.4201 5.83272C14.4201 5.63642 14.2561 5.47363 14.0474 5.47363Z" fill="#292B32"/>
<path d="M10.9669 7.76172H5.29166C5.08791 7.76172 4.91895 7.92451 4.91895 8.12081C4.91895 8.31711 5.08791 8.4799 5.29166 8.4799H10.9719C11.1756 8.4799 11.3446 8.31711 11.3446 8.12081C11.3446 7.92451 11.1756 7.76172 10.9669 7.76172Z" fill="#292B32"/>
<path d="M12.8249 8.4799H14.0474C14.2511 8.4799 14.4201 8.31711 14.4201 8.12081C14.4201 7.92451 14.2511 7.76172 14.0474 7.76172H12.8249C12.6211 7.76172 12.4521 7.92451 12.4521 8.12081C12.4521 8.31711 12.6161 8.4799 12.8249 8.4799Z" fill="#292B32"/>
<path d="M7.62598 14.061C6.86182 14.061 6.40039 13.7729 6.25391 13.4092C6.22217 13.3359 6.20752 13.2603 6.20752 13.187C6.20752 12.9624 6.36865 12.811 6.5957 12.811C6.76904 12.811 6.88623 12.8721 7.00098 13.0479C7.12061 13.2676 7.35742 13.3604 7.64062 13.3604C7.98975 13.3604 8.2168 13.2041 8.2168 12.9893C8.2168 12.7939 8.06787 12.6938 7.65039 12.6133L7.28662 12.5449C6.58594 12.4131 6.21973 12.0688 6.21973 11.5317C6.21973 10.853 6.80811 10.416 7.61865 10.416C8.29248 10.416 8.78564 10.6748 8.95654 11.1216C8.98096 11.1826 8.99316 11.2412 8.99316 11.3145C8.99316 11.522 8.8418 11.6611 8.61719 11.6636C8.42188 11.6636 8.2998 11.5928 8.19482 11.4219C8.08008 11.2021 7.88477 11.1167 7.62598 11.1167C7.30127 11.1167 7.11084 11.2632 7.11084 11.4707C7.11084 11.6562 7.26953 11.7588 7.65283 11.832L8.01416 11.9004C8.76611 12.0444 9.10791 12.3496 9.10791 12.9038C9.10791 13.6118 8.55371 14.061 7.62598 14.061ZM9.97217 14.0562C9.68896 14.0562 9.52295 13.8853 9.52295 13.5898V10.9458C9.52295 10.6479 9.68896 10.4771 9.97217 10.4771H11.0317C11.9106 10.4771 12.3843 10.9116 12.3843 11.6392C12.3843 12.0542 12.1938 12.4253 11.835 12.606L12.2671 13.3408C12.3452 13.4702 12.3623 13.5435 12.3623 13.6484C12.3623 13.8853 12.1768 14.0562 11.9155 14.0562C11.6982 14.0562 11.6055 13.9805 11.4541 13.707L10.9316 12.7671H10.4189V13.5898C10.4189 13.8853 10.2554 14.0562 9.97217 14.0562ZM10.4189 12.1543H10.9438C11.2734 12.1543 11.4688 11.9614 11.4688 11.6562C11.4688 11.356 11.2612 11.1533 10.9414 11.1533H10.4189V12.1543Z" fill="#6EB925"/>
</svg>
