<svg width="18" height="16" viewBox="0 0 18 16" fill="none" xmlns="http://www.w3.org/2000/svg">
<path d="M14.8327 14.1663H3.16602V14.9997C3.16602 15.4599 2.79292 15.833 2.33268 15.833H1.49935C1.03912 15.833 0.666016 15.4599 0.666016 14.9997V6.66634L2.7331 1.84314C2.99573 1.23033 3.5983 0.833008 4.26501 0.833008H13.7337C14.4004 0.833008 15.0029 1.23033 15.2656 1.84314L17.3327 6.66634V14.9997C17.3327 15.4599 16.9596 15.833 16.4993 15.833H15.666C15.2058 15.833 14.8327 15.4599 14.8327 14.9997V14.1663ZM15.666 8.33301H2.33268V12.4997H15.666V8.33301ZM2.4793 6.66634H15.5194L13.7337 2.49967H4.26501L2.4793 6.66634ZM4.41601 11.6663C3.72566 11.6663 3.16602 11.1067 3.16602 10.4163C3.16602 9.72601 3.72566 9.16634 4.41601 9.16634C5.10637 9.16634 5.66601 9.72601 5.66601 10.4163C5.66601 11.1067 5.10637 11.6663 4.41601 11.6663ZM13.5827 11.6663C12.8923 11.6663 12.3327 11.1067 12.3327 10.4163C12.3327 9.72601 12.8923 9.16634 13.5827 9.16634C14.273 9.16634 14.8327 9.72601 14.8327 10.4163C14.8327 11.1067 14.273 11.6663 13.5827 11.6663Z" fill="black"/>
</svg>
