<svg width="20" height="21" viewBox="0 0 20 21" fill="none" xmlns="http://www.w3.org/2000/svg">
<path d="M15.8327 16.1937H4.16602V17.027C4.16602 17.4873 3.79292 17.8604 3.33268 17.8604H2.49935C2.03912 17.8604 1.66602 17.4873 1.66602 17.027V8.69368L3.7331 3.87048C3.99573 3.25768 4.5983 2.86035 5.26501 2.86035H14.7337C15.4004 2.86035 16.0029 3.25768 16.2656 3.87048L18.3327 8.69368V17.027C18.3327 17.4873 17.9596 17.8604 17.4993 17.8604H16.666C16.2058 17.8604 15.8327 17.4873 15.8327 17.027V16.1937ZM16.666 10.3604H3.33268V14.527H16.666V10.3604ZM3.4793 8.69368H16.5194L14.7337 4.52702H5.26501L3.4793 8.69368ZM5.41601 13.6937C4.72566 13.6937 4.16602 13.134 4.16602 12.4437C4.16602 11.7534 4.72566 11.1937 5.41601 11.1937C6.10637 11.1937 6.66601 11.7534 6.66601 12.4437C6.66601 13.134 6.10637 13.6937 5.41601 13.6937ZM14.5827 13.6937C13.8923 13.6937 13.3327 13.134 13.3327 12.4437C13.3327 11.7534 13.8923 11.1937 14.5827 11.1937C15.273 11.1937 15.8327 11.7534 15.8327 12.4437C15.8327 13.134 15.273 13.6937 14.5827 13.6937Z" fill="white"/>
</svg>
