<svg width="20" height="21" viewBox="0 0 20 21" fill="none" xmlns="http://www.w3.org/2000/svg">
<path d="M15.8327 16.1663H4.16602V16.9997C4.16602 17.4599 3.79292 17.833 3.33268 17.833H2.49935C2.03912 17.833 1.66602 17.4599 1.66602 16.9997V8.66634L3.7331 3.84314C3.99573 3.23033 4.5983 2.83301 5.26501 2.83301H14.7337C15.4004 2.83301 16.0029 3.23033 16.2656 3.84314L18.3327 8.66634V16.9997C18.3327 17.4599 17.9596 17.833 17.4993 17.833H16.666C16.2058 17.833 15.8327 17.4599 15.8327 16.9997V16.1663ZM16.666 10.333H3.33268V14.4997H16.666V10.333ZM3.4793 8.66634H16.5194L14.7337 4.49967H5.26501L3.4793 8.66634ZM5.41601 13.6663C4.72566 13.6663 4.16602 13.1067 4.16602 12.4163C4.16602 11.726 4.72566 11.1663 5.41601 11.1663C6.10637 11.1663 6.66601 11.726 6.66601 12.4163C6.66601 13.1067 6.10637 13.6663 5.41601 13.6663ZM14.5827 13.6663C13.8923 13.6663 13.3327 13.1067 13.3327 12.4163C13.3327 11.726 13.8923 11.1663 14.5827 11.1663C15.273 11.1663 15.8327 11.726 15.8327 12.4163C15.8327 13.1067 15.273 13.6663 14.5827 13.6663Z" fill="black"/>
</svg>
