<svg width="20" height="20" viewBox="0 0 20 20" fill="none" xmlns="http://www.w3.org/2000/svg">
<g clip-path="url(#clip0_422_3626)">
<path d="M10.0003 9.16699C11.1054 9.16699 12.1652 9.60598 12.9466 10.3874C13.728 11.1688 14.167 12.2286 14.167 13.3337V18.3337H12.5003V13.3337C12.5004 12.696 12.2567 12.0824 11.8193 11.6184C11.3818 11.1545 10.7836 10.8752 10.147 10.8378L10.0003 10.8337C9.36265 10.8336 8.74906 11.0773 8.28511 11.5147C7.82115 11.9522 7.5419 12.5504 7.50449 13.187L7.50032 13.3337V18.3337H5.83366V13.3337C5.83366 12.2286 6.27264 11.1688 7.05405 10.3874C7.83545 9.60598 8.89526 9.16699 10.0003 9.16699ZM4.58366 11.667C4.81616 11.667 5.04199 11.6945 5.25866 11.7453C5.11618 12.1695 5.0318 12.611 5.00782 13.0578L5.00032 13.3337V13.4053C4.90454 13.371 4.8049 13.3487 4.70366 13.3387L4.58366 13.3337C4.27292 13.3337 3.97333 13.4494 3.74331 13.6583C3.51329 13.8673 3.36932 14.1544 3.33949 14.4637L3.33366 14.5837V18.3337H1.66699V14.5837C1.66699 13.8101 1.97428 13.0682 2.52126 12.5213C3.06824 11.9743 3.81011 11.667 4.58366 11.667ZM15.417 11.667C16.1905 11.667 16.9324 11.9743 17.4794 12.5213C18.0264 13.0682 18.3337 13.8101 18.3337 14.5837V18.3337H16.667V14.5837C16.667 14.2729 16.5512 13.9733 16.3423 13.7433C16.1334 13.5133 15.8463 13.3693 15.537 13.3395L15.417 13.3337C15.2712 13.3337 15.1312 13.3587 15.0003 13.4045V13.3337C15.0003 12.7787 14.9103 12.2453 14.7428 11.747C14.9587 11.6945 15.1845 11.667 15.417 11.667ZM4.58366 6.66699C5.13619 6.66699 5.6661 6.88648 6.0568 7.27719C6.4475 7.66789 6.66699 8.19779 6.66699 8.75032C6.66699 9.30286 6.4475 9.83276 6.0568 10.2235C5.6661 10.6142 5.13619 10.8337 4.58366 10.8337C4.03112 10.8337 3.50122 10.6142 3.11052 10.2235C2.71982 9.83276 2.50033 9.30286 2.50033 8.75032C2.50033 8.19779 2.71982 7.66789 3.11052 7.27719C3.50122 6.88648 4.03112 6.66699 4.58366 6.66699ZM15.417 6.66699C15.9695 6.66699 16.4994 6.88648 16.8901 7.27719C17.2808 7.66789 17.5003 8.19779 17.5003 8.75032C17.5003 9.30286 17.2808 9.83276 16.8901 10.2235C16.4994 10.6142 15.9695 10.8337 15.417 10.8337C14.8645 10.8337 14.3346 10.6142 13.9439 10.2235C13.5532 9.83276 13.3337 9.30286 13.3337 8.75032C13.3337 8.19779 13.5532 7.66789 13.9439 7.27719C14.3346 6.88648 14.8645 6.66699 15.417 6.66699ZM4.58366 8.33366C4.47315 8.33366 4.36717 8.37756 4.28903 8.4557C4.21089 8.53384 4.16699 8.63982 4.16699 8.75032C4.16699 8.86083 4.21089 8.96681 4.28903 9.04495C4.36717 9.12309 4.47315 9.16699 4.58366 9.16699C4.69417 9.16699 4.80015 9.12309 4.87829 9.04495C4.95643 8.96681 5.00032 8.86083 5.00032 8.75032C5.00032 8.63982 4.95643 8.53384 4.87829 8.4557C4.80015 8.37756 4.69417 8.33366 4.58366 8.33366ZM15.417 8.33366C15.3065 8.33366 15.2005 8.37756 15.1224 8.4557C15.0442 8.53384 15.0003 8.63982 15.0003 8.75032C15.0003 8.86083 15.0442 8.96681 15.1224 9.04495C15.2005 9.12309 15.3065 9.16699 15.417 9.16699C15.5275 9.16699 15.6335 9.12309 15.7116 9.04495C15.7898 8.96681 15.8337 8.86083 15.8337 8.75032C15.8337 8.63982 15.7898 8.53384 15.7116 8.4557C15.6335 8.37756 15.5275 8.33366 15.417 8.33366ZM10.0003 1.66699C10.8844 1.66699 11.7322 2.01818 12.3573 2.6433C12.9825 3.26842 13.3337 4.11627 13.3337 5.00032C13.3337 5.88438 12.9825 6.73223 12.3573 7.35735C11.7322 7.98247 10.8844 8.33366 10.0003 8.33366C9.11627 8.33366 8.26842 7.98247 7.6433 7.35735C7.01818 6.73223 6.66699 5.88438 6.66699 5.00032C6.66699 4.11627 7.01818 3.26842 7.6433 2.6433C8.26842 2.01818 9.11627 1.66699 10.0003 1.66699ZM10.0003 3.33366C9.5583 3.33366 9.13437 3.50925 8.82181 3.82181C8.50925 4.13437 8.33366 4.5583 8.33366 5.00032C8.33366 5.44235 8.50925 5.86628 8.82181 6.17884C9.13437 6.4914 9.5583 6.66699 10.0003 6.66699C10.4424 6.66699 10.8663 6.4914 11.1788 6.17884C11.4914 5.86628 11.667 5.44235 11.667 5.00032C11.667 4.5583 11.4914 4.13437 11.1788 3.82181C10.8663 3.50925 10.4424 3.33366 10.0003 3.33366Z" fill="black"/>
</g>
<defs>
<clipPath id="clip0_422_3626">
<rect width="20" height="20" fill="white"/>
</clipPath>
</defs>
</svg>
