<svg width="20" height="20" viewBox="0 0 20 20" fill="none" xmlns="http://www.w3.org/2000/svg">
<g clip-path="url(#clip0_1037_4537)">
<path d="M6.07617 17.3537L1.667 18.3337L2.647 13.9245C2.00161 12.7173 1.66494 11.3692 1.667 10.0003C1.667 5.39783 5.39784 1.66699 10.0003 1.66699C14.6028 1.66699 18.3337 5.39783 18.3337 10.0003C18.3337 14.6028 14.6028 18.3337 10.0003 18.3337C8.63146 18.3357 7.28335 17.999 6.07617 17.3537ZM6.31783 15.5928L6.862 15.8845C7.82746 16.4004 8.90566 16.6693 10.0003 16.667C11.3189 16.667 12.6078 16.276 13.7041 15.5435C14.8005 14.8109 15.6549 13.7697 16.1595 12.5515C16.6641 11.3334 16.7961 9.99293 16.5389 8.69972C16.2817 7.40652 15.6467 6.21863 14.7144 5.28628C13.782 4.35393 12.5941 3.71899 11.3009 3.46176C10.0077 3.20452 8.66729 3.33654 7.44911 3.84113C6.23094 4.34571 5.18975 5.2002 4.4572 6.29652C3.72466 7.39285 3.33367 8.68178 3.33367 10.0003C3.33367 11.112 3.6045 12.182 4.117 13.1387L4.40783 13.6828L3.862 16.1387L6.31783 15.5928Z" fill="black"/>
</g>
<defs>
<clipPath id="clip0_1037_4537">
<rect width="20" height="20" fill="white"/>
</clipPath>
</defs>
</svg>
