<svg width="20" height="21" viewBox="0 0 20 21" fill="none" xmlns="http://www.w3.org/2000/svg">
<path d="M3.33333 9.97208L0 8.02767L10 2.19434L20 8.02767V15.111H18.3333V8.99992L16.6667 9.97208V15.5371L16.4812 15.7663C14.9547 17.6526 12.6182 18.861 10 18.861C7.38181 18.861 5.04524 17.6526 3.51886 15.7663L3.33333 15.5371V9.97208ZM5 10.9443V14.9374C6.22267 16.3227 8.00927 17.1943 10 17.1943C11.9907 17.1943 13.7773 16.3227 15 14.9374V10.9443L10 13.861L5 10.9443ZM3.30772 8.02767L10 11.9315L16.6922 8.02767L10 4.12384L3.30772 8.02767Z" fill="black"/>
</svg>
