<svg width="20" height="19" viewBox="0 0 20 19" fill="none" xmlns="http://www.w3.org/2000/svg">
<path d="M17.9269 12.1082V12.794C17.9279 13.1228 17.8639 13.4485 17.7386 13.7525C17.6133 14.0564 17.429 14.3326 17.1966 14.5651C16.9641 14.7975 16.6879 14.9818 16.384 15.1071C16.08 15.2324 15.7543 15.2964 15.4255 15.2954H11.5292C11.2004 15.2964 10.8747 15.2324 10.5707 15.1071C10.2668 14.9818 9.99059 14.7975 9.75811 14.5651C9.52562 14.3326 9.34141 14.0564 9.21606 13.7525C9.09072 13.4485 9.02672 13.1228 9.02775 12.794V10.8224L1.53125 7.84567V7.06641H12.9241C13.584 7.06742 14.2373 7.19881 14.8464 7.45302C15.4554 7.70724 16.0083 8.07927 16.4731 8.54776C16.938 9.01624 17.3057 9.57195 17.5552 10.183C17.8047 10.794 17.931 11.4483 17.9269 12.1082Z" stroke="black" stroke-width="1.4" stroke-miterlimit="10" stroke-linecap="round" stroke-linejoin="round"/>
<path d="M11.2168 15.2959V18.2805" stroke="black" stroke-width="1.4" stroke-miterlimit="10" stroke-linecap="round" stroke-linejoin="round"/>
<path d="M14.9492 15.2959V18.2805" stroke="black" stroke-width="1.4" stroke-miterlimit="10" stroke-linecap="round" stroke-linejoin="round"/>
<path d="M17.9264 16.792C17.9264 17.1867 17.7696 17.5653 17.4905 17.8444C17.2113 18.1236 16.8328 18.2804 16.438 18.2804H8.98828" stroke="black" stroke-width="1.4" stroke-miterlimit="10" stroke-linecap="round" stroke-linejoin="round"/>
<path d="M17.9262 12.1093V12.3197H13.4532C13.0578 12.3176 12.6792 12.1591 12.4003 11.8787C12.1214 11.5984 11.9648 11.219 11.9648 10.8235V7.09863H12.9233" stroke="black" stroke-width="1.4" stroke-miterlimit="10" stroke-linecap="round" stroke-linejoin="round"/>
<path d="M1.53125 4.86133V7.8459" stroke="black" stroke-width="1.4" stroke-miterlimit="10" stroke-linecap="round" stroke-linejoin="round"/>
<path d="M3.76758 2.625H18.6749" stroke="black" stroke-width="1.4" stroke-miterlimit="10" stroke-linecap="round" stroke-linejoin="round"/>
<path d="M11.2168 4.86159V1.13672" stroke="black" stroke-width="1.4" stroke-miterlimit="10" stroke-linecap="round" stroke-linejoin="round"/>
<path d="M13.4534 7.09781H8.98047L9.72856 4.86133H12.7131L13.4534 7.09781Z" stroke="black" stroke-width="1.4" stroke-miterlimit="10" stroke-linecap="round" stroke-linejoin="round"/>
</svg>
