<svg width="20" height="21" viewBox="0 0 20 21" fill="none" xmlns="http://www.w3.org/2000/svg">
<path d="M17.9269 13.1082V13.794C17.9279 14.1228 17.8639 14.4485 17.7386 14.7525C17.6133 15.0564 17.429 15.3326 17.1966 15.5651C16.9641 15.7975 16.6879 15.9818 16.384 16.1071C16.08 16.2324 15.7543 16.2964 15.4255 16.2954H11.5292C11.2004 16.2964 10.8747 16.2324 10.5707 16.1071C10.2668 15.9818 9.99059 15.7975 9.75811 15.5651C9.52562 15.3326 9.34141 15.0564 9.21606 14.7525C9.09072 14.4485 9.02672 14.1228 9.02775 13.794V11.8224L1.53125 8.84567V8.06641H12.9241C13.584 8.06742 14.2373 8.19881 14.8464 8.45302C15.4554 8.70724 16.0083 9.07927 16.4731 9.54776C16.938 10.0162 17.3057 10.572 17.5552 11.183C17.8047 11.794 17.931 12.4483 17.9269 13.1082Z" stroke="black" stroke-width="1.4" stroke-miterlimit="10" stroke-linecap="round" stroke-linejoin="round"/>
<path d="M11.2168 16.2959V19.2805" stroke="black" stroke-width="1.4" stroke-miterlimit="10" stroke-linecap="round" stroke-linejoin="round"/>
<path d="M14.9492 16.2959V19.2805" stroke="black" stroke-width="1.4" stroke-miterlimit="10" stroke-linecap="round" stroke-linejoin="round"/>
<path d="M17.9264 17.792C17.9264 18.1867 17.7696 18.5653 17.4905 18.8444C17.2113 19.1236 16.8328 19.2804 16.438 19.2804H8.98828" stroke="black" stroke-width="1.4" stroke-miterlimit="10" stroke-linecap="round" stroke-linejoin="round"/>
<path d="M17.9262 13.1093V13.3197H13.4532C13.0578 13.3176 12.6792 13.1591 12.4003 12.8787C12.1214 12.5984 11.9648 12.219 11.9648 11.8235V8.09863H12.9233" stroke="black" stroke-width="1.4" stroke-miterlimit="10" stroke-linecap="round" stroke-linejoin="round"/>
<path d="M1.53125 5.86133V8.8459" stroke="black" stroke-width="1.4" stroke-miterlimit="10" stroke-linecap="round" stroke-linejoin="round"/>
<path d="M3.76758 3.625H18.6749" stroke="black" stroke-width="1.4" stroke-miterlimit="10" stroke-linecap="round" stroke-linejoin="round"/>
<path d="M11.2168 5.86159V2.13672" stroke="black" stroke-width="1.4" stroke-miterlimit="10" stroke-linecap="round" stroke-linejoin="round"/>
<path d="M13.4534 8.09781H8.98047L9.72856 5.86133H12.7131L13.4534 8.09781Z" stroke="black" stroke-width="1.4" stroke-miterlimit="10" stroke-linecap="round" stroke-linejoin="round"/>
</svg>
