<svg width="20" height="20" viewBox="0 0 20 20" fill="none" xmlns="http://www.w3.org/2000/svg">
<g clip-path="url(#clip0_1037_4521)">
<path d="M5.19616 5.37783C4.13369 6.48057 3.48324 7.91545 3.35413 9.4413C3.22503 10.9671 3.62513 12.4909 4.48721 13.7565C5.34928 15.0221 6.62075 15.9523 8.08792 16.3908C9.55508 16.8294 11.1285 16.7494 12.5437 16.1645C12.6395 15.5395 12.4295 14.9395 12.3437 14.7295C12.152 14.2628 11.5203 13.4653 10.4662 12.3595C10.1845 12.0637 10.2028 11.8362 10.3037 11.162L10.3145 11.0862C10.3828 10.6245 10.4978 10.3512 12.052 10.1045C12.842 9.97949 13.0495 10.2945 13.337 10.732L13.4337 10.8753C13.707 11.2753 13.9095 11.367 14.2153 11.5053C14.3528 11.5678 14.5237 11.647 14.7528 11.7762C15.2962 12.087 15.2962 12.4378 15.2962 13.2062V13.2937C15.2962 13.6195 15.2645 13.9062 15.2145 14.1553C15.854 13.3528 16.2996 12.4134 16.5166 11.4105C16.7337 10.4075 16.7164 9.36801 16.466 8.37285C16.2156 7.37769 15.7389 6.45375 15.0731 5.67294C14.4072 4.89214 13.5701 4.27554 12.627 3.87116C12.1662 4.18199 11.5337 4.62282 11.3128 4.92532C11.2003 5.07949 11.0403 5.86866 10.5212 5.93366C10.3862 5.95032 10.2037 5.93866 10.0103 5.92616C9.49199 5.89282 8.78366 5.84699 8.55699 6.46282C8.41282 6.85282 8.38782 7.91282 8.85366 8.46282C8.92866 8.55032 8.94282 8.71282 8.89199 8.89532C8.82532 9.13449 8.69116 9.28032 8.64866 9.31032C8.56866 9.26366 8.40866 9.07782 8.29949 8.95199C8.03866 8.64782 7.71199 8.26866 7.29032 8.15199C7.13699 8.10949 6.96866 8.07449 6.80449 8.03949C6.34699 7.94366 5.82949 7.83449 5.70866 7.57783C5.62032 7.38949 5.62116 7.13032 5.62116 6.85699C5.62116 6.50949 5.62116 6.11699 5.45116 5.73616C5.39206 5.60025 5.3052 5.47819 5.19616 5.37783ZM10.0003 18.3337C5.39783 18.3337 1.66699 14.6028 1.66699 10.0003C1.66699 5.39783 5.39783 1.66699 10.0003 1.66699C14.6028 1.66699 18.3337 5.39783 18.3337 10.0003C18.3337 14.6028 14.6028 18.3337 10.0003 18.3337Z" fill="black"/>
</g>
<defs>
<clipPath id="clip0_1037_4521">
<rect width="20" height="20" fill="white"/>
</clipPath>
</defs>
</svg>
