<svg width="20" height="20" viewBox="0 0 20 20" fill="none" xmlns="http://www.w3.org/2000/svg">
<g clip-path="url(#clip0_1037_4544)">
<path d="M5.83366 3.33366V16.667H14.167V3.33366H5.83366ZM5.00033 1.66699H15.0003C15.2213 1.66699 15.4333 1.75479 15.5896 1.91107C15.7459 2.06735 15.8337 2.27931 15.8337 2.50033V17.5003C15.8337 17.7213 15.7459 17.9333 15.5896 18.0896C15.4333 18.2459 15.2213 18.3337 15.0003 18.3337H5.00033C4.77931 18.3337 4.56735 18.2459 4.41107 18.0896C4.25479 17.9333 4.16699 17.7213 4.16699 17.5003V2.50033C4.16699 2.27931 4.25479 2.06735 4.41107 1.91107C4.56735 1.75479 4.77931 1.66699 5.00033 1.66699ZM10.0003 14.167C10.2213 14.167 10.4333 14.2548 10.5896 14.4111C10.7459 14.5673 10.8337 14.7793 10.8337 15.0003C10.8337 15.2213 10.7459 15.4333 10.5896 15.5896C10.4333 15.7459 10.2213 15.8337 10.0003 15.8337C9.77931 15.8337 9.56735 15.7459 9.41107 15.5896C9.25479 15.4333 9.16699 15.2213 9.16699 15.0003C9.16699 14.7793 9.25479 14.5673 9.41107 14.4111C9.56735 14.2548 9.77931 14.167 10.0003 14.167Z" fill="black"/>
</g>
<defs>
<clipPath id="clip0_1037_4544">
<rect width="20" height="20" fill="white"/>
</clipPath>
</defs>
</svg>
