<svg width="20" height="20" viewBox="0 0 20 20" fill="none" xmlns="http://www.w3.org/2000/svg">
<g clip-path="url(#clip0_422_3482)">
<path d="M18.3337 16.667H1.66699V15.0003H2.50033V9.19282C2.50033 5.03616 5.85866 1.66699 10.0003 1.66699C14.142 1.66699 17.5003 5.03616 17.5003 9.19282V15.0003H18.3337V16.667ZM4.16699 15.0003H15.8337V9.19282C15.8337 5.95699 13.222 3.33366 10.0003 3.33366C6.77866 3.33366 4.16699 5.95699 4.16699 9.19282V15.0003ZM7.91699 17.5003H12.0837C12.0837 18.0529 11.8642 18.5828 11.4735 18.9735C11.0828 19.3642 10.5529 19.5837 10.0003 19.5837C9.44779 19.5837 8.91789 19.3642 8.52719 18.9735C8.13648 18.5828 7.91699 18.0529 7.91699 17.5003Z" fill="black"/>
</g>
<defs>
<clipPath id="clip0_422_3482">
<rect width="20" height="20" fill="white"/>
</clipPath>
</defs>
</svg>
