<svg width="20" height="20" viewBox="0 0 20 20" fill="none" xmlns="http://www.w3.org/2000/svg">
<g clip-path="url(#clip0_422_3629)">
<path d="M4.16634 7.5C4.38735 7.5 4.59932 7.5878 4.7556 7.74408C4.91188 7.90036 4.99967 8.11232 4.99967 8.33334C6.30896 8.33141 7.58049 8.77189 8.60801 9.58334H10.4163C11.5263 9.58334 12.5247 10.0658 13.2105 10.8325L15.833 10.8333C16.6207 10.8331 17.3924 11.0562 18.0585 11.4767C18.7245 11.8972 19.2578 12.4979 19.5963 13.2092C17.6255 15.81 14.4347 17.5 10.833 17.5C8.50801 17.5 6.54134 16.9975 4.94967 16.1183C4.89138 16.2792 4.78487 16.4182 4.64469 16.5163C4.5045 16.6145 4.33746 16.667 4.16634 16.6667H1.66634C1.44533 16.6667 1.23337 16.5789 1.07709 16.4226C0.920805 16.2663 0.833008 16.0544 0.833008 15.8333V8.33334C0.833008 8.11232 0.920805 7.90036 1.07709 7.74408C1.23337 7.5878 1.44533 7.5 1.66634 7.5H4.16634ZM5.00051 10L4.99967 14.1842L5.03717 14.2117C6.53301 15.2617 8.48134 15.8333 10.833 15.8333C13.3363 15.8333 15.6655 14.87 17.3622 13.225L17.473 13.1142L17.373 13.0308C16.9795 12.7226 16.5025 12.5397 16.0038 12.5058L15.833 12.5L14.073 12.4992C14.1338 12.7675 14.1663 13.0467 14.1663 13.3333V14.1667H6.66634V12.5L12.3247 12.4992L12.2963 12.4342C12.1366 12.1005 11.891 11.8153 11.5846 11.6079C11.2782 11.4005 10.9222 11.2784 10.553 11.2542L10.4163 11.25H7.97467C7.58744 10.8539 7.1249 10.5393 6.61428 10.3247C6.10365 10.11 5.55525 9.9996 5.00134 10H5.00051ZM3.33301 9.16667H2.49967V15H3.33301V9.16667ZM11.3713 2.97917L11.6663 3.275L11.9613 2.98C12.1545 2.78519 12.3843 2.63044 12.6374 2.52465C12.8905 2.41887 13.1621 2.36412 13.4364 2.36356C13.7108 2.363 13.9826 2.41663 14.2361 2.52138C14.4897 2.62613 14.7201 2.77993 14.9141 2.97396C15.108 3.16798 15.2618 3.39841 15.3664 3.65201C15.4711 3.90561 15.5247 4.17739 15.524 4.45174C15.5234 4.7261 15.4686 4.99762 15.3627 5.25073C15.2569 5.50384 15.102 5.73355 14.9072 5.92667L11.6663 9.16667L8.42467 5.925C8.22986 5.73183 8.07511 5.50208 7.96933 5.24894C7.86354 4.9958 7.80879 4.72426 7.80823 4.4499C7.80767 4.17555 7.8613 3.90379 7.96605 3.65022C8.0708 3.39664 8.2246 3.16626 8.41863 2.97229C8.61265 2.77832 8.84308 2.62458 9.09668 2.51991C9.35028 2.41523 9.62206 2.36167 9.89641 2.36231C10.1708 2.36295 10.4423 2.41777 10.6954 2.52363C10.9485 2.62949 11.1782 2.7843 11.3713 2.97917ZM9.60467 4.15834C9.53561 4.22702 9.49279 4.31773 9.48365 4.41471C9.47452 4.51169 9.49965 4.6088 9.55467 4.68917L9.60301 4.74667L11.6663 6.80834L13.7297 4.74667C13.7987 4.67773 13.8413 4.58675 13.8502 4.48959C13.859 4.39244 13.8335 4.29526 13.778 4.215L13.7297 4.15667C13.6606 4.08777 13.5696 4.04529 13.4724 4.03661C13.3753 4.02793 13.2782 4.05361 13.198 4.10917L13.1397 4.1575L11.6655 5.63084L10.193 4.15584L10.1363 4.10917C10.0561 4.05371 9.95891 4.02817 9.86175 4.037C9.76459 4.04584 9.67362 4.08848 9.60467 4.1575V4.15834Z" fill="black"/>
</g>
<defs>
<clipPath id="clip0_422_3629">
<rect width="20" height="20" fill="white"/>
</clipPath>
</defs>
</svg>
