<svg width="18" height="16" viewBox="0 0 18 16" fill="none" xmlns="http://www.w3.org/2000/svg">
<path d="M13.167 14.1667H4.83366V15C4.83366 15.4603 4.46056 15.8333 4.00032 15.8333H3.16699C2.70676 15.8333 2.33366 15.4603 2.33366 15V14.1667H1.50033V7.5H0.666992V4.16667H1.50033V1.66667C1.50033 0.746192 2.24652 0 3.16699 0H14.8337C15.7542 0 16.5003 0.746192 16.5003 1.66667V4.16667H17.3337V7.5H16.5003V14.1667H15.667V15C15.667 15.4603 15.2939 15.8333 14.8337 15.8333H14.0003C13.5401 15.8333 13.167 15.4603 13.167 15V14.1667ZM14.8337 7.5V1.66667H3.16699V7.5H14.8337ZM14.8337 9.16667H3.16699V12.5H14.8337V9.16667ZM4.00032 10H7.33366V11.6667H4.00032V10ZM10.667 10H14.0003V11.6667H10.667V10Z" fill="black"/>
</svg>
