<svg width="20" height="21" viewBox="0 0 20 21" fill="none" xmlns="http://www.w3.org/2000/svg">
<path d="M14.167 17.1667H5.83366V18C5.83366 18.4603 5.46056 18.8333 5.00032 18.8333H4.16699C3.70676 18.8333 3.33366 18.4603 3.33366 18V17.1667H2.50033V10.5H1.66699V7.16667H2.50033V4.66667C2.50033 3.74619 3.24652 3 4.16699 3H15.8337C16.7542 3 17.5003 3.74619 17.5003 4.66667V7.16667H18.3337V10.5H17.5003V17.1667H16.667V18C16.667 18.4603 16.2939 18.8333 15.8337 18.8333H15.0003C14.5401 18.8333 14.167 18.4603 14.167 18V17.1667ZM15.8337 10.5V4.66667H4.16699V10.5H15.8337ZM15.8337 12.1667H4.16699V15.5H15.8337V12.1667ZM5.00032 13H8.33366V14.6667H5.00032V13ZM11.667 13H15.0003V14.6667H11.667V13Z" fill="black"/>
</svg>
