<svg width="20" height="20" viewBox="0 0 20 20" fill="none" xmlns="http://www.w3.org/2000/svg">
<g clip-path="url(#clip0_1037_4551)">
<path d="M14.167 5.00032H18.3337V6.66699H16.667V17.5003C16.667 17.7213 16.5792 17.9333 16.4229 18.0896C16.2666 18.2459 16.0547 18.3337 15.8337 18.3337H4.16699C3.94598 18.3337 3.73402 18.2459 3.57774 18.0896C3.42146 17.9333 3.33366 17.7213 3.33366 17.5003V6.66699H1.66699V5.00032H5.83366V2.50033C5.83366 2.27931 5.92146 2.06735 6.07774 1.91107C6.23402 1.75479 6.44598 1.66699 6.66699 1.66699H13.3337C13.5547 1.66699 13.7666 1.75479 13.9229 1.91107C14.0792 2.06735 14.167 2.27931 14.167 2.50033V5.00032ZM15.0003 6.66699H5.00032V16.667H15.0003V6.66699ZM7.50032 9.16699H9.16699V14.167H7.50032V9.16699ZM10.8337 9.16699H12.5003V14.167H10.8337V9.16699ZM7.50032 3.33366V5.00032H12.5003V3.33366H7.50032Z" fill="black"/>
</g>
<defs>
<clipPath id="clip0_1037_4551">
<rect width="20" height="20" fill="white"/>
</clipPath>
</defs>
</svg>
