<svg width="20" height="20" viewBox="0 0 20 20" fill="none" xmlns="http://www.w3.org/2000/svg">
<g clip-path="url(#clip0_422_3623)">
<path d="M11.1175 3.33301C10.9287 3.86836 10.8326 4.432 10.8333 4.99967H4.16667V16.6663H15.8333V9.99967C16.401 10.0004 16.9646 9.90431 17.5 9.71551V17.4997C17.5 17.7207 17.4122 17.9326 17.2559 18.0889C17.0996 18.2452 16.8877 18.333 16.6667 18.333H3.33333C3.11232 18.333 2.90036 18.2452 2.74408 18.0889C2.5878 17.9326 2.5 17.7207 2.5 17.4997V4.16634C2.5 3.94533 2.5878 3.73337 2.74408 3.57709C2.90036 3.42081 3.11232 3.33301 3.33333 3.33301H11.1175Z" fill="black"/>
<path fill-rule="evenodd" clip-rule="evenodd" d="M15.8333 8.33366C14.9493 8.33366 14.1014 7.98247 13.4763 7.35735C12.8512 6.73223 12.5 5.88438 12.5 5.00032C12.5 4.11627 12.8512 3.26842 13.4763 2.6433C14.1014 2.01818 14.9493 1.66699 15.8333 1.66699C16.7174 1.66699 17.5652 2.01818 18.1904 2.6433C18.8155 3.26842 19.1667 4.11627 19.1667 5.00032C19.1667 5.88438 18.8155 6.73223 18.1904 7.35735C17.5652 7.98247 16.7174 8.33366 15.8333 8.33366ZM17.0118 6.17884C16.6993 6.4914 16.2754 6.66699 15.8333 6.66699C15.3913 6.66699 14.9674 6.4914 14.6548 6.17884C14.3423 5.86628 14.1667 5.44235 14.1667 5.00032C14.1667 4.5583 14.3423 4.13437 14.6548 3.82181C14.9674 3.50925 15.3913 3.33366 15.8333 3.33366C16.2754 3.33366 16.6993 3.50925 17.0118 3.82181C17.3244 4.13437 17.5 4.5583 17.5 5.00032C17.5 5.44235 17.3244 5.86628 17.0118 6.17884Z" fill="#FF3B30"/>
</g>
<defs>
<clipPath id="clip0_422_3623">
<rect width="20" height="20" fill="white"/>
</clipPath>
</defs>
</svg>
