<svg width="20" height="20" viewBox="0 0 20 20" fill="none" xmlns="http://www.w3.org/2000/svg">
<path d="M6.66634 5.83366C4.36516 5.83366 2.49967 7.69914 2.49967 10.0003C2.49967 12.3015 4.36516 14.167 6.66634 14.167H13.333C15.6342 14.167 17.4997 12.3015 17.4997 10.0003C17.4997 7.69914 15.6342 5.83366 13.333 5.83366H6.66634ZM6.66634 4.16699H13.333C16.5547 4.16699 19.1663 6.77867 19.1663 10.0003C19.1663 13.222 16.5547 15.8337 13.333 15.8337H6.66634C3.44468 15.8337 0.833008 13.222 0.833008 10.0003C0.833008 6.77867 3.44468 4.16699 6.66634 4.16699ZM6.66634 12.5003C5.28563 12.5003 4.16634 11.3811 4.16634 10.0003C4.16634 8.61958 5.28563 7.50033 6.66634 7.50033C8.04705 7.50033 9.16634 8.61958 9.16634 10.0003C9.16634 11.3811 8.04705 12.5003 6.66634 12.5003Z" fill="black"/>
</svg>
