<svg width="20" height="20" viewBox="0 0 20 20" fill="none" xmlns="http://www.w3.org/2000/svg">
<path d="M8.66424 6.1488H17.2595C17.8528 6.1488 18.3339 5.66776 18.3339 5.0744C18.3339 4.48105 17.8528 4 17.2595 4H8.66424C8.07089 4 7.58984 4.48105 7.58984 5.0744C7.58984 5.66776 8.07082 6.1488 8.66424 6.1488Z" fill="black"/>
<path d="M17.2595 9.14844H8.66424C8.07089 9.14844 7.58984 9.62948 7.58984 10.2228C7.58984 10.8162 8.07089 11.2972 8.66424 11.2972H17.2595C17.8528 11.2972 18.3339 10.8162 18.3339 10.2228C18.3339 9.62948 17.8528 9.14844 17.2595 9.14844Z" fill="black"/>
<path d="M17.2595 14.2969H8.66424C8.07089 14.2969 7.58984 14.7779 7.58984 15.3713C7.58984 15.9646 8.07089 16.4457 8.66424 16.4457H17.2595C17.8528 16.4457 18.3339 15.9646 18.3339 15.3713C18.3339 14.7779 17.8528 14.2969 17.2595 14.2969Z" fill="black"/>
<path d="M5.11115 11.9991C5.07914 11.9992 5.04758 11.9913 5.0191 11.9759L3.99701 11.4139L2.97492 11.9759C2.94174 11.9942 2.90434 12.0023 2.86697 11.9994C2.8296 11.9965 2.79376 11.9827 2.76351 11.9594C2.73326 11.9362 2.70981 11.9045 2.69584 11.868C2.68186 11.8315 2.67791 11.7916 2.68443 11.7529L2.88487 10.5681L2.05922 9.7264C2.03281 9.6992 2.01419 9.66476 2.00551 9.627C1.99683 9.58923 1.99843 9.54967 2.01012 9.51281C2.02181 9.47595 2.04313 9.44329 2.07165 9.41854C2.10016 9.39379 2.13472 9.37794 2.17139 9.37282L3.31363 9.19812L3.8167 8.11856C3.83313 8.08302 3.85875 8.05305 3.89064 8.03208C3.92253 8.01112 3.95939 8 3.99701 8C4.03463 8 4.0715 8.01112 4.10338 8.03208C4.13527 8.05305 4.16089 8.08302 4.17732 8.11856L4.68637 9.19603L5.82861 9.37073C5.86528 9.37585 5.89984 9.39169 5.92835 9.41644C5.95687 9.4412 5.97819 9.47386 5.98988 9.51072C6.00157 9.54758 6.00317 9.58714 5.99449 9.6249C5.98581 9.66267 5.96719 9.69711 5.94078 9.7243L5.11513 10.566L5.31557 11.7508C5.32122 11.7818 5.32011 11.8138 5.31233 11.8443C5.30454 11.8748 5.29028 11.903 5.27062 11.9269C5.25095 11.9508 5.22639 11.9697 5.19877 11.9822C5.17115 11.9947 5.1412 12.0005 5.11115 11.9991Z" fill="#FFE818"/>
<path d="M5.11115 16.9991C5.07914 16.9992 5.04758 16.9913 5.0191 16.9759L3.99701 16.4139L2.97492 16.9759C2.94174 16.9942 2.90434 17.0023 2.86697 16.9994C2.8296 16.9965 2.79376 16.9827 2.76351 16.9594C2.73326 16.9362 2.70981 16.9045 2.69584 16.868C2.68186 16.8315 2.67791 16.7916 2.68443 16.7529L2.88487 15.5681L2.05922 14.7264C2.03281 14.6992 2.01419 14.6648 2.00551 14.627C1.99683 14.5892 1.99843 14.5497 2.01012 14.5128C2.02181 14.476 2.04313 14.4433 2.07165 14.4185C2.10016 14.3938 2.13472 14.3779 2.17139 14.3728L3.31363 14.1981L3.8167 13.1186C3.83313 13.083 3.85875 13.0531 3.89064 13.0321C3.92253 13.0111 3.95939 13 3.99701 13C4.03463 13 4.0715 13.0111 4.10338 13.0321C4.13527 13.0531 4.16089 13.083 4.17732 13.1186L4.68637 14.196L5.82861 14.3707C5.86528 14.3759 5.89984 14.3917 5.92835 14.4164C5.95687 14.4412 5.97819 14.4739 5.98988 14.5107C6.00157 14.5476 6.00317 14.5871 5.99449 14.6249C5.98581 14.6627 5.96719 14.6971 5.94078 14.7243L5.11513 15.566L5.31557 16.7508C5.32122 16.7818 5.32011 16.8138 5.31233 16.8443C5.30454 16.8748 5.29028 16.903 5.27062 16.9269C5.25095 16.9508 5.22639 16.9697 5.19877 16.9822C5.17115 16.9947 5.1412 17.0005 5.11115 16.9991Z" fill="#FFE818"/>
<path d="M5.11115 6.99913C5.07914 6.99922 5.04758 6.99126 5.0191 6.97591L3.99701 6.41395L2.97492 6.97591C2.94174 6.99419 2.90434 7.00233 2.86697 6.99942C2.8296 6.99651 2.79376 6.98266 2.76351 6.95943C2.73326 6.93621 2.70981 6.90454 2.69584 6.86803C2.68186 6.83152 2.67791 6.79163 2.68443 6.75288L2.88487 5.56808L2.05922 4.7264C2.03281 4.6992 2.01419 4.66476 2.00551 4.627C1.99683 4.58923 1.99843 4.54967 2.01012 4.51281C2.02181 4.47595 2.04313 4.44329 2.07165 4.41854C2.10016 4.39379 2.13472 4.37794 2.17139 4.37282L3.31363 4.19812L3.8167 3.11856C3.83313 3.08302 3.85875 3.05305 3.89064 3.03208C3.92253 3.01112 3.95939 3 3.99701 3C4.03463 3 4.0715 3.01112 4.10338 3.03208C4.13527 3.05305 4.16089 3.08302 4.17732 3.11856L4.68637 4.19603L5.82861 4.37073C5.86528 4.37585 5.89984 4.39169 5.92835 4.41644C5.95687 4.4412 5.97819 4.47386 5.98988 4.51072C6.00157 4.54758 6.00317 4.58714 5.99449 4.6249C5.98581 4.66267 5.96719 4.69711 5.94078 4.7243L5.11513 5.56599L5.31557 6.75079C5.32122 6.78181 5.32011 6.81377 5.31233 6.84427C5.30454 6.87478 5.29028 6.90304 5.27062 6.92693C5.25095 6.95082 5.22639 6.96973 5.19877 6.98223C5.17115 6.99474 5.1412 7.00051 5.11115 6.99913Z" fill="#FFE818"/>
</svg>
