<svg width="20" height="21" viewBox="0 0 20 21" fill="none" xmlns="http://www.w3.org/2000/svg">
<g clip-path="url(#clip0_979_2526)">
<path d="M2.40039 15.5688C3.52562 10.5744 5.89654 6.0517 9.16966 2.34427C9.25924 2.24277 9.37257 2.11748 9.50966 1.96838C9.75891 1.69733 10.1807 1.67964 10.4517 1.92886C10.4654 1.94148 10.4786 1.95466 10.4912 1.96838C10.6299 2.11927 10.7446 2.24599 10.8351 2.34854C14.1062 6.05518 16.4757 10.5763 17.6005 15.5688C15.816 15.9449 13.9836 16.1913 12.1137 16.2976L10.3732 19.7788C10.2702 19.9846 10.0199 20.068 9.81407 19.9651C9.73349 19.9248 9.66807 19.8594 9.62774 19.7788L7.88717 16.2976C6.01731 16.1913 4.18493 15.9449 2.40039 15.5688ZM7.98172 14.6336L8.94599 14.6884L10.0004 16.7973L11.0549 14.6884L12.0192 14.6336C13.2041 14.5663 14.3791 14.4397 15.5412 14.2549C14.4362 10.4607 12.5454 6.94894 10.0004 3.93234C7.45545 6.94893 5.56462 10.4606 4.45976 14.2549C5.62184 14.4397 6.79685 14.5663 7.98172 14.6336ZM10.0004 13.0241C8.61974 13.0241 7.50044 11.9048 7.50044 10.5241C7.50044 9.14342 8.61974 8.02413 10.0004 8.02413C11.3812 8.02413 12.5004 9.14342 12.5004 10.5241C12.5004 11.9048 11.3812 13.0241 10.0004 13.0241ZM10.0004 11.3574C10.4607 11.3574 10.8337 10.9843 10.8337 10.5241C10.8337 10.0639 10.4607 9.69075 10.0004 9.69075C9.54024 9.69075 9.16707 10.0639 9.16707 10.5241C9.16707 10.9843 9.54024 11.3574 10.0004 11.3574Z" fill="white"/>
</g>
<defs>
<clipPath id="clip0_979_2526">
<rect width="20" height="20" fill="white" transform="translate(0 0.263672)"/>
</clipPath>
</defs>
</svg>
