<svg width="16" height="19" viewBox="0 0 16 19" fill="none" xmlns="http://www.w3.org/2000/svg">
<path d="M0.400391 14.5415C1.52562 9.54708 3.89654 5.02436 7.16966 1.31693C7.25924 1.21543 7.37257 1.09013 7.50966 0.941034C7.75891 0.669984 8.18066 0.6523 8.45166 0.901517C8.46541 0.914134 8.47857 0.927317 8.49116 0.941034C8.62991 1.09193 8.74457 1.21864 8.83507 1.3212C12.1062 5.02783 14.4757 9.54899 15.6005 14.5415C13.816 14.9176 11.9836 15.164 10.1137 15.2702L8.37316 18.7514C8.27024 18.9572 8.01991 19.0407 7.81407 18.9377C7.73349 18.8974 7.66807 18.8321 7.62774 18.7514L5.88717 15.2702C4.01731 15.164 2.18493 14.9176 0.400391 14.5415ZM5.98172 13.6062L6.94599 13.6611L8.00041 15.77L9.05491 13.6611L10.0192 13.6062C11.2041 13.5389 12.3791 13.4123 13.5412 13.2276C12.4362 9.43333 10.5454 5.9216 8.00041 2.90499C5.45545 5.92158 3.56462 9.43324 2.45976 13.2276C3.62184 13.4123 4.79685 13.5389 5.98172 13.6062ZM8.00041 11.9967C6.61974 11.9967 5.50044 10.8775 5.50044 9.49674C5.50044 8.11608 6.61974 6.99679 8.00041 6.99679C9.38116 6.99679 10.5004 8.11608 10.5004 9.49674C10.5004 10.8775 9.38116 11.9967 8.00041 11.9967ZM8.00041 10.3301C8.46066 10.3301 8.83374 9.95699 8.83374 9.49674C8.83374 9.03658 8.46066 8.66341 8.00041 8.66341C7.54024 8.66341 7.16707 9.03658 7.16707 9.49674C7.16707 9.95699 7.54024 10.3301 8.00041 10.3301Z" fill="black"/>
</svg>
