<svg width="20" height="21" viewBox="0 0 20 21" fill="none" xmlns="http://www.w3.org/2000/svg">
<path d="M2.40039 15.5415C3.52562 10.5471 5.89654 6.02436 9.16966 2.31693C9.25924 2.21543 9.37257 2.09013 9.50966 1.94103C9.75891 1.66998 10.1807 1.6523 10.4517 1.90152C10.4654 1.91413 10.4786 1.92732 10.4912 1.94103C10.6299 2.09193 10.7446 2.21864 10.8351 2.3212C14.1062 6.02783 16.4757 10.549 17.6005 15.5415C15.816 15.9176 13.9836 16.164 12.1137 16.2702L10.3732 19.7514C10.2702 19.9572 10.0199 20.0407 9.81407 19.9377C9.73349 19.8974 9.66807 19.8321 9.62774 19.7514L7.88717 16.2702C6.01731 16.164 4.18493 15.9176 2.40039 15.5415ZM7.98172 14.6062L8.94599 14.6611L10.0004 16.77L11.0549 14.6611L12.0192 14.6062C13.2041 14.5389 14.3791 14.4123 15.5412 14.2276C14.4362 10.4333 12.5454 6.9216 10.0004 3.90499C7.45545 6.92158 5.56462 10.4332 4.45976 14.2276C5.62184 14.4123 6.79685 14.5389 7.98172 14.6062ZM10.0004 12.9967C8.61974 12.9967 7.50044 11.8775 7.50044 10.4967C7.50044 9.11608 8.61974 7.99679 10.0004 7.99679C11.3812 7.99679 12.5004 9.11608 12.5004 10.4967C12.5004 11.8775 11.3812 12.9967 10.0004 12.9967ZM10.0004 11.3301C10.4607 11.3301 10.8337 10.957 10.8337 10.4967C10.8337 10.0366 10.4607 9.66341 10.0004 9.66341C9.54024 9.66341 9.16707 10.0366 9.16707 10.4967C9.16707 10.957 9.54024 11.3301 10.0004 11.3301Z" fill="black"/>
</svg>
