<svg width="20" height="21" viewBox="0 0 20 21" fill="none" xmlns="http://www.w3.org/2000/svg">
<path d="M2.50065 15.527H17.5007V5.52702H2.50065V15.527ZM0.833984 4.69368C0.833984 4.23345 1.20708 3.86035 1.66732 3.86035H18.334C18.7942 3.86035 19.1673 4.23345 19.1673 4.69368V16.3604C19.1673 16.8206 18.7942 17.1937 18.334 17.1937H1.66732C1.20708 17.1937 0.833984 16.8206 0.833984 16.3604V4.69368ZM7.50065 8.86035C7.50065 8.40012 7.12755 8.02702 6.66732 8.02702C6.20709 8.02702 5.83398 8.40012 5.83398 8.86035C5.83398 9.3206 6.20709 9.69368 6.66732 9.69368C7.12755 9.69368 7.50065 9.3206 7.50065 8.86035ZM9.16732 8.86035C9.16732 10.2411 8.04803 11.3604 6.66732 11.3604C5.28661 11.3604 4.16732 10.2411 4.16732 8.86035C4.16732 7.47964 5.28661 6.36035 6.66732 6.36035C8.04803 6.36035 9.16732 7.47964 9.16732 8.86035ZM6.66882 13.8604C5.86318 13.8604 5.13515 14.1859 4.60643 14.7146L3.42792 13.5361C4.25643 12.7076 5.4034 12.1937 6.66882 12.1937C7.93424 12.1937 9.08123 12.7076 9.90973 13.5361L8.73124 14.7146C8.20249 14.1859 7.47447 13.8604 6.66882 13.8604ZM13.5066 12.7829L16.8399 9.4496L15.6614 8.27109L12.9173 11.0152L11.4232 9.5211L10.2447 10.6996L12.3281 12.7829L12.9173 13.3722L13.5066 12.7829Z" fill="black"/>
</svg>
