<svg width="20" height="20" viewBox="0 0 20 20" fill="none" xmlns="http://www.w3.org/2000/svg">
<g clip-path="url(#clip0_1037_4514)">
<path d="M15.8337 7.5C15.6126 7.5 15.4007 7.5878 15.2444 7.74408C15.0881 7.90036 15.0003 8.11232 15.0003 8.33334C13.691 8.33141 12.4195 8.77189 11.392 9.58334H9.58366C8.47366 9.58334 7.47533 10.0658 6.78949 10.8325L4.16699 10.8333C3.37928 10.8331 2.60764 11.0562 1.94155 11.4767C1.27546 11.8972 0.74222 12.4979 0.40366 13.2092C2.37449 15.81 5.56533 17.5 9.16699 17.5C11.492 17.5 13.4587 16.9975 15.0503 16.1183C15.1086 16.2792 15.2151 16.4182 15.3553 16.5163C15.4955 16.6145 15.6625 16.667 15.8337 16.6667H18.3337C18.5547 16.6667 18.7666 16.5789 18.9229 16.4226C19.0792 16.2663 19.167 16.0544 19.167 15.8333V8.33334C19.167 8.11232 19.0792 7.90036 18.9229 7.74408C18.7666 7.5878 18.5547 7.5 18.3337 7.5H15.8337ZM14.9995 10L15.0003 14.1842L14.9628 14.2117C13.467 15.2617 11.5187 15.8333 9.16699 15.8333C6.66366 15.8333 4.33449 14.87 2.63783 13.225L2.52699 13.1142L2.62699 13.0308C3.02049 12.7226 3.49749 12.5397 3.99616 12.5058L4.16699 12.5L5.92699 12.4992C5.86616 12.7675 5.83366 13.0467 5.83366 13.3333V14.1667H13.3337V12.5L7.67533 12.4992L7.70366 12.4342C7.86336 12.1005 8.10902 11.8153 8.4154 11.6079C8.72177 11.4005 9.07783 11.2784 9.44699 11.2542L9.58366 11.25H12.0253C12.4126 10.8539 12.8751 10.5393 13.3857 10.3247C13.8963 10.11 14.4447 9.9996 14.9987 10H14.9995ZM16.667 9.16667H17.5003V15H16.667V9.16667ZM8.62866 2.97917L8.33366 3.275L8.03866 2.98C7.84549 2.78519 7.61573 2.63044 7.36259 2.52465C7.10945 2.41887 6.83791 2.36412 6.56356 2.36356C6.28921 2.363 6.01744 2.41663 5.76387 2.52138C5.5103 2.62613 5.27992 2.77993 5.08595 2.97396C4.89198 3.16798 4.73824 3.39841 4.63356 3.65201C4.52888 3.90561 4.47533 4.17739 4.47597 4.45174C4.47661 4.7261 4.53143 4.99762 4.63729 5.25073C4.74314 5.50384 4.89795 5.73355 5.09283 5.92667L8.33366 9.16667L11.5753 5.925C11.7701 5.73183 11.9249 5.50208 12.0307 5.24894C12.1365 4.9958 12.1912 4.72426 12.1918 4.4499C12.1923 4.17555 12.1387 3.90379 12.0339 3.65022C11.9292 3.39664 11.7754 3.16626 11.5814 2.97229C11.3873 2.77832 11.1569 2.62458 10.9033 2.51991C10.6497 2.41523 10.3779 2.36167 10.1036 2.36231C9.82923 2.36295 9.55771 2.41777 9.3046 2.52363C9.05149 2.62949 8.82178 2.7843 8.62866 2.97917ZM10.3953 4.15834C10.4644 4.22702 10.5072 4.31773 10.5163 4.41471C10.5255 4.51169 10.5004 4.6088 10.4453 4.68917L10.397 4.74667L8.33366 6.80834L6.27033 4.74667C6.2013 4.67773 6.15866 4.58675 6.14983 4.48959C6.141 4.39244 6.16653 4.29526 6.22199 4.215L6.27033 4.15667C6.33937 4.08777 6.4304 4.04529 6.52756 4.03661C6.62471 4.02793 6.72183 4.05361 6.80199 4.10917L6.86033 4.1575L8.33449 5.63084L9.80699 4.15584L9.86366 4.10917C9.94392 4.05371 10.0411 4.02817 10.1383 4.037C10.2354 4.04584 10.3264 4.08848 10.3953 4.1575V4.15834Z" fill="black"/>
</g>
<defs>
<clipPath id="clip0_1037_4514">
<rect width="20" height="20" fill="white" transform="matrix(-1 0 0 1 20 0)"/>
</clipPath>
</defs>
</svg>
