<svg width="20" height="20" viewBox="0 0 20 20" fill="none" xmlns="http://www.w3.org/2000/svg">
<g clip-path="url(#clip0_1037_4530)">
<path d="M13.3337 16.667V3.33366H3.33366V15.8337C3.33366 16.0547 3.42146 16.2666 3.57774 16.4229C3.73402 16.5792 3.94598 16.667 4.16699 16.667H13.3337ZM15.8337 18.3337H4.16699C3.50395 18.3337 2.86807 18.0703 2.39923 17.6014C1.93038 17.1326 1.66699 16.4967 1.66699 15.8337V2.50033C1.66699 2.27931 1.75479 2.06735 1.91107 1.91107C2.06735 1.75479 2.27931 1.66699 2.50033 1.66699H14.167C14.388 1.66699 14.6 1.75479 14.7562 1.91107C14.9125 2.06735 15.0003 2.27931 15.0003 2.50033V8.33366H18.3337V15.8337C18.3337 16.4967 18.0703 17.1326 17.6014 17.6014C17.1326 18.0703 16.4967 18.3337 15.8337 18.3337ZM15.0003 10.0003V15.8337C15.0003 16.0547 15.0881 16.2666 15.2444 16.4229C15.4007 16.5792 15.6126 16.667 15.8337 16.667C16.0547 16.667 16.2666 16.5792 16.4229 16.4229C16.5792 16.2666 16.667 16.0547 16.667 15.8337V10.0003H15.0003ZM5.00032 5.00032H10.0003V10.0003H5.00032V5.00032ZM6.66699 6.66699V8.33366H8.33366V6.66699H6.66699ZM5.00032 10.8337H11.667V12.5003H5.00032V10.8337ZM5.00032 13.3337H11.667V15.0003H5.00032V13.3337Z" fill="black"/>
</g>
<defs>
<clipPath id="clip0_1037_4530">
<rect width="20" height="20" fill="white"/>
</clipPath>
</defs>
</svg>
