<svg width="20" height="21" viewBox="0 0 20 21" fill="none" xmlns="http://www.w3.org/2000/svg">
<path d="M9.99935 18.861C5.39697 18.861 1.66602 15.13 1.66602 10.5277C1.66602 5.92529 5.39697 2.19434 9.99935 2.19434C14.6017 2.19434 18.3327 5.92529 18.3327 10.5277C18.3327 15.13 14.6017 18.861 9.99935 18.861ZM9.99935 17.1943C13.6813 17.1943 16.666 14.2096 16.666 10.5277C16.666 6.84577 13.6813 3.861 9.99935 3.861C6.31745 3.861 3.33268 6.84577 3.33268 10.5277C3.33268 14.2096 6.31745 17.1943 9.99935 17.1943ZM13.7493 6.77767L11.666 12.1943L6.24935 14.2777L8.33268 8.861L13.7493 6.77767ZM9.99935 11.361C10.4596 11.361 10.8327 10.9879 10.8327 10.5277C10.8327 10.0674 10.4596 9.69433 9.99935 9.69433C9.5391 9.69433 9.16601 10.0674 9.16601 10.5277C9.16601 10.9879 9.5391 11.361 9.99935 11.361Z" fill="black"/>
</svg>
