<svg width="20" height="20" viewBox="0 0 20 20" fill="none" xmlns="http://www.w3.org/2000/svg">
<path d="M10.0003 18.3337C5.39795 18.3337 1.66699 14.6027 1.66699 10.0003C1.66699 5.39795 5.39795 1.66699 10.0003 1.66699C14.6027 1.66699 18.3337 5.39795 18.3337 10.0003C18.3337 14.6027 14.6027 18.3337 10.0003 18.3337ZM10.0003 16.667C13.6822 16.667 16.667 13.6822 16.667 10.0003C16.667 6.31842 13.6822 3.33366 10.0003 3.33366C6.31842 3.33366 3.33366 6.31842 3.33366 10.0003C3.33366 13.6822 6.31842 16.667 10.0003 16.667ZM13.7503 6.25032L11.667 11.667L6.25032 13.7503L8.33366 8.33366L13.7503 6.25032ZM10.0003 10.8337C10.4606 10.8337 10.8337 10.4606 10.8337 10.0003C10.8337 9.54007 10.4606 9.16699 10.0003 9.16699C9.54007 9.16699 9.16699 9.54007 9.16699 10.0003C9.16699 10.4606 9.54007 10.8337 10.0003 10.8337Z" fill="black"/>
</svg>
