<svg width="20" height="21" viewBox="0 0 20 21" fill="none" xmlns="http://www.w3.org/2000/svg">
<path d="M7.47112 14.5003C7.26893 15.9137 6.05335 17.0003 4.58398 17.0003C3.11462 17.0003 1.89903 15.9137 1.69685 14.5003H0.833984V4.50033C0.833984 4.04009 1.20708 3.66699 1.66732 3.66699H13.334C13.7942 3.66699 14.1673 4.04009 14.1673 4.50033V6.16699H16.6673L19.1673 9.54674V14.5003H17.4712C17.2689 15.9137 16.0533 17.0003 14.584 17.0003C13.1147 17.0003 11.8991 15.9137 11.6968 14.5003H7.47112ZM12.5007 5.33366H2.50065V12.0424C3.03003 11.5022 3.76787 11.167 4.58398 11.167C5.74748 11.167 6.75186 11.8482 7.21997 12.8337H11.948C12.0877 12.5395 12.2753 12.2723 12.5007 12.0424V5.33366ZM14.1673 10.3337H17.5007V10.0962L15.8271 7.83366H14.1673V10.3337ZM14.584 15.3337C15.1282 15.3337 15.5912 14.9858 15.7628 14.5003C15.8089 14.37 15.834 14.2297 15.834 14.0837C15.834 13.3933 15.2743 12.8337 14.584 12.8337C13.8937 12.8337 13.334 13.3933 13.334 14.0837C13.334 14.2297 13.3591 14.37 13.4052 14.5003C13.5767 14.9858 14.0397 15.3337 14.584 15.3337ZM5.83398 14.0837C5.83398 13.3933 5.27434 12.8337 4.58398 12.8337C3.89363 12.8337 3.33398 13.3933 3.33398 14.0837C3.33398 14.2297 3.35905 14.37 3.40511 14.5003C3.57671 14.9858 4.03973 15.3337 4.58398 15.3337C5.12824 15.3337 5.59126 14.9858 5.76286 14.5003C5.80892 14.37 5.83398 14.2297 5.83398 14.0837Z" fill="black"/>
</svg>
