<svg width="20" height="14" viewBox="0 0 20 14" fill="none" xmlns="http://www.w3.org/2000/svg">
<path d="M7.47112 11.5003C7.26893 12.9137 6.05335 14.0003 4.58398 14.0003C3.11462 14.0003 1.89903 12.9137 1.69685 11.5003H0.833984V1.50033C0.833984 1.04009 1.20708 0.666992 1.66732 0.666992H13.334C13.7942 0.666992 14.1673 1.04009 14.1673 1.50033V3.16699H16.6673L19.1673 6.54674V11.5003H17.4712C17.2689 12.9137 16.0533 14.0003 14.584 14.0003C13.1147 14.0003 11.8991 12.9137 11.6968 11.5003H7.47112ZM12.5007 2.33366H2.50065V9.04241C3.03003 8.50216 3.76787 8.16699 4.58398 8.16699C5.74748 8.16699 6.75186 8.84824 7.21997 9.83366H11.948C12.0877 9.53949 12.2753 9.27232 12.5007 9.04241V2.33366ZM14.1673 7.33366H17.5007V7.09616L15.8271 4.83366H14.1673V7.33366ZM14.584 12.3337C15.1282 12.3337 15.5912 11.9858 15.7628 11.5003C15.8089 11.37 15.834 11.2297 15.834 11.0837C15.834 10.3933 15.2743 9.83366 14.584 9.83366C13.8937 9.83366 13.334 10.3933 13.334 11.0837C13.334 11.2297 13.3591 11.37 13.4052 11.5003C13.5767 11.9858 14.0397 12.3337 14.584 12.3337ZM5.83398 11.0837C5.83398 10.3933 5.27434 9.83366 4.58398 9.83366C3.89363 9.83366 3.33398 10.3933 3.33398 11.0837C3.33398 11.2297 3.35905 11.37 3.40511 11.5003C3.57671 11.9858 4.03973 12.3337 4.58398 12.3337C5.12824 12.3337 5.59126 11.9858 5.76286 11.5003C5.80892 11.37 5.83398 11.2297 5.83398 11.0837Z" fill="black"/>
</svg>
