<svg width="12" height="19" viewBox="0 0 12 19" fill="none" xmlns="http://www.w3.org/2000/svg">
<path d="M2.34842 6.76027L5.01932 4.81977C5.31248 4.60612 5.67473 4.48786 6.05498 4.50067C6.98115 4.52344 7.79448 5.13057 8.0774 6.01697C8.23265 6.50359 8.37423 6.83197 8.50223 7.00208C9.26248 8.01292 10.4721 8.66667 11.8343 8.66667V10.3333C10.0221 10.3333 8.4029 9.50692 7.33298 8.2105L6.75165 11.5071L8.46923 12.9483L10.3219 18.0383L8.75573 18.6083L7.05582 13.938L4.23062 11.5673C3.77433 11.1985 3.52697 10.5993 3.63607 9.98058L4.05991 7.57692L3.49588 7.98675L1.72337 10.4263L0.375 9.44675L2.33428 6.75L2.34842 6.76027ZM7.25098 4.08333C6.33048 4.08333 5.58432 3.33714 5.58432 2.41667C5.58432 1.49619 6.33048 0.75 7.25098 0.75C8.1714 0.75 8.91765 1.49619 8.91765 2.41667C8.91765 3.33714 8.1714 4.08333 7.25098 4.08333ZM4.77465 15.0677L2.09636 18.2597L0.819625 17.1883L3.29893 14.2336L3.92103 12.4167L5.41365 13.6667L4.77465 15.0677Z" fill="black"/>
</svg>
