<svg width="20" height="21" viewBox="0 0 20 21" fill="none" xmlns="http://www.w3.org/2000/svg">
<path d="M6.34842 7.76027L9.01932 5.81977C9.31248 5.60612 9.67473 5.48786 10.055 5.50067C10.9811 5.52344 11.7945 6.13057 12.0774 7.01697C12.2327 7.50359 12.3742 7.83197 12.5022 8.00208C13.2625 9.01292 14.4721 9.66667 15.8343 9.66667V11.3333C14.0221 11.3333 12.4029 10.5069 11.333 9.2105L10.7517 12.5071L12.4692 13.9483L14.3219 19.0383L12.7557 19.6083L11.0558 14.938L8.23062 12.5673C7.77433 12.1985 7.52697 11.5993 7.63607 10.9806L8.05991 8.57692L7.49588 8.98675L5.72337 11.4263L4.375 10.4467L6.33428 7.75L6.34842 7.76027ZM11.251 5.08333C10.3305 5.08333 9.58432 4.33714 9.58432 3.41667C9.58432 2.49619 10.3305 1.75 11.251 1.75C12.1714 1.75 12.9177 2.49619 12.9177 3.41667C12.9177 4.33714 12.1714 5.08333 11.251 5.08333ZM8.77465 16.0677L6.09636 19.2597L4.81962 18.1883L7.29893 15.2336L7.92103 13.4167L9.41365 14.6667L8.77465 16.0677Z" fill="black"/>
</svg>
