<svg width="20" height="21" viewBox="0 0 20 21" fill="none" xmlns="http://www.w3.org/2000/svg">
<path d="M5.83268 4.69368V2.19368C5.83268 1.73345 6.20578 1.36035 6.66601 1.36035H13.3327C13.7929 1.36035 14.166 1.73345 14.166 2.19368V4.69368H17.4993C17.9596 4.69368 18.3327 5.06678 18.3327 5.52702V17.1937C18.3327 17.6539 17.9596 18.027 17.4993 18.027H2.49935C2.03912 18.027 1.66602 17.6539 1.66602 17.1937V5.52702C1.66602 5.06678 2.03912 4.69368 2.49935 4.69368H5.83268ZM16.666 11.3603H3.33268V16.3603H16.666V11.3603ZM16.666 6.36035H3.33268V9.69368H5.83268V8.02702H7.49935V9.69368H12.4993V8.02702H14.166V9.69368H16.666V6.36035ZM7.49935 3.02702V4.69368H12.4993V3.02702H7.49935Z" fill="black"/>
</svg>
